ISO-10303-21;
HEADER;
FILE_DESCRIPTION (( 'STEP AP214' ),
    '1' );
FILE_NAME ('Ahmed body Sim.STEP',
    '2026-09-11T15:48:23',
    ( '' ),
    ( '' ),
    'SwSTEP 2.0',
    'SolidWorks 2026',
    '' );
FILE_SCHEMA (( 'AUTOMOTIVE_DESIGN' ));
ENDSEC;

DATA;
#1 = CARTESIAN_POINT ( 'NONE',  ( -2.155349794946650910, 121.3897345045710807, 5.143396553692086925 ) ) ;
#2 = EDGE_CURVE ( 'NONE', #214, #559, #590, .T. ) ;
#3 = DIRECTION ( 'NONE',  ( -0.000000000000000000, 1.000000000000000000, -0.000000000000000000 ) ) ;
#4 = ORIENTED_EDGE ( 'NONE', *, *, #185, .T. ) ;
#5 = DIRECTION ( 'NONE',  ( 0.000000000000000000, -0.000000000000000000, 1.000000000000000000 ) ) ;
#6 = VECTOR ( 'NONE', #227, 1000.000000000000000 ) ;
#7 = CARTESIAN_POINT ( 'NONE',  ( 5.594650205053347314, 113.3897345045710665, 2.499999999999996891 ) ) ;
#8 = EDGE_LOOP ( 'NONE', ( #387, #198, #204, #101 ) ) ;
#9 = EDGE_CURVE ( 'NONE', #317, #483, #649, .T. ) ;
#10 = UNCERTAINTY_MEASURE_WITH_UNIT (LENGTH_MEASURE( 1.000000000000000082E-05 ), #528, 'distance_accuracy_value', 'NONE');
#11 = LINE ( 'NONE', #63, #364 ) ;
#12 = FACE_OUTER_BOUND ( 'NONE', #276, .T. ) ;
#13 = ORIENTED_EDGE ( 'NONE', *, *, #701, .T. ) ;
#14 = EDGE_CURVE ( 'NONE', #90, #456, #641, .T. ) ;
#15 = ORIENTED_EDGE ( 'NONE', *, *, #42, .F. ) ;
#16 = AXIS2_PLACEMENT_3D ( 'NONE', #229, #584, #397 ) ;
#17 = DIRECTION ( 'NONE',  ( -1.156482317317871725E-16, 3.469446951953614805E-17, -1.000000000000000000 ) ) ;
#18 = CARTESIAN_POINT ( 'NONE',  ( -52.93534979494664583, 138.3897345045710381, 20.00999999999997314 ) ) ;
#19 = EDGE_CURVE ( 'NONE', #541, #515, #88, .T. ) ;
#20 = AXIS2_PLACEMENT_3D ( 'NONE', #610, #552, #260 ) ;
#21 = DIRECTION ( 'NONE',  ( 0.000000000000000000, -1.000000000000000000, -5.898059818321145107E-16 ) ) ;
#22 = DIRECTION ( 'NONE',  ( -1.000000000000000000, 0.000000000000000000, -0.000000000000000000 ) ) ;
#23 = CARTESIAN_POINT ( 'NONE',  ( -52.93534979494664583, 175.4082345045710554, -8.510000000000026432 ) ) ;
#24 = LINE ( 'NONE', #482, #81 ) ;
#25 = CARTESIAN_POINT ( 'NONE',  ( 5.594650205053347314, 113.3897345045710381, 4.601463761129936714 ) ) ;
#26 = CARTESIAN_POINT ( 'NONE',  ( -2.155349794946650910, 121.3897345045710807, 5.143396553692086925 ) ) ;
#27 = PRODUCT_RELATED_PRODUCT_CATEGORY ( 'part', '', ( #494 ) ) ;
#28 = CARTESIAN_POINT ( 'NONE',  ( -24.40534979494664825, 138.3897345045710665, 2.500000000000015099 ) ) ;
#29 = VECTOR ( 'NONE', #711, 1000.000000000000000 ) ;
#30 = FILL_AREA_STYLE_COLOUR ( '', #517 ) ;
#31 = PRODUCT_DEFINITION_SHAPE ( 'NONE', 'NONE',  #733 ) ;
#32 = CARTESIAN_POINT ( 'NONE',  ( 20.59465020505335175, 138.3897345045710381, -3.552561581977378147 ) ) ;
#33 = CARTESIAN_POINT ( 'NONE',  ( -64.43534979494664583, 138.3897345045710381, 20.00999999999997314 ) ) ;
#34 = ORIENTED_EDGE ( 'NONE', *, *, #713, .F. ) ;
#35 = AXIS2_PLACEMENT_3D ( 'NONE', #94, #618, #270 ) ;
#36 = ORIENTED_EDGE ( 'NONE', *, *, #67, .T. ) ;
#37 = ADVANCED_FACE ( 'NONE', ( #594 ), #79, .F. ) ;
#38 =( GEOMETRIC_REPRESENTATION_CONTEXT ( 3 ) GLOBAL_UNCERTAINTY_ASSIGNED_CONTEXT ( ( #10 ) ) GLOBAL_UNIT_ASSIGNED_CONTEXT ( ( #528, #136, #309 ) ) REPRESENTATION_CONTEXT ( 'NONE', 'WORKASPACE' ) );
#39 = VECTOR ( 'NONE', #512, 1000.000000000000000 ) ;
#40 = CARTESIAN_POINT ( 'NONE',  ( 5.594650205053341985, 113.3897345045710381, -4.601463761129931385 ) ) ;
#41 = ORIENTED_EDGE ( 'NONE', *, *, #42, .T. ) ;
#42 = EDGE_CURVE ( 'NONE', #673, #483, #252, .T. ) ;
#43 = APPLICATION_PROTOCOL_DEFINITION ( 'draft international standard', 'automotive_design', 1998, #564 ) ;
#44 = CARTESIAN_POINT ( 'NONE',  ( 0.000000000000000000, 113.3897345045710381, 0.000000000000000000 ) ) ;
#45 = ORIENTED_EDGE ( 'NONE', *, *, #620, .T. ) ;
#46 = VECTOR ( 'NONE', #708, 1000.000000000000114 ) ;
#47 =( BOUNDED_CURVE ( )  B_SPLINE_CURVE ( 3, ( #575, #455, #683, #568 ),
 .UNSPECIFIED., .F., .T. ) 
 B_SPLINE_CURVE_WITH_KNOTS ( ( 4, 4 ),
 ( 1.570796326794896780, 3.141592653589793116 ),
 .UNSPECIFIED. ) 
 CURVE ( )  GEOMETRIC_REPRESENTATION_ITEM ( )  RATIONAL_B_SPLINE_CURVE ( ( 1.000000000000000000, 0.8047378541243650485, 0.8047378541243650485, 1.000000000000000000 ) ) 
 REPRESENTATION_ITEM ( '' )  );
#48 = CARTESIAN_POINT ( 'NONE',  ( -14.40534979494665180, 113.3897345045710665, -2.499999999999998224 ) ) ;
#49 = ORIENTED_EDGE ( 'NONE', *, *, #363, .T. ) ;
#50 = EDGE_CURVE ( 'NONE', #134, #673, #709, .T. ) ;
#51 = LINE ( 'NONE', #345, #266 ) ;
#52 = ORIENTED_EDGE ( 'NONE', *, *, #737, .T. ) ;
#53 = DIRECTION ( 'NONE',  ( 0.000000000000000000, -1.000000000000000000, -5.782411586589352708E-16 ) ) ;
#54 = FACE_BOUND ( 'NONE', #743, .T. ) ;
#55 = ORIENTED_EDGE ( 'NONE', *, *, #60, .T. ) ;
#56 = LINE ( 'NONE', #640, #399 ) ;
#57 = PLANE ( 'NONE',  #434 ) ;
#58 = EDGE_LOOP ( 'NONE', ( #36, #224, #15, #630 ) ) ;
#59 = DIRECTION ( 'NONE',  ( 0.000000000000000000, 0.000000000000000000, 1.000000000000000000 ) ) ;
#60 = EDGE_CURVE ( 'NONE', #555, #735, #646, .T. ) ;
#61 = DIRECTION ( 'NONE',  ( -1.000000000000000000, 0.000000000000000000, 0.000000000000000000 ) ) ;
#62 = VERTEX_POINT ( 'NONE', #599 ) ;
#63 = CARTESIAN_POINT ( 'NONE',  ( -52.93534979494664583, 175.4082345045710554, 20.00999999999997314 ) ) ;
#64 = LINE ( 'NONE', #294, #686 ) ;
#65 = ORIENTED_EDGE ( 'NONE', *, *, #208, .T. ) ;
#66 = DIRECTION ( 'NONE',  ( -1.000000000000000000, 0.000000000000000000, 0.000000000000000000 ) ) ;
#67 = EDGE_CURVE ( 'NONE', #134, #317, #660, .T. ) ;
#68 = AXIS2_PLACEMENT_3D ( 'NONE', #256, #17, #593 ) ;
#69 = DIRECTION ( 'NONE',  ( 0.000000000000000000, 0.000000000000000000, 1.000000000000000000 ) ) ;
#70 = SURFACE_SIDE_STYLE ('',( #487 ) ) ;
#71 = EDGE_CURVE ( 'NONE', #460, #728, #312, .T. ) ;
#72 = CYLINDRICAL_SURFACE ( 'NONE', #562, 11.50000000000000355 ) ;
#73 = ORIENTED_EDGE ( 'NONE', *, *, #513, .F. ) ;
#74 = STYLED_ITEM ( 'NONE', ( #724 ), #351 ) ;
#75 = CARTESIAN_POINT ( 'NONE',  ( 30.09465020505319188, 175.4082345045710554, -2.456368441983158846E-14 ) ) ;
#76 = ORIENTED_EDGE ( 'NONE', *, *, #518, .F. ) ;
#77 = AXIS2_PLACEMENT_3D ( 'NONE', #111, #339, #5 ) ;
#78 = CARTESIAN_POINT ( 'NONE',  ( -14.40534979494665180, 113.3897345045710381, 2.499999999999998668 ) ) ;
#79 = PLANE ( 'NONE',  #138 ) ;
#80 = FACE_OUTER_BOUND ( 'NONE', #58, .T. ) ;
#81 = VECTOR ( 'NONE', #473, 1000.000000000000000 ) ;
#82 = DIRECTION ( 'NONE',  ( 0.000000000000000000, -1.000000000000000000, -5.782411586589352708E-16 ) ) ;
#83 = DIRECTION ( 'NONE',  ( 0.000000000000000000, 0.000000000000000000, 1.000000000000000000 ) ) ;
#84 = ADVANCED_FACE ( 'NONE', ( #720, #663 ), #145, .F. ) ;
#85 = DIRECTION ( 'NONE',  ( 1.000000000000000000, 0.000000000000000000, -0.000000000000000000 ) ) ;
#86 = EDGE_CURVE ( 'NONE', #238, #134, #544, .T. ) ;
#87 = CARTESIAN_POINT ( 'NONE',  ( -52.93534979494664583, 149.8897345045710381, -20.01000000000002643 ) ) ;
#88 = LINE ( 'NONE', #357, #259 ) ;
#89 = DIRECTION ( 'NONE',  ( -0.000000000000000000, 1.000000000000000000, -0.000000000000000000 ) ) ;
#90 = VERTEX_POINT ( 'NONE', #723 ) ;
#91 = CARTESIAN_POINT ( 'NONE',  ( 0.000000000000000000, 113.3897345045710381, 0.000000000000000000 ) ) ;
#92 = CARTESIAN_POINT ( 'NONE',  ( -64.43534979494664583, 163.9082345045710269, -8.510000000000026432 ) ) ;
#93 = EDGE_LOOP ( 'NONE', ( #288, #65, #452, #576, #179 ) ) ;
#94 = CARTESIAN_POINT ( 'NONE',  ( -4.405349794946656239, 121.3897345045710807, 23.99999999999999645 ) ) ;
#95 = ORIENTED_EDGE ( 'NONE', *, *, #699, .F. ) ;
#96 = EDGE_CURVE ( 'NONE', #572, #396, #490, .T. ) ;
#97 = FACE_OUTER_BOUND ( 'NONE', #327, .T. ) ;
#98 = ORIENTED_EDGE ( 'NONE', *, *, #328, .F. ) ;
#99 = AXIS2_PLACEMENT_3D ( 'NONE', #704, #180, #627 ) ;
#100 = CARTESIAN_POINT ( 'NONE',  ( 5.594650205053347314, 113.3897345045710381, -4.601463761129931385 ) ) ;
#101 = ORIENTED_EDGE ( 'NONE', *, *, #382, .T. ) ;
#102 = CARTESIAN_POINT ( 'NONE',  ( -59.67189382765604933, 175.4082345045710838, 20.00999999999996604 ) ) ;
#103 = ORIENTED_EDGE ( 'NONE', *, *, #211, .F. ) ;
#104 = VECTOR ( 'NONE', #275, 1000.000000000000000 ) ;
#105 = FACE_OUTER_BOUND ( 'NONE', #583, .T. ) ;
#106 = ORIENTED_EDGE ( 'NONE', *, *, #658, .F. ) ;
#107 = DIRECTION ( 'NONE',  ( 1.000000000000000000, -0.000000000000000000, -1.156482317317871725E-16 ) ) ;
#108 = AXIS2_PLACEMENT_3D ( 'NONE', #461, #516, #66 ) ;
#109 = FACE_BOUND ( 'NONE', #220, .T. ) ;
#110 = ORIENTED_EDGE ( 'NONE', *, *, #304, .F. ) ;
#111 = CARTESIAN_POINT ( 'NONE',  ( -4.405349794946637587, 175.4082345045710554, -2.456368441983158846E-14 ) ) ;
#112 = CARTESIAN_POINT ( 'NONE',  ( 55.62465020505337066, 163.5033999918739198, -20.01000000000002643 ) ) ;
#113 = EDGE_LOOP ( 'NONE', ( #325, #506, #263, #654 ) ) ;
#114 =( GEOMETRIC_REPRESENTATION_CONTEXT ( 3 ) GLOBAL_UNCERTAINTY_ASSIGNED_CONTEXT ( ( #130 ) ) GLOBAL_UNIT_ASSIGNED_CONTEXT ( ( #495, #155, #437 ) ) REPRESENTATION_CONTEXT ( 'NONE', 'WORKASPACE' ) );
#115 = DIRECTION ( 'NONE',  ( -0.000000000000000000, 0.000000000000000000, 1.000000000000000000 ) ) ;
#116 = FACE_OUTER_BOUND ( 'NONE', #121, .T. ) ;
#117 = ORIENTED_EDGE ( 'NONE', *, *, #666, .F. ) ;
#118 = EDGE_CURVE ( 'NONE', #460, #614, #265, .T. ) ;
#119 = DIRECTION ( 'NONE',  ( 0.000000000000000000, -1.000000000000000000, 0.000000000000000000 ) ) ;
#120 = CARTESIAN_POINT ( 'NONE',  ( -2.155349794946650910, 125.8897345045710807, 5.143396553692085149 ) ) ;
#121 = EDGE_LOOP ( 'NONE', ( #485, #428, #162, #103 ) ) ;
#122 = CARTESIAN_POINT ( 'NONE',  ( 55.62465020505337066, 138.3897345045710381, 20.00999999999997314 ) ) ;
#123 = DIRECTION ( 'NONE',  ( 1.000000000000000000, 0.000000000000000000, 0.000000000000000000 ) ) ;
#124 = CARTESIAN_POINT ( 'NONE',  ( -64.43534979494664583, 143.1531904718616488, 15.24654403270937841 ) ) ;
#125 = CARTESIAN_POINT ( 'NONE',  ( 55.62465020505337066, 163.5033999918739198, 20.00999999999997314 ) ) ;
#126 = ADVANCED_FACE ( 'NONE', ( #377 ), #548, .T. ) ;
#127 = VECTOR ( 'NONE', #668, 1000.000000000000114 ) ;
#128 = CARTESIAN_POINT ( 'NONE',  ( -14.40534979494665180, 113.3897345045710381, -6.000000000000001776 ) ) ;
#129 = CARTESIAN_POINT ( 'NONE',  ( 5.594650205053347314, 113.3897345045710381, -6.000000000000000000 ) ) ;
#130 = UNCERTAINTY_MEASURE_WITH_UNIT (LENGTH_MEASURE( 1.000000000000000082E-05 ), #495, 'distance_accuracy_value', 'NONE');
#131 = LINE ( 'NONE', #262, #231 ) ;
#132 = ORIENTED_EDGE ( 'NONE', *, *, #685, .T. ) ;
#133 = DIRECTION ( 'NONE',  ( -0.000000000000000000, -0.000000000000000000, -1.000000000000000000 ) ) ;
#134 = VERTEX_POINT ( 'NONE', #667 ) ;
#135 = PRESENTATION_LAYER_ASSIGNMENT (  '', '', ( #74 ) ) ;
#136 =( NAMED_UNIT ( * ) PLANE_ANGLE_UNIT ( ) SI_UNIT ( $, .RADIAN. ) );
#137 = EDGE_LOOP ( 'NONE', ( #623, #45 ) ) ;
#138 = AXIS2_PLACEMENT_3D ( 'NONE', #308, #535, #22 ) ;
#139 = ADVANCED_BREP_SHAPE_REPRESENTATION ( 'Ahmed body Sim', ( #351, #20 ), #114 ) ;
#140 = CARTESIAN_POINT ( 'NONE',  ( -14.40534979494665180, 113.3897345045710381, 6.000000000000000000 ) ) ;
#141 = CARTESIAN_POINT ( 'NONE',  ( -6.655349794946656239, 116.8897345045710949, -5.458067207437851565 ) ) ;
#142 = CARTESIAN_POINT ( 'NONE',  ( -6.655349794946656239, 121.3897345045710807, -2.500000000000001776 ) ) ;
#143 = ORIENTED_EDGE ( 'NONE', *, *, #185, .F. ) ;
#144 = DIRECTION ( 'NONE',  ( 0.000000000000000000, -1.000000000000000000, 0.000000000000000000 ) ) ;
#145 = PLANE ( 'NONE',  #438 ) ;
#146 = CARTESIAN_POINT ( 'NONE',  ( -52.93534979494664583, 138.3897345045710381, -2.456368441983158846E-14 ) ) ;
#147 = VERTEX_POINT ( 'NONE', #122 ) ;
#148 = ADVANCED_FACE ( 'NONE', ( #632 ), #581, .F. ) ;
#149 = DIRECTION ( 'NONE',  ( -0.9975640502598247528, 0.000000000000000000, -0.06975647374411847457 ) ) ;
#150 = CARTESIAN_POINT ( 'NONE',  ( 5.594650205053347314, 113.3897345045710665, -2.500000000000000444 ) ) ;
#151 = ORIENTED_EDGE ( 'NONE', *, *, #471, .F. ) ;
#152 = CARTESIAN_POINT ( 'NONE',  ( -52.93534979494664583, 175.4082345045710554, -20.01000000000002643 ) ) ;
#153 = ORIENTED_EDGE ( 'NONE', *, *, #481, .F. ) ;
#154 = ADVANCED_FACE ( 'NONE', ( #457, #698 ), #282, .F. ) ;
#155 =( NAMED_UNIT ( * ) PLANE_ANGLE_UNIT ( ) SI_UNIT ( $, .RADIAN. ) );
#156 = ORIENTED_EDGE ( 'NONE', *, *, #14, .F. ) ;
#157 = DIRECTION ( 'NONE',  ( 0.000000000000000000, -1.000000000000000000, 0.000000000000000000 ) ) ;
#158 = ORIENTED_EDGE ( 'NONE', *, *, #350, .F. ) ;
#159 = CYLINDRICAL_SURFACE ( 'NONE', #35, 2.250000000000002665 ) ;
#160 = ORIENTED_EDGE ( 'NONE', *, *, #193, .T. ) ;
#161 = DIRECTION ( 'NONE',  ( 0.000000000000000000, 0.000000000000000000, 1.000000000000000000 ) ) ;
#162 = ORIENTED_EDGE ( 'NONE', *, *, #441, .F. ) ;
#163 = VECTOR ( 'NONE', #326, 1000.000000000000000 ) ;
#164 = CARTESIAN_POINT ( 'NONE',  ( -4.405349794946637587, 138.3897345045710381, -2.456368441983158846E-14 ) ) ;
#165 = ORIENTED_EDGE ( 'NONE', *, *, #318, .F. ) ;
#166 = FACE_OUTER_BOUND ( 'NONE', #228, .T. ) ;
#167 = ADVANCED_FACE ( 'NONE', ( #166 ), #293, .F. ) ;
#168 = VECTOR ( 'NONE', #268, 1000.000000000000000 ) ;
#169 = VECTOR ( 'NONE', #344, 1000.000000000000000 ) ;
#170 = DIRECTION ( 'NONE',  ( 0.000000000000000000, 0.000000000000000000, -1.000000000000000000 ) ) ;
#171 = EDGE_LOOP ( 'NONE', ( #635, #52, #440, #423 ) ) ;
#172 = DIRECTION ( 'NONE',  ( -0.000000000000000000, 0.000000000000000000, -1.000000000000000000 ) ) ;
#173 = ADVANCED_FACE ( 'NONE', ( #177 ), #695, .F. ) ;
#174 = CARTESIAN_POINT ( 'NONE',  ( -64.43534979494664583, 175.4082345045710554, -20.01000000000002643 ) ) ;
#175 = ORIENTED_EDGE ( 'NONE', *, *, #118, .T. ) ;
#176 = AXIS2_PLACEMENT_3D ( 'NONE', #415, #144, #311 ) ;
#177 = FACE_OUTER_BOUND ( 'NONE', #210, .T. ) ;
#178 = CARTESIAN_POINT ( 'NONE',  ( 20.59465020505335175, 178.2394521949136106, -3.552561581977378147 ) ) ;
#179 = ORIENTED_EDGE ( 'NONE', *, *, #350, .T. ) ;
#180 = DIRECTION ( 'NONE',  ( -1.156482317317871725E-16, 3.469446951953614805E-17, -1.000000000000000000 ) ) ;
#181 = LINE ( 'NONE', #469, #676 ) ;
#182 = ORIENTED_EDGE ( 'NONE', *, *, #19, .F. ) ;
#183 = PRODUCT_DEFINITION_CONTEXT ( 'detailed design', #564, 'design' ) ;
#184 = CARTESIAN_POINT ( 'NONE',  ( -24.40534979494664825, 113.3897345045710665, 2.500000000000000444 ) ) ;
#185 = EDGE_CURVE ( 'NONE', #559, #523, #529, .T. ) ;
#186 = CARTESIAN_POINT ( 'NONE',  ( 5.594650205053347314, 113.3897345045710665, -2.500000000000000444 ) ) ;
#187 = LINE ( 'NONE', #146, #300 ) ;
#188 = EDGE_LOOP ( 'NONE', ( #639, #190, #242, #520 ) ) ;
#189 = CARTESIAN_POINT ( 'NONE',  ( -6.655349794946655351, 121.3897345045710807, -5.458067207437852453 ) ) ;
#190 = ORIENTED_EDGE ( 'NONE', *, *, #504, .T. ) ;
#191 = DIRECTION ( 'NONE',  ( -0.9063077870366509359, 0.4226182617406974429, -0.000000000000000000 ) ) ;
#192 = APPLICATION_CONTEXT ( 'automotive_design' ) ;
#193 = EDGE_CURVE ( 'NONE', #503, #523, #56, .T. ) ;
#194 = DIRECTION ( 'NONE',  ( -0.9975640502598247528, 0.000000000000000000, 0.06975647374411816926 ) ) ;
#195 = CARTESIAN_POINT ( 'NONE',  ( -2.155349794946649578, 121.3897345045710807, -5.143396553692083373 ) ) ;
#196 = VECTOR ( 'NONE', #59, 1000.000000000000000 ) ;
#197 = DIRECTION ( 'NONE',  ( 0.000000000000000000, 0.000000000000000000, 1.000000000000000000 ) ) ;
#198 = ORIENTED_EDGE ( 'NONE', *, *, #255, .T. ) ;
#199 = CYLINDRICAL_SURFACE ( 'NONE', #372, 2.250000000000002665 ) ;
#200 = CARTESIAN_POINT ( 'NONE',  ( 5.594650205053347314, 138.3897345045710381, -6.000000000000000000 ) ) ;
#201 = CARTESIAN_POINT ( 'NONE',  ( -24.40534979494664825, 113.3897345045710665, -2.499999999999996891 ) ) ;
#202 = VERTEX_POINT ( 'NONE', #521 ) ;
#203 = APPLICATION_PROTOCOL_DEFINITION ( 'draft international standard', 'automotive_design', 1998, #192 ) ;
#204 = ORIENTED_EDGE ( 'NONE', *, *, #385, .T. ) ;
#205 = AXIS2_PLACEMENT_3D ( 'NONE', #112, #237, #161 ) ;
#206 = CARTESIAN_POINT ( 'NONE',  ( 55.62465020505337066, 175.4082345045710554, -20.01000000000002643 ) ) ;
#207 = DIRECTION ( 'NONE',  ( 0.000000000000000000, -0.000000000000000000, -1.000000000000000000 ) ) ;
#208 = EDGE_CURVE ( 'NONE', #406, #90, #11, .T. ) ;
#209 = CARTESIAN_POINT ( 'NONE',  ( -64.43534979494664583, 163.9082345045710269, 8.509999999999971365 ) ) ;
#210 = EDGE_LOOP ( 'NONE', ( #368, #412, #160, #143 ) ) ;
#211 = EDGE_CURVE ( 'NONE', #679, #62, #410, .T. ) ;
#212 = AXIS2_PLACEMENT_3D ( 'NONE', #524, #689, #53 ) ;
#213 = LINE ( 'NONE', #497, #489 ) ;
#214 = VERTEX_POINT ( 'NONE', #1 ) ;
#215 = VECTOR ( 'NONE', #21, 1000.000000000000000 ) ;
#216 = CARTESIAN_POINT ( 'NONE',  ( -64.43534979494664583, 170.6447785372803878, -15.24654403270943526 ) ) ;
#217 = EDGE_LOOP ( 'NONE', ( #314, #384, #443, #271 ) ) ;
#218 = ADVANCED_FACE ( 'NONE', ( #465 ), #286, .T. ) ;
#219 = CARTESIAN_POINT ( 'NONE',  ( -64.43534979494664583, 149.8897345045710381, 8.509999999999971365 ) ) ;
#220 = EDGE_LOOP ( 'NONE', ( #34, #435 ) ) ;
#221 = PLANE ( 'NONE',  #205 ) ;
#222 = ORIENTED_EDGE ( 'NONE', *, *, #481, .T. ) ;
#223 = PLANE ( 'NONE',  #725 ) ;
#224 = ORIENTED_EDGE ( 'NONE', *, *, #9, .T. ) ;
#225 = LINE ( 'NONE', #573, #272 ) ;
#226 = VECTOR ( 'NONE', #378, 1000.000000000000000 ) ;
#227 = DIRECTION ( 'NONE',  ( -0.000000000000000000, -1.000000000000000000, -0.000000000000000000 ) ) ;
#228 = EDGE_LOOP ( 'NONE', ( #693, #348, #626, #619 ) ) ;
#229 = CARTESIAN_POINT ( 'NONE',  ( -64.43534979494664583, 175.4082345045710554, -20.01000000000002643 ) ) ;
#230 = ADVANCED_FACE ( 'NONE', ( #236 ), #570, .F. ) ;
#231 = VECTOR ( 'NONE', #361, 1000.000000000000000 ) ;
#232 = EDGE_CURVE ( 'NONE', #732, #541, #745, .T. ) ;
#233 = VECTOR ( 'NONE', #83, 1000.000000000000000 ) ;
#234 = DIRECTION ( 'NONE',  ( -0.06975647374411847457, 0.000000000000000000, 0.9975640502598247528 ) ) ;
#235 = ORIENTED_EDGE ( 'NONE', *, *, #310, .F. ) ;
#236 = FACE_OUTER_BOUND ( 'NONE', #171, .T. ) ;
#237 = DIRECTION ( 'NONE',  ( -0.4226182617406974429, -0.9063077870366509359, 0.000000000000000000 ) ) ;
#238 = VERTEX_POINT ( 'NONE', #240 ) ;
#239 = CIRCLE ( 'NONE', #537, 2.250000000000001776 ) ;
#240 = CARTESIAN_POINT ( 'NONE',  ( -14.40534979494665180, 138.3897345045710665, 2.500000000000013767 ) ) ;
#241 = DIRECTION ( 'NONE',  ( -0.000000000000000000, -0.000000000000000000, -1.000000000000000000 ) ) ;
#242 = ORIENTED_EDGE ( 'NONE', *, *, #363, .F. ) ;
#243 = CARTESIAN_POINT ( 'NONE',  ( 55.62465020505337066, 163.5033999918739198, -20.01000000000002643 ) ) ;
#244 = CARTESIAN_POINT ( 'NONE',  ( -2.155349794946650466, 125.8897345045710807, -5.143396553692084261 ) ) ;
#245 = DIRECTION ( 'NONE',  ( 0.9063077870366509359, -0.4226182617406974429, -0.000000000000000000 ) ) ;
#246 = ORIENTED_EDGE ( 'NONE', *, *, #264, .T. ) ;
#247 = CARTESIAN_POINT ( 'NONE',  ( 55.62465020505337066, 175.4082345045710554, 20.00999999999997314 ) ) ;
#248 = ORIENTED_EDGE ( 'NONE', *, *, #504, .F. ) ;
#249 = CARTESIAN_POINT ( 'NONE',  ( -64.43534979494664583, 175.4082345045710554, 20.00999999999997314 ) ) ;
#250 = VECTOR ( 'NONE', #425, 1000.000000000000000 ) ;
#251 = LINE ( 'NONE', #477, #574 ) ;
#252 = LINE ( 'NONE', #470, #557 ) ;
#253 = LINE ( 'NONE', #484, #290 ) ;
#254 = ORIENTED_EDGE ( 'NONE', *, *, #208, .F. ) ;
#255 = EDGE_CURVE ( 'NONE', #732, #406, #225, .T. ) ;
#256 = CARTESIAN_POINT ( 'NONE',  ( -4.405349794946652686, 121.3897345045710807, -2.500000000000002220 ) ) ;
#257 = DIRECTION ( 'NONE',  ( 0.000000000000000000, 0.000000000000000000, 1.000000000000000000 ) ) ;
#258 = CARTESIAN_POINT ( 'NONE',  ( 5.594650205053356196, 138.3897345045710381, 4.601463761129934937 ) ) ;
#259 = VECTOR ( 'NONE', #245, 999.9999999999998863 ) ;
#260 = DIRECTION ( 'NONE',  ( 1.000000000000000000, 0.000000000000000000, 0.000000000000000000 ) ) ;
#261 = DIRECTION ( 'NONE',  ( 1.000000000000000000, -0.000000000000000000, -1.156482317317871725E-16 ) ) ;
#262 = CARTESIAN_POINT ( 'NONE',  ( -24.40534979494664825, 138.3897345045710665, -2.499999999999996003 ) ) ;
#263 = ORIENTED_EDGE ( 'NONE', *, *, #279, .F. ) ;
#264 = EDGE_CURVE ( 'NONE', #515, #281, #454, .T. ) ;
#265 = LINE ( 'NONE', #319, #694 ) ;
#266 = VECTOR ( 'NONE', #571, 1000.000000000000000 ) ;
#267 = EDGE_CURVE ( 'NONE', #390, #278, #398, .T. ) ;
#268 = DIRECTION ( 'NONE',  ( 1.000000000000000000, 0.000000000000000000, 0.000000000000000000 ) ) ;
#269 = VERTEX_POINT ( 'NONE', #289 ) ;
#270 = DIRECTION ( 'NONE',  ( -1.000000000000000000, 0.000000000000000000, 0.000000000000000000 ) ) ;
#271 = ORIENTED_EDGE ( 'NONE', *, *, #444, .T. ) ;
#272 = VECTOR ( 'NONE', #115, 1000.000000000000000 ) ;
#273 = FACE_OUTER_BOUND ( 'NONE', #501, .T. ) ;
#274 = ORIENTED_EDGE ( 'NONE', *, *, #609, .T. ) ;
#275 = DIRECTION ( 'NONE',  ( -0.000000000000000000, -0.000000000000000000, -1.000000000000000000 ) ) ;
#276 = EDGE_LOOP ( 'NONE', ( #448, #165, #222, #597 ) ) ;
#277 = CARTESIAN_POINT ( 'NONE',  ( 55.62465020505337066, 138.3897345045710381, -20.01000000000002643 ) ) ;
#278 = VERTEX_POINT ( 'NONE', #468 ) ;
#279 = EDGE_CURVE ( 'NONE', #269, #673, #707, .T. ) ;
#280 = FACE_BOUND ( 'NONE', #703, .T. ) ;
#281 = VERTEX_POINT ( 'NONE', #125 ) ;
#282 = PLANE ( 'NONE',  #330 ) ;
#283 = CARTESIAN_POINT ( 'NONE',  ( -2.155349794946649578, 121.3897345045710807, -5.143396553692083373 ) ) ;
#284 = ORIENTED_EDGE ( 'NONE', *, *, #421, .T. ) ;
#285 = ADVANCED_FACE ( 'NONE', ( #587 ), #371, .F. ) ;
#286 = PLANE ( 'NONE',  #77 ) ;
#287 = LINE ( 'NONE', #747, #323 ) ;
#288 = ORIENTED_EDGE ( 'NONE', *, *, #385, .F. ) ;
#289 = CARTESIAN_POINT ( 'NONE',  ( -14.40534979494665180, 113.3897345045710381, 2.500000000000002220 ) ) ;
#290 = VECTOR ( 'NONE', #89, 1000.000000000000000 ) ;
#291 = DIRECTION ( 'NONE',  ( -1.000000000000000000, 0.000000000000000000, -0.000000000000000000 ) ) ;
#292 = VERTEX_POINT ( 'NONE', #375 ) ;
#293 = PLANE ( 'NONE',  #16 ) ;
#294 = CARTESIAN_POINT ( 'NONE',  ( -14.40534979494665180, 113.3897345045710381, -6.000000000000001776 ) ) ;
#295 = VERTEX_POINT ( 'NONE', #316 ) ;
#296 = CARTESIAN_POINT ( 'NONE',  ( -24.40534979494664825, 113.3897345045710665, -2.499999999999996891 ) ) ;
#297 = VECTOR ( 'NONE', #680, 1000.000000000000000 ) ;
#298 = CARTESIAN_POINT ( 'NONE',  ( -6.655349794946656239, 125.8897345045710807, -5.458067207437851565 ) ) ;
#299 = ORIENTED_EDGE ( 'NONE', *, *, #713, .T. ) ;
#300 = VECTOR ( 'NONE', #424, 1000.000000000000000 ) ;
#301 = AXIS2_PLACEMENT_3D ( 'NONE', #91, #726, #207 ) ;
#302 = CARTESIAN_POINT ( 'NONE',  ( -64.43534979494664583, 163.9082345045710269, 8.509999999999971365 ) ) ;
#303 = ORIENTED_EDGE ( 'NONE', *, *, #620, .F. ) ;
#304 = EDGE_CURVE ( 'NONE', #503, #214, #331, .T. ) ;
#305 = DIRECTION ( 'NONE',  ( 0.000000000000000000, 0.000000000000000000, -1.000000000000000000 ) ) ;
#306 = EDGE_LOOP ( 'NONE', ( #739, #748, #379, #248 ) ) ;
#307 = DIRECTION ( 'NONE',  ( -0.06975647374411816926, 0.000000000000000000, -0.9975640502598247528 ) ) ;
#308 = CARTESIAN_POINT ( 'NONE',  ( -64.43534979494664583, 175.4082345045710554, 20.00999999999997314 ) ) ;
#309 =( NAMED_UNIT ( * ) SI_UNIT ( $, .STERADIAN. ) SOLID_ANGLE_UNIT ( ) );
#310 = EDGE_CURVE ( 'NONE', #90, #433, #187, .T. ) ;
#311 = DIRECTION ( 'NONE',  ( 0.000000000000000000, 0.000000000000000000, -1.000000000000000000 ) ) ;
#312 = LINE ( 'NONE', #129, #657 ) ;
#313 = DIRECTION ( 'NONE',  ( -0.000000000000000000, 0.000000000000000000, -1.000000000000000000 ) ) ;
#314 = ORIENTED_EDGE ( 'NONE', *, *, #404, .F. ) ;
#315 = DIRECTION ( 'NONE',  ( 1.156482317317871725E-16, -5.898059818321145107E-16, 1.000000000000000000 ) ) ;
#316 = CARTESIAN_POINT ( 'NONE',  ( 5.594650205053347314, 138.3897345045710665, -2.499999999999999556 ) ) ;
#317 = VERTEX_POINT ( 'NONE', #258 ) ;
#318 = EDGE_CURVE ( 'NONE', #643, #488, #253, .T. ) ;
#319 = CARTESIAN_POINT ( 'NONE',  ( 20.59465020505335175, 113.3897345045710381, -3.552561581977378147 ) ) ;
#320 = CARTESIAN_POINT ( 'NONE',  ( -14.40534979494665180, 138.3897345045710381, -6.000000000000001776 ) ) ;
#321 = EDGE_LOOP ( 'NONE', ( #153, #335, #381, #41 ) ) ;
#322 = PRODUCT_CONTEXT ( 'NONE', #192, 'mechanical' ) ;
#323 = VECTOR ( 'NONE', #692, 1000.000000000000000 ) ;
#324 = LINE ( 'NONE', #277, #624 ) ;
#325 = ORIENTED_EDGE ( 'NONE', *, *, #86, .T. ) ;
#326 = DIRECTION ( 'NONE',  ( -0.000000000000000000, 1.000000000000000000, -0.000000000000000000 ) ) ;
#327 = EDGE_LOOP ( 'NONE', ( #531, #675, #98, #353 ) ) ;
#328 = EDGE_CURVE ( 'NONE', #419, #728, #721, .T. ) ;
#329 = AXIS2_PLACEMENT_3D ( 'NONE', #23, #427, #600 ) ;
#330 = AXIS2_PLACEMENT_3D ( 'NONE', #296, #407, #637 ) ;
#331 =( BOUNDED_CURVE ( )  B_SPLINE_CURVE ( 3, ( #542, #475, #712, #26 ),
 .UNSPECIFIED., .F., .F. ) 
 B_SPLINE_CURVE_WITH_KNOTS ( ( 4, 4 ),
 ( 3.141592653589793116, 6.283185307179586232 ),
 .UNSPECIFIED. ) 
 CURVE ( )  GEOMETRIC_REPRESENTATION_ITEM ( )  RATIONAL_B_SPLINE_CURVE ( ( 1.000000000000000000, 0.3333333333333333703, 0.3333333333333333703, 1.000000000000000000 ) ) 
 REPRESENTATION_ITEM ( '' )  );
#332 = DIRECTION ( 'NONE',  ( 0.000000000000000000, 0.000000000000000000, 1.000000000000000000 ) ) ;
#333 = ORIENTED_EDGE ( 'NONE', *, *, #96, .F. ) ;
#334 = CARTESIAN_POINT ( 'NONE',  ( -14.40534979494665180, 113.3897345045710381, -6.000000000000001776 ) ) ;
#335 = ORIENTED_EDGE ( 'NONE', *, *, #652, .T. ) ;
#336 =( BOUNDED_CURVE ( )  B_SPLINE_CURVE ( 3, ( #408, #120, #740, #352 ),
 .UNSPECIFIED., .F., .F. ) 
 B_SPLINE_CURVE_WITH_KNOTS ( ( 4, 4 ),
 ( 0.000000000000000000, 3.141592653589793116 ),
 .UNSPECIFIED. ) 
 CURVE ( )  GEOMETRIC_REPRESENTATION_ITEM ( )  RATIONAL_B_SPLINE_CURVE ( ( 1.000000000000000000, 0.3333333333333333703, 0.3333333333333333703, 1.000000000000000000 ) ) 
 REPRESENTATION_ITEM ( '' )  );
#337 = CARTESIAN_POINT ( 'NONE',  ( -6.655349794946657127, 121.3897345045710807, 2.500000000000002665 ) ) ;
#338 = ORIENTED_EDGE ( 'NONE', *, *, #382, .F. ) ;
#339 = DIRECTION ( 'NONE',  ( 0.000000000000000000, 1.000000000000000000, 0.000000000000000000 ) ) ;
#340 = AXIS2_PLACEMENT_3D ( 'NONE', #578, #402, #354 ) ;
#341 = ADVANCED_FACE ( 'NONE', ( #80 ), #479, .F. ) ;
#342 = CARTESIAN_POINT ( 'NONE',  ( -52.93534979494664583, 163.9082345045710269, -2.456368441983158846E-14 ) ) ;
#343 = EDGE_LOOP ( 'NONE', ( #95, #431, #688, #665, #376 ) ) ;
#344 = DIRECTION ( 'NONE',  ( 1.000000000000000000, 0.000000000000000000, 0.000000000000000000 ) ) ;
#345 = CARTESIAN_POINT ( 'NONE',  ( -14.40534979494665180, 138.3897345045710381, -6.000000000000001776 ) ) ;
#346 = ORIENTED_EDGE ( 'NONE', *, *, #539, .F. ) ;
#347 = DIRECTION ( 'NONE',  ( 1.301042606982605321E-16, -0.000000000000000000, -1.000000000000000000 ) ) ;
#348 = ORIENTED_EDGE ( 'NONE', *, *, #525, .T. ) ;
#349 = CARTESIAN_POINT ( 'NONE',  ( -64.43534979494664583, 163.9082345045710269, -20.01000000000002643 ) ) ;
#350 = EDGE_CURVE ( 'NONE', #281, #292, #604, .T. ) ;
#351 = MANIFOLD_SOLID_BREP ( 'Cut-Extrude4', #682 ) ;
#352 = CARTESIAN_POINT ( 'NONE',  ( -6.655349794946657127, 121.3897345045710807, 5.458067207437852453 ) ) ;
#353 = ORIENTED_EDGE ( 'NONE', *, *, #458, .T. ) ;
#354 = DIRECTION ( 'NONE',  ( -1.000000000000000000, 0.000000000000000000, 0.000000000000000000 ) ) ;
#355 =( BOUNDED_CURVE ( )  B_SPLINE_CURVE ( 3, ( #189, #298, #244, #659 ),
 .UNSPECIFIED., .F., .T. ) 
 B_SPLINE_CURVE_WITH_KNOTS ( ( 4, 4 ),
 ( 0.000000000000000000, 3.141592653589793116 ),
 .UNSPECIFIED. ) 
 CURVE ( )  GEOMETRIC_REPRESENTATION_ITEM ( )  RATIONAL_B_SPLINE_CURVE ( ( 1.000000000000000000, 0.3333333333333333703, 0.3333333333333333703, 1.000000000000000000 ) ) 
 REPRESENTATION_ITEM ( '' )  );
#356 = CARTESIAN_POINT ( 'NONE',  ( -14.40534979494665180, 138.3897345045710381, 6.000000000000000000 ) ) ;
#357 = CARTESIAN_POINT ( 'NONE',  ( -47.55170616678110918, 211.6153251085893316, -20.01000000000002643 ) ) ;
#358 = CIRCLE ( 'NONE', #68, 2.250000000000002665 ) ;
#359 = CARTESIAN_POINT ( 'NONE',  ( -52.93534979494664583, 175.4082345045710554, -20.01000000000002643 ) ) ;
#360 = DIRECTION ( 'NONE',  ( 0.000000000000000000, -1.000000000000000000, -5.898059818321145107E-16 ) ) ;
#361 = DIRECTION ( 'NONE',  ( 1.000000000000000000, -0.000000000000000000, -1.156482317317871725E-16 ) ) ;
#362 = MECHANICAL_DESIGN_GEOMETRIC_PRESENTATION_REPRESENTATION (  '', ( #74 ), #38 ) ;
#363 = EDGE_CURVE ( 'NONE', #202, #295, #131, .T. ) ;
#364 = VECTOR ( 'NONE', #119, 1000.000000000000000 ) ;
#365 = DIRECTION ( 'NONE',  ( 0.000000000000000000, 0.000000000000000000, 1.000000000000000000 ) ) ;
#366 = CARTESIAN_POINT ( 'NONE',  ( -59.67189382765604933, 138.3897345045710381, 20.00999999999996604 ) ) ;
#367 = FACE_OUTER_BOUND ( 'NONE', #511, .T. ) ;
#368 = ORIENTED_EDGE ( 'NONE', *, *, #2, .F. ) ;
#369 = DIRECTION ( 'NONE',  ( 1.301042606982605321E-16, -0.000000000000000000, -1.000000000000000000 ) ) ;
#370 = ORIENTED_EDGE ( 'NONE', *, *, #658, .T. ) ;
#371 = PLANE ( 'NONE',  #691 ) ;
#372 = AXIS2_PLACEMENT_3D ( 'NONE', #430, #369, #662 ) ;
#373 = LINE ( 'NONE', #589, #736 ) ;
#374 = CARTESIAN_POINT ( 'NONE',  ( -2.155349794946653574, 121.3897345045710807, 23.99999999999999645 ) ) ;
#375 = CARTESIAN_POINT ( 'NONE',  ( 30.09465020505319188, 175.4082345045710554, 20.00999999999997314 ) ) ;
#376 = ORIENTED_EDGE ( 'NONE', *, *, #518, .T. ) ;
#377 = FACE_OUTER_BOUND ( 'NONE', #321, .T. ) ;
#378 = DIRECTION ( 'NONE',  ( 0.000000000000000000, 1.000000000000000000, 3.469446951953614805E-17 ) ) ;
#379 = ORIENTED_EDGE ( 'NONE', *, *, #744, .T. ) ;
#380 = DIRECTION ( 'NONE',  ( 0.000000000000000000, 0.000000000000000000, -1.000000000000000000 ) ) ;
#381 = ORIENTED_EDGE ( 'NONE', *, *, #279, .T. ) ;
#382 = EDGE_CURVE ( 'NONE', #292, #541, #591, .T. ) ;
#383 = CARTESIAN_POINT ( 'NONE',  ( -52.93534979494664583, 175.4082345045710554, -20.01000000000002643 ) ) ;
#384 = ORIENTED_EDGE ( 'NONE', *, *, #310, .T. ) ;
#385 = EDGE_CURVE ( 'NONE', #406, #292, #532, .T. ) ;
#386 = LINE ( 'NONE', #33, #168 ) ;
#387 = ORIENTED_EDGE ( 'NONE', *, *, #232, .F. ) ;
#388 = VECTOR ( 'NONE', #586, 1000.000000000000000 ) ;
#389 = CARTESIAN_POINT ( 'NONE',  ( -52.93534979494664583, 175.4082345045710554, 20.00999999999997314 ) ) ;
#390 = VERTEX_POINT ( 'NONE', #142 ) ;
#391 = CARTESIAN_POINT ( 'NONE',  ( -14.40534979494665180, 113.3897345045710381, -6.000000000000001776 ) ) ;
#392 = ORIENTED_EDGE ( 'NONE', *, *, #609, .F. ) ;
#393 = AXIS2_PLACEMENT_3D ( 'NONE', #342, #449, #400 ) ;
#394 = ADVANCED_FACE ( 'NONE', ( #367 ), #538, .T. ) ;
#395 = DIRECTION ( 'NONE',  ( 0.000000000000000000, 1.000000000000000000, 0.000000000000000000 ) ) ;
#396 = VERTEX_POINT ( 'NONE', #320 ) ;
#397 = DIRECTION ( 'NONE',  ( 0.000000000000000000, 0.000000000000000000, -1.000000000000000000 ) ) ;
#398 = CIRCLE ( 'NONE', #99, 2.250000000000002665 ) ;
#399 = VECTOR ( 'NONE', #347, 1000.000000000000000 ) ;
#400 = DIRECTION ( 'NONE',  ( -1.000000000000000000, 0.000000000000000000, 0.000000000000000000 ) ) ;
#401 = EDGE_LOOP ( 'NONE', ( #303, #580, #55, #106 ) ) ;
#402 = DIRECTION ( 'NONE',  ( 1.301042606982605321E-16, -0.000000000000000000, -1.000000000000000000 ) ) ;
#403 = VECTOR ( 'NONE', #123, 1000.000000000000000 ) ;
#404 = EDGE_CURVE ( 'NONE', #90, #147, #386, .T. ) ;
#405 = CYLINDRICAL_SURFACE ( 'NONE', #393, 11.49999999999999645 ) ;
#406 = VERTEX_POINT ( 'NONE', #491 ) ;
#407 = DIRECTION ( 'NONE',  ( -1.156482317317871725E-16, 3.469446951953614805E-17, -1.000000000000000000 ) ) ;
#408 = CARTESIAN_POINT ( 'NONE',  ( -2.155349794946650910, 121.3897345045710807, 5.143396553692086925 ) ) ;
#409 = ORIENTED_EDGE ( 'NONE', *, *, #67, .F. ) ;
#410 = LINE ( 'NONE', #349, #39 ) ;
#411 = CARTESIAN_POINT ( 'NONE',  ( -64.43534979494664583, 138.3897345045710381, -20.01000000000002643 ) ) ;
#412 = ORIENTED_EDGE ( 'NONE', *, *, #601, .T. ) ;
#413 = CARTESIAN_POINT ( 'NONE',  ( -14.40534979494665180, 113.3897345045710381, -6.000000000000001776 ) ) ;
#414 = ADVANCED_FACE ( 'NONE', ( #273 ), #159, .F. ) ;
#415 = CARTESIAN_POINT ( 'NONE',  ( -52.93534979494664583, 175.4082345045710554, 8.509999999999971365 ) ) ;
#416 = CARTESIAN_POINT ( 'NONE',  ( -6.655349794946655351, 121.3897345045710807, -5.458067207437852453 ) ) ;
#417 = EDGE_CURVE ( 'NONE', #419, #202, #213, .T. ) ;
#418 = CARTESIAN_POINT ( 'NONE',  ( 5.594650205053347314, 113.3897345045710381, -6.000000000000000000 ) ) ;
#419 = VERTEX_POINT ( 'NONE', #48 ) ;
#420 = VECTOR ( 'NONE', #445, 1000.000000000000000 ) ;
#421 = EDGE_CURVE ( 'NONE', #406, #679, #567, .T. ) ;
#422 = CARTESIAN_POINT ( 'NONE',  ( -6.655349794946655351, 121.3897345045710807, -5.458067207437852453 ) ) ;
#423 = ORIENTED_EDGE ( 'NONE', *, *, #318, .T. ) ;
#424 = DIRECTION ( 'NONE',  ( -0.000000000000000000, 0.000000000000000000, -1.000000000000000000 ) ) ;
#425 = DIRECTION ( 'NONE',  ( -0.000000000000000000, -1.000000000000000000, -0.000000000000000000 ) ) ;
#426 = CARTESIAN_POINT ( 'NONE',  ( -2.155349794946649578, 116.8897345045710949, -5.143396553692084261 ) ) ;
#427 = DIRECTION ( 'NONE',  ( -0.000000000000000000, 1.000000000000000000, 0.000000000000000000 ) ) ;
#428 = ORIENTED_EDGE ( 'NONE', *, *, #255, .F. ) ;
#429 = EDGE_CURVE ( 'NONE', #460, #572, #565, .T. ) ;
#430 = CARTESIAN_POINT ( 'NONE',  ( -4.405349794946656239, 121.3897345045710807, 23.99999999999999645 ) ) ;
#431 = ORIENTED_EDGE ( 'NONE', *, *, #513, .T. ) ;
#432 = DIRECTION ( 'NONE',  ( -1.000000000000000000, 0.000000000000000000, 0.000000000000000000 ) ) ;
#433 = VERTEX_POINT ( 'NONE', #674 ) ;
#434 = AXIS2_PLACEMENT_3D ( 'NONE', #742, #61, #514 ) ;
#435 = ORIENTED_EDGE ( 'NONE', *, *, #60, .F. ) ;
#436 = DIRECTION ( 'NONE',  ( 1.000000000000000000, 0.000000000000000000, 0.000000000000000000 ) ) ;
#437 =( NAMED_UNIT ( * ) SI_UNIT ( $, .STERADIAN. ) SOLID_ANGLE_UNIT ( ) );
#438 = AXIS2_PLACEMENT_3D ( 'NONE', #603, #315, #360 ) ;
#439 = PLANE ( 'NONE',  #453 ) ;
#440 = ORIENTED_EDGE ( 'NONE', *, *, #652, .F. ) ;
#441 = EDGE_CURVE ( 'NONE', #62, #732, #722, .T. ) ;
#442 = CARTESIAN_POINT ( 'NONE',  ( -6.655349794946657127, 121.3897345045710807, 5.458067207437852453 ) ) ;
#443 = ORIENTED_EDGE ( 'NONE', *, *, #699, .T. ) ;
#444 = EDGE_CURVE ( 'NONE', #612, #147, #324, .T. ) ;
#445 = DIRECTION ( 'NONE',  ( 1.301042606982605321E-16, -0.000000000000000000, -1.000000000000000000 ) ) ;
#446 = ORIENTED_EDGE ( 'NONE', *, *, #304, .T. ) ;
#447 = CARTESIAN_POINT ( 'NONE',  ( 5.594650205053347314, 113.3897345045710381, 4.601463761129936714 ) ) ;
#448 = ORIENTED_EDGE ( 'NONE', *, *, #701, .F. ) ;
#449 = DIRECTION ( 'NONE',  ( 0.000000000000000000, 0.000000000000000000, -1.000000000000000000 ) ) ;
#450 = ORIENTED_EDGE ( 'NONE', *, *, #536, .F. ) ;
#451 = CARTESIAN_POINT ( 'NONE',  ( 55.62465020505337066, 138.3897345045710381, -20.01000000000002643 ) ) ;
#452 = ORIENTED_EDGE ( 'NONE', *, *, #404, .T. ) ;
#453 = AXIS2_PLACEMENT_3D ( 'NONE', #206, #436, #380 ) ;
#454 = LINE ( 'NONE', #243, #196 ) ;
#455 = CARTESIAN_POINT ( 'NONE',  ( -64.43534979494664583, 143.1531904718616488, -15.24654403270943526 ) ) ;
#456 = VERTEX_POINT ( 'NONE', #219 ) ;
#457 = FACE_BOUND ( 'NONE', #137, .T. ) ;
#458 = EDGE_CURVE ( 'NONE', #419, #614, #734, .T. ) ;
#459 = FACE_OUTER_BOUND ( 'NONE', #343, .T. ) ;
#460 = VERTEX_POINT ( 'NONE', #40 ) ;
#461 = CARTESIAN_POINT ( 'NONE',  ( -4.405349794946656239, 121.3897345045710807, 23.99999999999999645 ) ) ;
#462 = VECTOR ( 'NONE', #133, 1000.000000000000000 ) ;
#463 = DIRECTION ( 'NONE',  ( 0.000000000000000000, 0.000000000000000000, 1.000000000000000000 ) ) ;
#464 = EDGE_LOOP ( 'NONE', ( #592, #4 ) ) ;
#465 = FACE_OUTER_BOUND ( 'NONE', #8, .T. ) ;
#466 = LINE ( 'NONE', #411, #403 ) ;
#467 = VERTEX_POINT ( 'NONE', #549 ) ;
#468 = CARTESIAN_POINT ( 'NONE',  ( -2.155349794946650022, 121.3897345045710807, -2.500000000000002665 ) ) ;
#469 = CARTESIAN_POINT ( 'NONE',  ( -6.655349794946659792, 121.3897345045710807, 23.99999999999999645 ) ) ;
#470 = CARTESIAN_POINT ( 'NONE',  ( 5.594650205053347314, 113.3897345045710381, -6.000000000000000000 ) ) ;
#471 = EDGE_CURVE ( 'NONE', #278, #555, #560, .T. ) ;
#472 = ORIENTED_EDGE ( 'NONE', *, *, #86, .F. ) ;
#473 = DIRECTION ( 'NONE',  ( 0.000000000000000000, -1.000000000000000000, 0.000000000000000000 ) ) ;
#474 = EDGE_LOOP ( 'NONE', ( #175, #274, #333, #661 ) ) ;
#475 = CARTESIAN_POINT ( 'NONE',  ( -6.655349794946658015, 116.8897345045710949, 5.458067207437850676 ) ) ;
#476 = EDGE_LOOP ( 'NONE', ( #110, #498 ) ) ;
#477 = CARTESIAN_POINT ( 'NONE',  ( 5.594650205053347314, 138.3897345045710381, -6.000000000000000000 ) ) ;
#478 = CARTESIAN_POINT ( 'NONE',  ( 5.594650205053347314, 113.3897345045710665, 2.499999999999996891 ) ) ;
#479 = PLANE ( 'NONE',  #729 ) ;
#480 = ORIENTED_EDGE ( 'NONE', *, *, #444, .F. ) ;
#481 = EDGE_CURVE ( 'NONE', #643, #483, #502, .T. ) ;
#482 = CARTESIAN_POINT ( 'NONE',  ( -64.43534979494664583, 138.3897345045710381, -8.510000000000026432 ) ) ;
#483 = VERTEX_POINT ( 'NONE', #447 ) ;
#484 = CARTESIAN_POINT ( 'NONE',  ( -14.40534979494665180, 113.3897345045710381, 6.000000000000000000 ) ) ;
#485 = ORIENTED_EDGE ( 'NONE', *, *, #421, .F. ) ;
#486 = CARTESIAN_POINT ( 'NONE',  ( -64.43534979494664583, 149.8897345045710381, 8.509999999999971365 ) ) ;
#487 = SURFACE_STYLE_FILL_AREA ( #664 ) ;
#488 = VERTEX_POINT ( 'NONE', #678 ) ;
#489 = VECTOR ( 'NONE', #505, 1000.000000000000000 ) ;
#490 = LINE ( 'NONE', #32, #631 ) ;
#491 = CARTESIAN_POINT ( 'NONE',  ( -52.93534979494664583, 175.4082345045710554, 20.00999999999997314 ) ) ;
#492 = ORIENTED_EDGE ( 'NONE', *, *, #690, .F. ) ;
#493 = ADVANCED_FACE ( 'NONE', ( #613 ), #439, .T. ) ;
#494 = PRODUCT ( 'Ahmed body Sim', 'Ahmed body Sim', '', ( #322 ) ) ;
#495 =( LENGTH_UNIT ( ) NAMED_UNIT ( * ) SI_UNIT ( .MILLI., .METRE. ) );
#496 = AXIS2_PLACEMENT_3D ( 'NONE', #509, #749, #172 ) ;
#497 = CARTESIAN_POINT ( 'NONE',  ( -14.40534979494665180, 113.3897345045710381, -2.499999999999998224 ) ) ;
#498 = ORIENTED_EDGE ( 'NONE', *, *, #601, .F. ) ;
#499 = ADVANCED_FACE ( 'NONE', ( #97 ), #672, .T. ) ;
#500 = CARTESIAN_POINT ( 'NONE',  ( -64.43534979494664583, 170.6447785372803878, 15.24654403270937841 ) ) ;
#501 = EDGE_LOOP ( 'NONE', ( #151, #543, #370, #299 ) ) ;
#502 = LINE ( 'NONE', #622, #127 ) ;
#503 = VERTEX_POINT ( 'NONE', #442 ) ;
#504 = EDGE_CURVE ( 'NONE', #728, #295, #738, .T. ) ;
#505 = DIRECTION ( 'NONE',  ( 0.000000000000000000, 1.000000000000000000, 3.469446951953614805E-17 ) ) ;
#506 = ORIENTED_EDGE ( 'NONE', *, *, #50, .T. ) ;
#507 = FACE_OUTER_BOUND ( 'NONE', #217, .T. ) ;
#508 = ORIENTED_EDGE ( 'NONE', *, *, #417, .T. ) ;
#509 = CARTESIAN_POINT ( 'NONE',  ( -14.40534979494665180, 113.3897345045710381, -6.000000000000001776 ) ) ;
#510 = DIRECTION ( 'NONE',  ( 0.000000000000000000, -0.000000000000000000, 1.000000000000000000 ) ) ;
#511 = EDGE_LOOP ( 'NONE', ( #669, #73, #346, #117 ) ) ;
#512 = DIRECTION ( 'NONE',  ( 0.000000000000000000, -0.000000000000000000, -1.000000000000000000 ) ) ;
#513 = EDGE_CURVE ( 'NONE', #433, #732, #607, .T. ) ;
#514 = DIRECTION ( 'NONE',  ( 0.000000000000000000, 0.000000000000000000, 1.000000000000000000 ) ) ;
#515 = VERTEX_POINT ( 'NONE', #611 ) ;
#516 = DIRECTION ( 'NONE',  ( 1.301042606982605321E-16, -0.000000000000000000, -1.000000000000000000 ) ) ;
#517 = COLOUR_RGB ( '',0.7921568627450980005, 0.8196078431372548767, 0.9333333333333333481 ) ;
#518 = EDGE_CURVE ( 'NONE', #515, #612, #558, .T. ) ;
#519 = CARTESIAN_POINT ( 'NONE',  ( 5.594650205053349090, 138.3897345045710381, -4.601463761129931385 ) ) ;
#520 = ORIENTED_EDGE ( 'NONE', *, *, #417, .F. ) ;
#521 = CARTESIAN_POINT ( 'NONE',  ( -14.40534979494665180, 138.3897345045710665, -2.499999999999997335 ) ) ;
#522 = LINE ( 'NONE', #247, #250 ) ;
#523 = VERTEX_POINT ( 'NONE', #337 ) ;
#524 = CARTESIAN_POINT ( 'NONE',  ( -4.405349794946653574, 121.3897345045710807, 2.500000000000002220 ) ) ;
#525 = EDGE_CURVE ( 'NONE', #467, #456, #582, .T. ) ;
#526 = ADVANCED_FACE ( 'NONE', ( #702 ), #57, .F. ) ;
#527 = DIRECTION ( 'NONE',  ( 1.000000000000000000, 0.000000000000000000, 0.000000000000000000 ) ) ;
#528 =( LENGTH_UNIT ( ) NAMED_UNIT ( * ) SI_UNIT ( .MILLI., .METRE. ) );
#529 = CIRCLE ( 'NONE', #212, 2.250000000000001776 ) ;
#530 = LINE ( 'NONE', #356, #46 ) ;
#531 = ORIENTED_EDGE ( 'NONE', *, *, #118, .F. ) ;
#532 = LINE ( 'NONE', #249, #656 ) ;
#533 = ORIENTED_EDGE ( 'NONE', *, *, #193, .F. ) ;
#534 = CARTESIAN_POINT ( 'NONE',  ( -4.405349794946653574, 121.3897345045710807, 2.500000000000002220 ) ) ;
#535 = DIRECTION ( 'NONE',  ( 0.000000000000000000, 0.000000000000000000, -1.000000000000000000 ) ) ;
#536 = EDGE_CURVE ( 'NONE', #456, #679, #287, .T. ) ;
#537 = AXIS2_PLACEMENT_3D ( 'NONE', #534, #710, #82 ) ;
#538 = CYLINDRICAL_SURFACE ( 'NONE', #329, 11.50000000000000178 ) ;
#539 = EDGE_CURVE ( 'NONE', #467, #433, #47, .T. ) ;
#540 = PLANE ( 'NONE',  #638 ) ;
#541 = VERTEX_POINT ( 'NONE', #751 ) ;
#542 = CARTESIAN_POINT ( 'NONE',  ( -6.655349794946657127, 121.3897345045710807, 5.458067207437852453 ) ) ;
#543 = ORIENTED_EDGE ( 'NONE', *, *, #267, .F. ) ;
#544 = LINE ( 'NONE', #28, #730 ) ;
#545 = CARTESIAN_POINT ( 'NONE',  ( 55.62465020505337066, 163.5033999918739198, 20.00999999999997314 ) ) ;
#546 = EDGE_LOOP ( 'NONE', ( #76, #246, #752, #480 ) ) ;
#547 = ADVANCED_FACE ( 'NONE', ( #109, #579 ), #625, .F. ) ;
#548 = PLANE ( 'NONE',  #301 ) ;
#549 = CARTESIAN_POINT ( 'NONE',  ( -64.43534979494664583, 149.8897345045710381, -8.510000000000026432 ) ) ;
#550 = ORIENTED_EDGE ( 'NONE', *, *, #14, .T. ) ;
#551 = AXIS2_PLACEMENT_3D ( 'NONE', #44, #157, #554 ) ;
#552 = DIRECTION ( 'NONE',  ( 0.000000000000000000, 0.000000000000000000, 1.000000000000000000 ) ) ;
#553 = ADVANCED_FACE ( 'NONE', ( #459 ), #642, .T. ) ;
#554 = DIRECTION ( 'NONE',  ( 0.000000000000000000, -0.000000000000000000, -1.000000000000000000 ) ) ;
#555 = VERTEX_POINT ( 'NONE', #283 ) ;
#556 = VECTOR ( 'NONE', #305, 1000.000000000000000 ) ;
#557 = VECTOR ( 'NONE', #69, 1000.000000000000000 ) ;
#558 = LINE ( 'NONE', #696, #6 ) ;
#559 = VERTEX_POINT ( 'NONE', #629 ) ;
#560 = LINE ( 'NONE', #727, #420 ) ;
#561 = EDGE_LOOP ( 'NONE', ( #566, #235, #550, #569 ) ) ;
#562 = AXIS2_PLACEMENT_3D ( 'NONE', #87, #365, #527 ) ;
#563 = ADVANCED_FACE ( 'NONE', ( #116 ), #405, .T. ) ;
#564 = APPLICATION_CONTEXT ( 'automotive_design' ) ;
#565 = LINE ( 'NONE', #100, #297 ) ;
#566 = ORIENTED_EDGE ( 'NONE', *, *, #539, .T. ) ;
#567 =( BOUNDED_CURVE ( )  B_SPLINE_CURVE ( 3, ( #389, #102, #500, #209 ),
 .UNSPECIFIED., .F., .F. ) 
 B_SPLINE_CURVE_WITH_KNOTS ( ( 4, 4 ),
 ( 3.141592653589793116, 4.712388980384689674 ),
 .UNSPECIFIED. ) 
 CURVE ( )  GEOMETRIC_REPRESENTATION_ITEM ( )  RATIONAL_B_SPLINE_CURVE ( ( 1.000000000000000000, 0.8047378541243649375, 0.8047378541243649375, 1.000000000000000000 ) ) 
 REPRESENTATION_ITEM ( '' )  );
#568 = CARTESIAN_POINT ( 'NONE',  ( -52.93534979494664583, 138.3897345045710381, -20.01000000000002643 ) ) ;
#569 = ORIENTED_EDGE ( 'NONE', *, *, #525, .F. ) ;
#570 = PLANE ( 'NONE',  #496 ) ;
#571 = DIRECTION ( 'NONE',  ( -0.000000000000000000, -0.000000000000000000, -1.000000000000000000 ) ) ;
#572 = VERTEX_POINT ( 'NONE', #519 ) ;
#573 = CARTESIAN_POINT ( 'NONE',  ( -52.93534979494664583, 175.4082345045710554, 20.00999999999997314 ) ) ;
#574 = VECTOR ( 'NONE', #621, 1000.000000000000000 ) ;
#575 = CARTESIAN_POINT ( 'NONE',  ( -64.43534979494664583, 149.8897345045710381, -8.510000000000026432 ) ) ;
#576 = ORIENTED_EDGE ( 'NONE', *, *, #633, .F. ) ;
#577 = ADVANCED_FACE ( 'NONE', ( #105 ), #221, .F. ) ;
#578 = CARTESIAN_POINT ( 'NONE',  ( -4.405349794946656239, 121.3897345045710807, 23.99999999999999645 ) ) ;
#579 = FACE_OUTER_BOUND ( 'NONE', #474, .T. ) ;
#580 = ORIENTED_EDGE ( 'NONE', *, *, #471, .T. ) ;
#581 = CYLINDRICAL_SURFACE ( 'NONE', #340, 2.250000000000002665 ) ;
#582 = LINE ( 'NONE', #687, #650 ) ;
#583 = EDGE_LOOP ( 'NONE', ( #182, #338, #158, #717 ) ) ;
#584 = DIRECTION ( 'NONE',  ( 1.000000000000000000, 0.000000000000000000, 0.000000000000000000 ) ) ;
#585 = CYLINDRICAL_SURFACE ( 'NONE', #176, 11.50000000000000178 ) ;
#586 = DIRECTION ( 'NONE',  ( 1.301042606982605321E-16, -0.000000000000000000, -1.000000000000000000 ) ) ;
#587 = FACE_OUTER_BOUND ( 'NONE', #741, .T. ) ;
#588 = AXIS2_PLACEMENT_3D ( 'NONE', #174, #170, #291 ) ;
#589 = CARTESIAN_POINT ( 'NONE',  ( -14.40534979494665180, 138.3897345045710381, -6.000000000000001776 ) ) ;
#590 = LINE ( 'NONE', #374, #388 ) ;
#591 = LINE ( 'NONE', #75, #556 ) ;
#592 = ORIENTED_EDGE ( 'NONE', *, *, #690, .T. ) ;
#593 = DIRECTION ( 'NONE',  ( -1.000000000000000000, 0.000000000000000000, 1.927470528863116830E-16 ) ) ;
#594 = FACE_OUTER_BOUND ( 'NONE', #93, .T. ) ;
#595 = EDGE_CURVE ( 'NONE', #488, #238, #51, .T. ) ;
#596 = DIRECTION ( 'NONE',  ( 1.000000000000000000, -0.000000000000000000, -1.156482317317871725E-16 ) ) ;
#597 = ORIENTED_EDGE ( 'NONE', *, *, #9, .F. ) ;
#598 = LINE ( 'NONE', #128, #462 ) ;
#599 = CARTESIAN_POINT ( 'NONE',  ( -64.43534979494664583, 163.9082345045710269, -8.510000000000026432 ) ) ;
#600 = DIRECTION ( 'NONE',  ( 0.000000000000000000, 0.000000000000000000, 1.000000000000000000 ) ) ;
#601 = EDGE_CURVE ( 'NONE', #214, #503, #336, .T. ) ;
#602 = FACE_OUTER_BOUND ( 'NONE', #605, .T. ) ;
#603 = CARTESIAN_POINT ( 'NONE',  ( -24.40534979494664825, 113.3897345045710665, 2.500000000000000444 ) ) ;
#604 = LINE ( 'NONE', #545, #750 ) ;
#605 = EDGE_LOOP ( 'NONE', ( #284, #450, #156, #254 ) ) ;
#606 = DIRECTION ( 'NONE',  ( -0.9975640502598247528, 0.000000000000000000, -0.06975647374411847457 ) ) ;
#607 = LINE ( 'NONE', #152, #163 ) ;
#608 = EDGE_LOOP ( 'NONE', ( #446, #706, #492, #533 ) ) ;
#609 = EDGE_CURVE ( 'NONE', #614, #396, #64, .T. ) ;
#610 = CARTESIAN_POINT ( 'NONE',  ( 0.000000000000000000, 0.000000000000000000, 0.000000000000000000 ) ) ;
#611 = CARTESIAN_POINT ( 'NONE',  ( 55.62465020505337066, 163.5033999918739198, -20.01000000000002643 ) ) ;
#612 = VERTEX_POINT ( 'NONE', #451 ) ;
#613 = FACE_OUTER_BOUND ( 'NONE', #546, .T. ) ;
#614 = VERTEX_POINT ( 'NONE', #391 ) ;
#615 = ADVANCED_FACE ( 'NONE', ( #54, #280, #507 ), #223, .F. ) ;
#616 = SHAPE_DEFINITION_REPRESENTATION ( #31, #139 ) ;
#617 = VECTOR ( 'NONE', #107, 1000.000000000000000 ) ;
#618 = DIRECTION ( 'NONE',  ( 1.301042606982605321E-16, -0.000000000000000000, -1.000000000000000000 ) ) ;
#619 = ORIENTED_EDGE ( 'NONE', *, *, #211, .T. ) ;
#620 = EDGE_CURVE ( 'NONE', #278, #390, #358, .T. ) ;
#621 = DIRECTION ( 'NONE',  ( 0.000000000000000000, 0.000000000000000000, 1.000000000000000000 ) ) ;
#622 = CARTESIAN_POINT ( 'NONE',  ( -14.40534979494665180, 113.3897345045710381, 6.000000000000000000 ) ) ;
#623 = ORIENTED_EDGE ( 'NONE', *, *, #267, .T. ) ;
#624 = VECTOR ( 'NONE', #332, 1000.000000000000000 ) ;
#625 = PLANE ( 'NONE',  #746 ) ;
#626 = ORIENTED_EDGE ( 'NONE', *, *, #536, .T. ) ;
#627 = DIRECTION ( 'NONE',  ( -1.000000000000000000, 0.000000000000000000, 1.927470528863116830E-16 ) ) ;
#628 = ADVANCED_FACE ( 'NONE', ( #705, #12 ), #540, .F. ) ;
#629 = CARTESIAN_POINT ( 'NONE',  ( -2.155349794946650910, 121.3897345045710807, 2.500000000000001776 ) ) ;
#630 = ORIENTED_EDGE ( 'NONE', *, *, #50, .F. ) ;
#631 = VECTOR ( 'NONE', #149, 1000.000000000000114 ) ;
#632 = FACE_OUTER_BOUND ( 'NONE', #401, .T. ) ;
#633 = EDGE_CURVE ( 'NONE', #281, #147, #522, .T. ) ;
#634 = DIRECTION ( 'NONE',  ( 0.9975640502598247528, 0.000000000000000000, 0.06975647374411847457 ) ) ;
#635 = ORIENTED_EDGE ( 'NONE', *, *, #595, .T. ) ;
#636 = ADVANCED_FACE ( 'NONE', ( #602 ), #585, .T. ) ;
#637 = DIRECTION ( 'NONE',  ( -1.000000000000000000, 0.000000000000000000, 1.156482317317871725E-16 ) ) ;
#638 = AXIS2_PLACEMENT_3D ( 'NONE', #645, #307, #194 ) ;
#639 = ORIENTED_EDGE ( 'NONE', *, *, #328, .T. ) ;
#640 = CARTESIAN_POINT ( 'NONE',  ( -6.655349794946659792, 121.3897345045710807, 23.99999999999999645 ) ) ;
#641 =( BOUNDED_CURVE ( )  B_SPLINE_CURVE ( 3, ( #18, #366, #124, #486 ),
 .UNSPECIFIED., .F., .F. ) 
 B_SPLINE_CURVE_WITH_KNOTS ( ( 4, 4 ),
 ( 0.000000000000000000, 1.570796326794896558 ),
 .UNSPECIFIED. ) 
 CURVE ( )  GEOMETRIC_REPRESENTATION_ITEM ( )  RATIONAL_B_SPLINE_CURVE ( ( 1.000000000000000000, 0.8047378541243649375, 0.8047378541243649375, 1.000000000000000000 ) ) 
 REPRESENTATION_ITEM ( '' )  );
#642 = PLANE ( 'NONE',  #588 ) ;
#643 = VERTEX_POINT ( 'NONE', #140 ) ;
#644 = CARTESIAN_POINT ( 'NONE',  ( -64.43534979494664583, 175.4082345045710554, -20.01000000000002643 ) ) ;
#645 = CARTESIAN_POINT ( 'NONE',  ( -14.40534979494665180, 178.2394521949136106, 6.000000000000000000 ) ) ;
#646 =( BOUNDED_CURVE ( )  B_SPLINE_CURVE ( 3, ( #195, #426, #141, #416 ),
 .UNSPECIFIED., .F., .T. ) 
 B_SPLINE_CURVE_WITH_KNOTS ( ( 4, 4 ),
 ( 3.141592653589793116, 6.283185307179586232 ),
 .UNSPECIFIED. ) 
 CURVE ( )  GEOMETRIC_REPRESENTATION_ITEM ( )  RATIONAL_B_SPLINE_CURVE ( ( 1.000000000000000000, 0.3333333333333333703, 0.3333333333333333703, 1.000000000000000000 ) ) 
 REPRESENTATION_ITEM ( '' )  );
#647 = ORIENTED_EDGE ( 'NONE', *, *, #685, .F. ) ;
#648 = DIRECTION ( 'NONE',  ( 1.301042606982605321E-16, -0.000000000000000000, -1.000000000000000000 ) ) ;
#649 = LINE ( 'NONE', #25, #29 ) ;
#650 = VECTOR ( 'NONE', #463, 1000.000000000000000 ) ;
#651 = ORIENTED_EDGE ( 'NONE', *, *, #458, .F. ) ;
#652 = EDGE_CURVE ( 'NONE', #643, #269, #598, .T. ) ;
#653 = LINE ( 'NONE', #78, #215 ) ;
#654 = ORIENTED_EDGE ( 'NONE', *, *, #737, .F. ) ;
#655 = SURFACE_STYLE_USAGE ( .BOTH. , #70 ) ;
#656 = VECTOR ( 'NONE', #716, 1000.000000000000000 ) ;
#657 = VECTOR ( 'NONE', #257, 1000.000000000000000 ) ;
#658 = EDGE_CURVE ( 'NONE', #390, #735, #181, .T. ) ;
#659 = CARTESIAN_POINT ( 'NONE',  ( -2.155349794946649578, 121.3897345045710807, -5.143396553692083373 ) ) ;
#660 = LINE ( 'NONE', #200, #233 ) ;
#661 = ORIENTED_EDGE ( 'NONE', *, *, #429, .F. ) ;
#662 = DIRECTION ( 'NONE',  ( -1.000000000000000000, 0.000000000000000000, 0.000000000000000000 ) ) ;
#663 = FACE_OUTER_BOUND ( 'NONE', #113, .T. ) ;
#664 = FILL_AREA_STYLE ('',( #30 ) ) ;
#665 = ORIENTED_EDGE ( 'NONE', *, *, #19, .T. ) ;
#666 = EDGE_CURVE ( 'NONE', #62, #467, #24, .T. ) ;
#667 = CARTESIAN_POINT ( 'NONE',  ( 5.594650205053347314, 138.3897345045710665, 2.500000000000011546 ) ) ;
#668 = DIRECTION ( 'NONE',  ( 0.9975640502598247528, 0.000000000000000000, -0.06975647374411816926 ) ) ;
#669 = ORIENTED_EDGE ( 'NONE', *, *, #441, .T. ) ;
#670 = ADVANCED_FACE ( 'NONE', ( #719 ), #72, .T. ) ;
#671 = VECTOR ( 'NONE', #715, 1000.000000000000000 ) ;
#672 = PLANE ( 'NONE',  #551 ) ;
#673 = VERTEX_POINT ( 'NONE', #7 ) ;
#674 = CARTESIAN_POINT ( 'NONE',  ( -52.93534979494664583, 138.3897345045710381, -20.01000000000002643 ) ) ;
#675 = ORIENTED_EDGE ( 'NONE', *, *, #71, .T. ) ;
#676 = VECTOR ( 'NONE', #648, 1000.000000000000000 ) ;
#677 = ADVANCED_FACE ( 'NONE', ( #714 ), #199, .F. ) ;
#678 = CARTESIAN_POINT ( 'NONE',  ( -14.40534979494665180, 138.3897345045710381, 6.000000000000000000 ) ) ;
#679 = VERTEX_POINT ( 'NONE', #302 ) ;
#680 = DIRECTION ( 'NONE',  ( 0.000000000000000000, 1.000000000000000000, 0.000000000000000000 ) ) ;
#681 = ORIENTED_EDGE ( 'NONE', *, *, #744, .F. ) ;
#682 = CLOSED_SHELL ( 'NONE', ( #148, #677, #526, #341, #126, #285, #615, #167, #37, #493, #553, #218, #577, #563, #394, #636, #670, #230, #499, #154, #84, #173, #414, #547, #628 ) ) ;
#683 = CARTESIAN_POINT ( 'NONE',  ( -59.67189382765604933, 138.3897345045710381, -20.01000000000002643 ) ) ;
#684 = ORIENTED_EDGE ( 'NONE', *, *, #96, .T. ) ;
#685 = EDGE_CURVE ( 'NONE', #202, #396, #373, .T. ) ;
#686 = VECTOR ( 'NONE', #3, 1000.000000000000000 ) ;
#687 = CARTESIAN_POINT ( 'NONE',  ( -64.43534979494664583, 149.8897345045710381, -20.01000000000002643 ) ) ;
#688 = ORIENTED_EDGE ( 'NONE', *, *, #232, .T. ) ;
#689 = DIRECTION ( 'NONE',  ( 1.156482317317871725E-16, -5.898059818321145107E-16, 1.000000000000000000 ) ) ;
#690 = EDGE_CURVE ( 'NONE', #523, #559, #239, .T. ) ;
#691 = AXIS2_PLACEMENT_3D ( 'NONE', #413, #85, #313 ) ;
#692 = DIRECTION ( 'NONE',  ( -0.000000000000000000, 1.000000000000000000, -0.000000000000000000 ) ) ;
#693 = ORIENTED_EDGE ( 'NONE', *, *, #666, .T. ) ;
#694 = VECTOR ( 'NONE', #606, 1000.000000000000114 ) ;
#695 = CYLINDRICAL_SURFACE ( 'NONE', #108, 2.250000000000002665 ) ;
#696 = CARTESIAN_POINT ( 'NONE',  ( 55.62465020505337066, 175.4082345045710554, -20.01000000000002643 ) ) ;
#697 = ORIENTED_EDGE ( 'NONE', *, *, #595, .F. ) ;
#698 = FACE_OUTER_BOUND ( 'NONE', #188, .T. ) ;
#699 = EDGE_CURVE ( 'NONE', #433, #612, #466, .T. ) ;
#700 = PRODUCT_DEFINITION_FORMATION_WITH_SPECIFIED_SOURCE ( 'ANY', '', #494, .NOT_KNOWN. ) ;
#701 = EDGE_CURVE ( 'NONE', #488, #317, #530, .T. ) ;
#702 = FACE_OUTER_BOUND ( 'NONE', #306, .T. ) ;
#703 = EDGE_LOOP ( 'NONE', ( #13, #409, #472, #697 ) ) ;
#704 = CARTESIAN_POINT ( 'NONE',  ( -4.405349794946652686, 121.3897345045710807, -2.500000000000002220 ) ) ;
#705 = FACE_BOUND ( 'NONE', #476, .T. ) ;
#706 = ORIENTED_EDGE ( 'NONE', *, *, #2, .T. ) ;
#707 = LINE ( 'NONE', #184, #617 ) ;
#708 = DIRECTION ( 'NONE',  ( 0.9975640502598247528, 0.000000000000000000, -0.06975647374411816926 ) ) ;
#709 = LINE ( 'NONE', #478, #671 ) ;
#710 = DIRECTION ( 'NONE',  ( 1.156482317317871725E-16, -5.898059818321145107E-16, 1.000000000000000000 ) ) ;
#711 = DIRECTION ( 'NONE',  ( 0.000000000000000000, -1.000000000000000000, 0.000000000000000000 ) ) ;
#712 = CARTESIAN_POINT ( 'NONE',  ( -2.155349794946650910, 116.8897345045710949, 5.143396553692085149 ) ) ;
#713 = EDGE_CURVE ( 'NONE', #735, #555, #355, .T. ) ;
#714 = FACE_OUTER_BOUND ( 'NONE', #608, .T. ) ;
#715 = DIRECTION ( 'NONE',  ( -0.000000000000000000, -1.000000000000000000, -5.898059818321145107E-16 ) ) ;
#716 = DIRECTION ( 'NONE',  ( 1.000000000000000000, 0.000000000000000000, 0.000000000000000000 ) ) ;
#717 = ORIENTED_EDGE ( 'NONE', *, *, #264, .F. ) ;
#718 = VECTOR ( 'NONE', #596, 1000.000000000000000 ) ;
#719 = FACE_OUTER_BOUND ( 'NONE', #561, .T. ) ;
#720 = FACE_BOUND ( 'NONE', #464, .T. ) ;
#721 = LINE ( 'NONE', #201, #718 ) ;
#722 =( BOUNDED_CURVE ( )  B_SPLINE_CURVE ( 3, ( #92, #216, #731, #383 ),
 .UNSPECIFIED., .F., .T. ) 
 B_SPLINE_CURVE_WITH_KNOTS ( ( 4, 4 ),
 ( 4.712388980384689674, 6.283185307179586232 ),
 .UNSPECIFIED. ) 
 CURVE ( )  GEOMETRIC_REPRESENTATION_ITEM ( )  RATIONAL_B_SPLINE_CURVE ( ( 1.000000000000000000, 0.8047378541243649375, 0.8047378541243649375, 1.000000000000000000 ) ) 
 REPRESENTATION_ITEM ( '' )  );
#723 = CARTESIAN_POINT ( 'NONE',  ( -52.93534979494664583, 138.3897345045710381, 20.00999999999997314 ) ) ;
#724 = PRESENTATION_STYLE_ASSIGNMENT (( #655 ) ) ;
#725 = AXIS2_PLACEMENT_3D ( 'NONE', #164, #395, #510 ) ;
#726 = DIRECTION ( 'NONE',  ( 0.000000000000000000, -1.000000000000000000, 0.000000000000000000 ) ) ;
#727 = CARTESIAN_POINT ( 'NONE',  ( -2.155349794946653574, 121.3897345045710807, 23.99999999999999645 ) ) ;
#728 = VERTEX_POINT ( 'NONE', #186 ) ;
#729 = AXIS2_PLACEMENT_3D ( 'NONE', #418, #432, #197 ) ;
#730 = VECTOR ( 'NONE', #261, 1000.000000000000000 ) ;
#731 = CARTESIAN_POINT ( 'NONE',  ( -59.67189382765604933, 175.4082345045710838, -20.01000000000002998 ) ) ;
#732 = VERTEX_POINT ( 'NONE', #359 ) ;
#733 = PRODUCT_DEFINITION ( 'UNKNOWN', '', #700, #183 ) ;
#734 = LINE ( 'NONE', #334, #104 ) ;
#735 = VERTEX_POINT ( 'NONE', #422 ) ;
#736 = VECTOR ( 'NONE', #241, 1000.000000000000000 ) ;
#737 = EDGE_CURVE ( 'NONE', #238, #269, #653, .T. ) ;
#738 = LINE ( 'NONE', #150, #226 ) ;
#739 = ORIENTED_EDGE ( 'NONE', *, *, #71, .F. ) ;
#740 = CARTESIAN_POINT ( 'NONE',  ( -6.655349794946656239, 125.8897345045710807, 5.458067207437850676 ) ) ;
#741 = EDGE_LOOP ( 'NONE', ( #651, #508, #132, #392 ) ) ;
#742 = CARTESIAN_POINT ( 'NONE',  ( 5.594650205053347314, 113.3897345045710381, -6.000000000000000000 ) ) ;
#743 = EDGE_LOOP ( 'NONE', ( #681, #684, #647, #49 ) ) ;
#744 = EDGE_CURVE ( 'NONE', #572, #295, #251, .T. ) ;
#745 = LINE ( 'NONE', #644, #169 ) ;
#746 = AXIS2_PLACEMENT_3D ( 'NONE', #178, #234, #634 ) ;
#747 = CARTESIAN_POINT ( 'NONE',  ( -64.43534979494664583, 175.4082345045710554, 8.509999999999971365 ) ) ;
#748 = ORIENTED_EDGE ( 'NONE', *, *, #429, .T. ) ;
#749 = DIRECTION ( 'NONE',  ( 1.000000000000000000, 0.000000000000000000, -0.000000000000000000 ) ) ;
#750 = VECTOR ( 'NONE', #191, 999.9999999999998863 ) ;
#751 = CARTESIAN_POINT ( 'NONE',  ( 30.09465020505319188, 175.4082345045710554, -20.01000000000002643 ) ) ;
#752 = ORIENTED_EDGE ( 'NONE', *, *, #633, .T. ) ;
ENDSEC;
END-ISO-10303-21;
