ISO-10303-21;
HEADER;
FILE_DESCRIPTION (( 'STEP AP214' ),
    '1' );
FILE_NAME ('Ahmed Body with Stand.STEP',
    '2026-09-24T11:55:10',
    ( '' ),
    ( '' ),
    'SwSTEP 2.0',
    'SolidWorks 2026',
    '' );
FILE_SCHEMA (( 'AUTOMOTIVE_DESIGN' ));
ENDSEC;

DATA;
#1 = DIRECTION ( 'NONE',  ( 1.000000000000000000, 0.000000000000000000, 0.000000000000000000 ) ) ;
#2 = EDGE_CURVE ( 'NONE', #734, #822, #197, .T. ) ;
#3 = ORIENTED_EDGE ( 'NONE', *, *, #710, .F. ) ;
#4 = DIRECTION ( 'NONE',  ( -1.000000000000000000, 3.522281169496055835E-16, 7.905502488473577369E-32 ) ) ;
#5 = CARTESIAN_POINT ( 'NONE',  ( 60.03000000000002245, 56.24999999999988631, -20.01000000000001222 ) ) ;
#6 = ORIENTED_EDGE ( 'NONE', *, *, #448, .F. ) ;
#7 = EDGE_LOOP ( 'NONE', ( #363, #136, #170, #502 ) ) ;
#8 = CARTESIAN_POINT ( 'NONE',  ( -9.999999999999984013, 96.09971769034243039, 6.000000000000013323 ) ) ;
#9 = AXIS2_PLACEMENT_3D ( 'NONE', #396, #458, #73 ) ;
#10 = CARTESIAN_POINT ( 'NONE',  ( -9.999999999999987566, 49.25000000000002842, -29.40724809414748364 ) ) ;
#11 = VECTOR ( 'NONE', #695, 1000.000000000000000 ) ;
#12 = ORIENTED_EDGE ( 'NONE', *, *, #472, .F. ) ;
#13 = EDGE_LOOP ( 'NONE', ( #521, #324, #634, #581, #369 ) ) ;
#14 = DIRECTION ( 'NONE',  ( 1.000000000000000000, -7.152982556240659155E-16, -8.881784197001254296E-16 ) ) ;
#15 = ORIENTED_EDGE ( 'NONE', *, *, #416, .F. ) ;
#16 = ORIENTED_EDGE ( 'NONE', *, *, #566, .T. ) ;
#17 = VECTOR ( 'NONE', #51, 1000.000000000000000 ) ;
#18 = CARTESIAN_POINT ( 'NONE',  ( -60.02999999999998693, 67.74999999999990052, 8.509999999999982023 ) ) ;
#19 = DIRECTION ( 'NONE',  ( 0.000000000000000000, -1.000000000000000000, 0.000000000000000000 ) ) ;
#20 = ADVANCED_FACE ( 'NONE', ( #769 ), #202, .F. ) ;
#21 = EDGE_LOOP ( 'NONE', ( #309, #101, #16, #262 ) ) ;
#22 = EDGE_CURVE ( 'NONE', #354, #822, #543, .T. ) ;
#23 = DIRECTION ( 'NONE',  ( -0.000000000000000000, 1.000000000000000000, -0.000000000000000000 ) ) ;
#24 = CARTESIAN_POINT ( 'NONE',  ( 10.00000000000000000, -1.891007091467347377E-14, -2.500000000000000000 ) ) ;
#25 = ORIENTED_EDGE ( 'NONE', *, *, #444, .F. ) ;
#26 = APPLICATION_PROTOCOL_DEFINITION ( 'draft international standard', 'automotive_design', 1998, #715 ) ;
#27 = DIRECTION ( 'NONE',  ( 1.000000000000000000, -7.152982556240659155E-16, -9.920946626024746499E-32 ) ) ;
#28 = ADVANCED_FACE ( 'NONE', ( #286 ), #160, .F. ) ;
#29 = SURFACE_STYLE_FILL_AREA ( #471 ) ;
#30 = STYLED_ITEM ( 'NONE', ( #217 ), #128 ) ;
#31 = DIRECTION ( 'NONE',  ( 0.000000000000000000, -0.000000000000000000, -1.000000000000000000 ) ) ;
#32 = CARTESIAN_POINT ( 'NONE',  ( -55.26654403270937621, 56.24999999999990763, 20.00999999999998380 ) ) ;
#33 = LINE ( 'NONE', #727, #421 ) ;
#34 = CARTESIAN_POINT ( 'NONE',  ( -9.999999999999984013, 31.24999999999988987, 6.000000000000013323 ) ) ;
#35 = CARTESIAN_POINT ( 'NONE',  ( -60.02999999999998693, 67.74999999999990052, -8.510000000000012221 ) ) ;
#36 = CARTESIAN_POINT ( 'NONE',  ( 60.03000000000002245, 81.36366548730272541, -20.01000000000001222 ) ) ;
#37 = DIRECTION ( 'NONE',  ( -1.000000000000000000, 0.000000000000000000, -0.000000000000000000 ) ) ;
#38 = ADVANCED_FACE ( 'NONE', ( #665 ), #207, .T. ) ;
#39 = ORIENTED_EDGE ( 'NONE', *, *, #183, .F. ) ;
#40 = EDGE_CURVE ( 'NONE', #497, #247, #654, .T. ) ;
#41 = CARTESIAN_POINT ( 'NONE',  ( -9.999999999999984013, 56.24999999999988631, 6.000000000000013323 ) ) ;
#42 =( NAMED_UNIT ( * ) PLANE_ANGLE_UNIT ( ) SI_UNIT ( $, .RADIAN. ) );
#43 = CARTESIAN_POINT ( 'NONE',  ( 34.49999999999984368, 93.26849999999986096, -20.01000000000001222 ) ) ;
#44 = FACE_OUTER_BOUND ( 'NONE', #115, .T. ) ;
#45 = ORIENTED_EDGE ( 'NONE', *, *, #338, .F. ) ;
#46 = VECTOR ( 'NONE', #807, 1000.000000000000000 ) ;
#47 = AXIS2_PLACEMENT_3D ( 'NONE', #135, #749, #14 ) ;
#48 = FACE_OUTER_BOUND ( 'NONE', #291, .T. ) ;
#49 = ORIENTED_EDGE ( 'NONE', *, *, #712, .F. ) ;
#50 = PLANE ( 'NONE',  #563 ) ;
#51 = DIRECTION ( 'NONE',  ( -0.000000000000000000, 1.000000000000000000, 6.023345402697206536E-16 ) ) ;
#52 =( BOUNDED_CURVE ( )  B_SPLINE_CURVE ( 3, ( #812, #745, #488, #797 ),
 .UNSPECIFIED., .F., .F. ) 
 B_SPLINE_CURVE_WITH_KNOTS ( ( 4, 4 ),
 ( 4.712388980384689674, 6.283185307179586232 ),
 .UNSPECIFIED. ) 
 CURVE ( )  GEOMETRIC_REPRESENTATION_ITEM ( )  RATIONAL_B_SPLINE_CURVE ( ( 1.000000000000000000, 0.8047378541243649375, 0.8047378541243649375, 1.000000000000000000 ) ) 
 REPRESENTATION_ITEM ( '' )  );
#53 = CARTESIAN_POINT ( 'NONE',  ( -9.999999999999984013, 56.24999999999988631, 2.500000000000027534 ) ) ;
#54 = DIRECTION ( 'NONE',  ( 0.000000000000000000, 1.000000000000000000, 3.469446951953614805E-17 ) ) ;
#55 = ORIENTED_EDGE ( 'NONE', *, *, #120, .T. ) ;
#56 = VECTOR ( 'NONE', #507, 1000.000000000000000 ) ;
#57 = EDGE_CURVE ( 'NONE', #684, #124, #281, .T. ) ;
#58 = ORIENTED_EDGE ( 'NONE', *, *, #775, .T. ) ;
#59 = FACE_OUTER_BOUND ( 'NONE', #395, .T. ) ;
#60 = PLANE ( 'NONE',  #412 ) ;
#61 = VERTEX_POINT ( 'NONE', #604 ) ;
#62 = EDGE_CURVE ( 'NONE', #265, #71, #158, .T. ) ;
#63 = VECTOR ( 'NONE', #527, 999.9999999999998863 ) ;
#64 = EDGE_CURVE ( 'NONE', #185, #241, #221, .T. ) ;
#65 = PLANE ( 'NONE',  #74 ) ;
#66 = DIRECTION ( 'NONE',  ( 0.000000000000000000, -1.000000000000000000, 0.000000000000000000 ) ) ;
#67 = ORIENTED_EDGE ( 'NONE', *, *, #712, .T. ) ;
#68 = VERTEX_POINT ( 'NONE', #660 ) ;
#69 = FACE_OUTER_BOUND ( 'NONE', #379, .T. ) ;
#70 = CARTESIAN_POINT ( 'NONE',  ( 60.03000000000002245, 81.36366548730272541, 20.00999999999998735 ) ) ;
#71 = VERTEX_POINT ( 'NONE', #479 ) ;
#72 = ORIENTED_EDGE ( 'NONE', *, *, #336, .F. ) ;
#73 = DIRECTION ( 'NONE',  ( 0.000000000000000000, 0.000000000000000000, 1.000000000000000000 ) ) ;
#74 = AXIS2_PLACEMENT_3D ( 'NONE', #574, #4, #257 ) ;
#75 = CARTESIAN_POINT ( 'NONE',  ( -9.999999999999984013, 31.24999999999988987, 2.500000000000015543 ) ) ;
#76 = CARTESIAN_POINT ( 'NONE',  ( -9.999999999999987566, 31.24999999999990763, -29.40724809414749430 ) ) ;
#77 = VERTEX_POINT ( 'NONE', #408 ) ;
#78 =( LENGTH_UNIT ( ) NAMED_UNIT ( * ) SI_UNIT ( .MILLI., .METRE. ) );
#79 = PRODUCT_RELATED_PRODUCT_CATEGORY ( 'part', '', ( #789 ) ) ;
#80 = ORIENTED_EDGE ( 'NONE', *, *, #314, .T. ) ;
#81 = CARTESIAN_POINT ( 'NONE',  ( 10.00000000000001776, 49.24999999999999289, -2.499999999999997335 ) ) ;
#82 = DIRECTION ( 'NONE',  ( 0.000000000000000000, 0.000000000000000000, 1.000000000000000000 ) ) ;
#83 = VERTEX_POINT ( 'NONE', #540 ) ;
#84 = PRODUCT_CONTEXT ( 'NONE', #715, 'mechanical' ) ;
#85 = EDGE_CURVE ( 'NONE', #561, #625, #88, .T. ) ;
#86 = CARTESIAN_POINT ( 'NONE',  ( -6.077594197079984717, 56.24999999999988631, -1.715951074728406800 ) ) ;
#87 = VECTOR ( 'NONE', #397, 1000.000000000000000 ) ;
#88 = LINE ( 'NONE', #146, #237 ) ;
#89 = DIRECTION ( 'NONE',  ( -7.395570986446985676E-32, -1.110223024625156540E-16, 1.000000000000000000 ) ) ;
#90 = CARTESIAN_POINT ( 'NONE',  ( 25.00000000000001776, 56.24999999999988631, -3.552561581977364824 ) ) ;
#91 = AXIS2_PLACEMENT_3D ( 'NONE', #76, #376, #629 ) ;
#92 = AXIS2_PLACEMENT_3D ( 'NONE', #610, #173, #614 ) ;
#93 = LINE ( 'NONE', #711, #476 ) ;
#94 = CYLINDRICAL_SURFACE ( 'NONE', #810, 11.50000000000000355 ) ;
#95 = CARTESIAN_POINT ( 'NONE',  ( -48.52999999999998693, 93.26849999999986096, -20.01000000000001222 ) ) ;
#96 = CYLINDRICAL_SURFACE ( 'NONE', #730, 2.500000000000000444 ) ;
#97 = VERTEX_POINT ( 'NONE', #35 ) ;
#98 = DIRECTION ( 'NONE',  ( 7.044562338992109698E-16, 1.000000000000000000, 5.551115123125781470E-17 ) ) ;
#99 = FACE_OUTER_BOUND ( 'NONE', #590, .T. ) ;
#100 = AXIS2_PLACEMENT_3D ( 'NONE', #347, #411, #151 ) ;
#101 = ORIENTED_EDGE ( 'NONE', *, *, #57, .T. ) ;
#102 = EDGE_CURVE ( 'NONE', #247, #565, #289, .T. ) ;
#103 = CARTESIAN_POINT ( 'NONE',  ( 0.1580226904376018371, 31.24999999999988987, -1.843598055105349465 ) ) ;
#104 = CARTESIAN_POINT ( 'NONE',  ( -60.02999999999998693, 93.26849999999986096, 20.00999999999998735 ) ) ;
#105 = ORIENTED_EDGE ( 'NONE', *, *, #785, .T. ) ;
#106 = CARTESIAN_POINT ( 'NONE',  ( -7.500000000000018652, -8.316810297414075585E-15, -2.500000000000000000 ) ) ;
#107 = EDGE_CURVE ( 'NONE', #68, #97, #602, .T. ) ;
#108 = FACE_OUTER_BOUND ( 'NONE', #372, .T. ) ;
#109 = ORIENTED_EDGE ( 'NONE', *, *, #799, .T. ) ;
#110 = AXIS2_PLACEMENT_3D ( 'NONE', #10, #518, #768 ) ;
#111 = ORIENTED_EDGE ( 'NONE', *, *, #467, .T. ) ;
#112 = DIRECTION ( 'NONE',  ( -1.000000000000000000, 0.000000000000000000, -0.000000000000000000 ) ) ;
#113 = CARTESIAN_POINT ( 'NONE',  ( -7.500000000000000000, 2.641710877122040496E-15, 5.929126866355181713E-31 ) ) ;
#114 = ORIENTED_EDGE ( 'NONE', *, *, #212, .T. ) ;
#115 = EDGE_LOOP ( 'NONE', ( #137, #109, #315, #368 ) ) ;
#116 = FACE_OUTER_BOUND ( 'NONE', #577, .T. ) ;
#117 = LINE ( 'NONE', #386, #198 ) ;
#118 = ORIENTED_EDGE ( 'NONE', *, *, #360, .T. ) ;
#119 = AXIS2_PLACEMENT_3D ( 'NONE', #308, #560, #356 ) ;
#120 = EDGE_CURVE ( 'NONE', #739, #519, #33, .T. ) ;
#121 = CARTESIAN_POINT ( 'NONE',  ( -60.02999999999998693, 93.26849999999986096, -20.01000000000001222 ) ) ;
#122 = CARTESIAN_POINT ( 'NONE',  ( -48.52999999999998693, 67.74999999999990052, -20.01000000000001222 ) ) ;
#123 = ADVANCED_FACE ( 'NONE', ( #667 ), #713, .T. ) ;
#124 = VERTEX_POINT ( 'NONE', #599 ) ;
#125 = ADVANCED_FACE ( 'NONE', ( #533 ), #94, .T. ) ;
#126 = LINE ( 'NONE', #243, #288 ) ;
#127 = CARTESIAN_POINT ( 'NONE',  ( -9.999999999999984013, 31.24999999999988987, 3.469446951953614189E-15 ) ) ;
#128 = MANIFOLD_SOLID_BREP ( 'Cut-Extrude1', #230 ) ;
#129 = ORIENTED_EDGE ( 'NONE', *, *, #22, .F. ) ;
#130 = ADVANCED_FACE ( 'NONE', ( #231 ), #213, .F. ) ;
#131 = DIRECTION ( 'NONE',  ( -0.06975647374411847457, 0.000000000000000000, 0.9975640502598247528 ) ) ;
#132 = LINE ( 'NONE', #439, #438 ) ;
#133 = DIRECTION ( 'NONE',  ( 1.000000000000000000, 0.000000000000000000, 0.000000000000000000 ) ) ;
#134 = ORIENTED_EDGE ( 'NONE', *, *, #655, .F. ) ;
#135 = CARTESIAN_POINT ( 'NONE',  ( -7.500000000000000000, -6.669907197408606971E-15, 7.601404749253369318E-32 ) ) ;
#136 = ORIENTED_EDGE ( 'NONE', *, *, #40, .F. ) ;
#137 = ORIENTED_EDGE ( 'NONE', *, *, #297, .F. ) ;
#138 = CIRCLE ( 'NONE', #9, 2.500000000000000000 ) ;
#139 =( BOUNDED_CURVE ( )  B_SPLINE_CURVE ( 3, ( #331, #816, #244, #501 ),
 .UNSPECIFIED., .F., .T. ) 
 B_SPLINE_CURVE_WITH_KNOTS ( ( 4, 4 ),
 ( 1.570796326794896780, 3.141592653589793116 ),
 .UNSPECIFIED. ) 
 CURVE ( )  GEOMETRIC_REPRESENTATION_ITEM ( )  RATIONAL_B_SPLINE_CURVE ( ( 1.000000000000000000, 0.8047378541243650485, 0.8047378541243650485, 1.000000000000000000 ) ) 
 REPRESENTATION_ITEM ( '' )  );
#140 = DIRECTION ( 'NONE',  ( 0.000000000000000000, 0.000000000000000000, -1.000000000000000000 ) ) ;
#141 = DIRECTION ( 'NONE',  ( -1.000000000000000000, 0.000000000000000000, 0.000000000000000000 ) ) ;
#142 = ADVANCED_FACE ( 'NONE', ( #44 ), #96, .T. ) ;
#143 = ORIENTED_EDGE ( 'NONE', *, *, #801, .T. ) ;
#144 = DIRECTION ( 'NONE',  ( 1.000000000000000000, 0.000000000000000000, 0.000000000000000000 ) ) ;
#145 = LINE ( 'NONE', #407, #87 ) ;
#146 = CARTESIAN_POINT ( 'NONE',  ( 10.00000000000001421, 31.24999999999988987, 2.500000000000010658 ) ) ;
#147 = ADVANCED_FACE ( 'NONE', ( #803 ), #353, .F. ) ;
#148 = VERTEX_POINT ( 'NONE', #556 ) ;
#149 = DIRECTION ( 'NONE',  ( 0.000000000000000000, 0.000000000000000000, 1.000000000000000000 ) ) ;
#150 = CARTESIAN_POINT ( 'NONE',  ( -48.52999999999998693, 56.24999999999988631, 20.00999999999998735 ) ) ;
#151 = DIRECTION ( 'NONE',  ( 0.000000000000000000, 8.673617379884035472E-16, -1.000000000000000000 ) ) ;
#152 = EDGE_CURVE ( 'NONE', #68, #557, #52, .T. ) ;
#153 = EDGE_CURVE ( 'NONE', #561, #268, #545, .T. ) ;
#154 = ORIENTED_EDGE ( 'NONE', *, *, #2, .T. ) ;
#155 = FACE_OUTER_BOUND ( 'NONE', #516, .T. ) ;
#156 = VECTOR ( 'NONE', #222, 999.9999999999998863 ) ;
#157 = CIRCLE ( 'NONE', #205, 2.500000000000000444 ) ;
#158 = LINE ( 'NONE', #402, #740 ) ;
#159 = LINE ( 'NONE', #584, #233 ) ;
#160 = PLANE ( 'NONE',  #675 ) ;
#161 = LINE ( 'NONE', #547, #461 ) ;
#162 = CARTESIAN_POINT ( 'NONE',  ( 25.00000000000001776, 31.24999999999988987, -3.552561581977364824 ) ) ;
#163 = CARTESIAN_POINT ( 'NONE',  ( -60.02999999999998693, 56.24999999999988631, 20.00999999999998735 ) ) ;
#164 = DIRECTION ( 'NONE',  ( 0.000000000000000000, 0.000000000000000000, -1.000000000000000000 ) ) ;
#165 = ORIENTED_EDGE ( 'NONE', *, *, #738, .F. ) ;
#166 = ADVANCED_FACE ( 'NONE', ( #493 ), #679, .T. ) ;
#167 = CARTESIAN_POINT ( 'NONE',  ( -5.798568302103515926, 56.24999999999988631, -5.706207275767707365 ) ) ;
#168 = DIRECTION ( 'NONE',  ( 0.000000000000000000, -1.000000000000000000, 0.000000000000000000 ) ) ;
#169 = COLOUR_RGB ( '',0.7921568627450980005, 0.8196078431372548767, 0.9333333333333333481 ) ;
#170 = ORIENTED_EDGE ( 'NONE', *, *, #232, .T. ) ;
#171 = EDGE_CURVE ( 'NONE', #268, #519, #228, .T. ) ;
#172 = LINE ( 'NONE', #36, #298 ) ;
#173 = DIRECTION ( 'NONE',  ( 3.522281169496055835E-16, 1.000000000000000000, 5.551115123125781470E-17 ) ) ;
#174 = EDGE_LOOP ( 'NONE', ( #678, #819, #259, #400, #554 ) ) ;
#175 = DIRECTION ( 'NONE',  ( 0.000000000000000000, 1.000000000000000000, 3.469446951953614805E-17 ) ) ;
#176 = ORIENTED_EDGE ( 'NONE', *, *, #232, .F. ) ;
#177 = DIRECTION ( 'NONE',  ( -0.9963466490417509647, 7.113640393872587494E-16, -0.08540114134643517207 ) ) ;
#178 = CARTESIAN_POINT ( 'NONE',  ( -9.999999999999984013, 31.24999999999988987, -2.499999999999984901 ) ) ;
#179 = ORIENTED_EDGE ( 'NONE', *, *, #467, .F. ) ;
#180 = ADVANCED_FACE ( 'NONE', ( #108 ), #303, .T. ) ;
#181 = CARTESIAN_POINT ( 'NONE',  ( 25.00000000000001776, 96.09971769034243039, -3.552561581977364824 ) ) ;
#182 = CARTESIAN_POINT ( 'NONE',  ( -9.999999999999984013, 56.24999999999988631, -2.499999999999984013 ) ) ;
#183 = EDGE_CURVE ( 'NONE', #148, #649, #485, .T. ) ;
#184 = ORIENTED_EDGE ( 'NONE', *, *, #107, .T. ) ;
#185 = VERTEX_POINT ( 'NONE', #366 ) ;
#186 = DIRECTION ( 'NONE',  ( 1.000000000000000000, 0.000000000000000000, 0.000000000000000000 ) ) ;
#187 = DIRECTION ( 'NONE',  ( 0.000000000000000000, 0.000000000000000000, -1.000000000000000000 ) ) ;
#188 = EDGE_LOOP ( 'NONE', ( #623, #697, #179, #319, #176, #105 ) ) ;
#189 = VECTOR ( 'NONE', #544, 1000.000000000000114 ) ;
#190 = VECTOR ( 'NONE', #140, 1000.000000000000000 ) ;
#191 = ORIENTED_EDGE ( 'NONE', *, *, #314, .F. ) ;
#192 = LINE ( 'NONE', #790, #805 ) ;
#193 = CARTESIAN_POINT ( 'NONE',  ( 10.00000000000002309, 56.24999999999988631, 4.601463761129948260 ) ) ;
#194 = VERTEX_POINT ( 'NONE', #236 ) ;
#195 = ORIENTED_EDGE ( 'NONE', *, *, #441, .F. ) ;
#196 = DIRECTION ( 'NONE',  ( 1.156482317317871725E-16, -5.898059818321145107E-16, 1.000000000000000000 ) ) ;
#197 = LINE ( 'NONE', #456, #520 ) ;
#198 = VECTOR ( 'NONE', #322, 1000.000000000000114 ) ;
#199 = ORIENTED_EDGE ( 'NONE', *, *, #506, .T. ) ;
#200 = DIRECTION ( 'NONE',  ( 0.000000000000000000, 0.000000000000000000, 1.000000000000000000 ) ) ;
#201 = CARTESIAN_POINT ( 'NONE',  ( -48.52999999999998693, 93.26849999999986096, -20.01000000000001222 ) ) ;
#202 = PLANE ( 'NONE',  #91 ) ;
#203 = EDGE_LOOP ( 'NONE', ( #390, #436, #371, #256 ) ) ;
#204 = APPLICATION_PROTOCOL_DEFINITION ( 'draft international standard', 'automotive_design', 1998, #755 ) ;
#205 = AXIS2_PLACEMENT_3D ( 'NONE', #211, #465, #27 ) ;
#206 = LINE ( 'NONE', #539, #261 ) ;
#207 = CYLINDRICAL_SURFACE ( 'NONE', #100, 4.000000000000000000 ) ;
#208 = ORIENTED_EDGE ( 'NONE', *, *, #317, .F. ) ;
#209 = VECTOR ( 'NONE', #795, 1000.000000000000000 ) ;
#210 = EDGE_CURVE ( 'NONE', #586, #250, #269, .T. ) ;
#211 = CARTESIAN_POINT ( 'NONE',  ( -7.500000000000000000, -6.669907197408606971E-15, 7.601404749253369318E-32 ) ) ;
#212 = EDGE_CURVE ( 'NONE', #270, #194, #619, .T. ) ;
#213 = PLANE ( 'NONE',  #558 ) ;
#214 = ADVANCED_FACE ( 'NONE', ( #99 ), #683, .F. ) ;
#215 = ORIENTED_EDGE ( 'NONE', *, *, #785, .F. ) ;
#216 = PLANE ( 'NONE',  #582 ) ;
#217 = PRESENTATION_STYLE_ASSIGNMENT (( #394 ) ) ;
#218 = CARTESIAN_POINT ( 'NONE',  ( 10.00000000000001421, 56.24999999999988631, -5.999999999999986677 ) ) ;
#219 = DIRECTION ( 'NONE',  ( -7.044562338992109698E-16, -1.000000000000000000, -1.110223024625156540E-16 ) ) ;
#220 = VECTOR ( 'NONE', #659, 1000.000000000000227 ) ;
#221 = LINE ( 'NONE', #341, #209 ) ;
#222 = DIRECTION ( 'NONE',  ( 0.9063077870366509359, -0.4226182617406974429, -0.000000000000000000 ) ) ;
#223 = LINE ( 'NONE', #162, #337 ) ;
#224 =( BOUNDED_CURVE ( )  B_SPLINE_CURVE ( 3, ( #364, #555, #287, #682 ),
 .UNSPECIFIED., .F., .F. ) 
 B_SPLINE_CURVE_WITH_KNOTS ( ( 4, 4 ),
 ( 3.141592653589793116, 4.712388980384689674 ),
 .UNSPECIFIED. ) 
 CURVE ( )  GEOMETRIC_REPRESENTATION_ITEM ( )  RATIONAL_B_SPLINE_CURVE ( ( 1.000000000000000000, 0.8047378541243649375, 0.8047378541243649375, 1.000000000000000000 ) ) 
 REPRESENTATION_ITEM ( '' )  );
#225 = VECTOR ( 'NONE', #422, 1000.000000000000000 ) ;
#226 = CARTESIAN_POINT ( 'NONE',  ( 10.00000000000001421, 56.24999999999988631, 2.500000000000025313 ) ) ;
#227 = PRODUCT_DEFINITION ( 'UNKNOWN', '', #670, #720 ) ;
#228 = LINE ( 'NONE', #362, #523 ) ;
#229 = CARTESIAN_POINT ( 'NONE',  ( -9.999999999999984013, 31.24999999999988987, 2.500000000000011990 ) ) ;
#230 = CLOSED_SHELL ( 'NONE', ( #142, #166, #760, #714, #28, #777, #398, #357, #20, #591, #295, #693, #214, #147, #418, #674, #690, #130, #125, #180, #123, #323, #380, #736, #698, #553, #38 ) ) ;
#231 = FACE_OUTER_BOUND ( 'NONE', #804, .T. ) ;
#232 = EDGE_CURVE ( 'NONE', #497, #786, #223, .T. ) ;
#233 = VECTOR ( 'NONE', #346, 1000.000000000000000 ) ;
#234 = ORIENTED_EDGE ( 'NONE', *, *, #62, .F. ) ;
#235 = LINE ( 'NONE', #103, #605 ) ;
#236 = CARTESIAN_POINT ( 'NONE',  ( -9.999999999999984013, 49.25000000000000000, 2.500000000000022649 ) ) ;
#237 = VECTOR ( 'NONE', #589, 1000.000000000000000 ) ;
#238 = ORIENTED_EDGE ( 'NONE', *, *, #567, .T. ) ;
#239 = FACE_OUTER_BOUND ( 'NONE', #174, .T. ) ;
#240 = DIRECTION ( 'NONE',  ( -0.4226182617406974429, -0.9063077870366509359, 0.000000000000000000 ) ) ;
#241 = VERTEX_POINT ( 'NONE', #454 ) ;
#242 = ORIENTED_EDGE ( 'NONE', *, *, #597, .T. ) ;
#243 = CARTESIAN_POINT ( 'NONE',  ( -9.999999999999987566, 49.25000000000002842, -29.40724809414748364 ) ) ;
#244 = CARTESIAN_POINT ( 'NONE',  ( -55.26654403270939042, 56.24999999999989342, -20.01000000000001577 ) ) ;
#245 = ORIENTED_EDGE ( 'NONE', *, *, #338, .T. ) ;
#246 = CIRCLE ( 'NONE', #724, 4.000000000000000000 ) ;
#247 = VERTEX_POINT ( 'NONE', #435 ) ;
#248 = DIRECTION ( 'NONE',  ( -0.9975640502598247528, 0.000000000000000000, 0.06975647374411816926 ) ) ;
#249 = CARTESIAN_POINT ( 'NONE',  ( -60.02999999999998693, 81.76849999999988938, 8.509999999999982023 ) ) ;
#250 = VERTEX_POINT ( 'NONE', #127 ) ;
#251 = EDGE_CURVE ( 'NONE', #684, #561, #564, .T. ) ;
#252 = EDGE_LOOP ( 'NONE', ( #39, #640, #58, #473, #546 ) ) ;
#253 = DIRECTION ( 'NONE',  ( -0.06975647374411816926, 0.000000000000000000, -0.9975640502598247528 ) ) ;
#254 = CARTESIAN_POINT ( 'NONE',  ( -19.99999999999998224, 56.24999999999988631, 2.500000000000028866 ) ) ;
#255 = EDGE_CURVE ( 'NONE', #185, #265, #575, .T. ) ;
#256 = ORIENTED_EDGE ( 'NONE', *, *, #62, .T. ) ;
#257 = DIRECTION ( 'NONE',  ( 3.522281169496055835E-16, 1.000000000000000000, 5.551115123125781470E-17 ) ) ;
#258 = LINE ( 'NONE', #512, #806 ) ;
#259 = ORIENTED_EDGE ( 'NONE', *, *, #255, .T. ) ;
#260 = EDGE_CURVE ( 'NONE', #786, #565, #132, .T. ) ;
#261 = VECTOR ( 'NONE', #598, 1000.000000000000000 ) ;
#262 = ORIENTED_EDGE ( 'NONE', *, *, #153, .F. ) ;
#263 = DIRECTION ( 'NONE',  ( 0.000000000000000000, 1.000000000000000000, 0.000000000000000000 ) ) ;
#264 = DIRECTION ( 'NONE',  ( 1.000000000000000000, -0.000000000000000000, -1.156482317317871725E-16 ) ) ;
#265 = VERTEX_POINT ( 'NONE', #182 ) ;
#266 = ORIENTED_EDGE ( 'NONE', *, *, #613, .F. ) ;
#267 = DIRECTION ( 'NONE',  ( 0.000000000000000000, -1.000000000000000000, 0.000000000000000000 ) ) ;
#268 = VERTEX_POINT ( 'NONE', #193 ) ;
#269 = CIRCLE ( 'NONE', #668, 2.500000000000000000 ) ;
#270 = VERTEX_POINT ( 'NONE', #75 ) ;
#271 = CARTESIAN_POINT ( 'NONE',  ( 34.49999999999984368, 93.26849999999986096, -1.250616010008242852E-14 ) ) ;
#272 = DIRECTION ( 'NONE',  ( 0.000000000000000000, 1.000000000000000000, 0.000000000000000000 ) ) ;
#273 = UNCERTAINTY_MEASURE_WITH_UNIT (LENGTH_MEASURE( 1.000000000000000082E-05 ), #78, 'distance_accuracy_value', 'NONE');
#274 = EDGE_CURVE ( 'NONE', #424, #585, #117, .T. ) ;
#275 = ORIENTED_EDGE ( 'NONE', *, *, #360, .F. ) ;
#276 = LINE ( 'NONE', #218, #445 ) ;
#277 = EDGE_CURVE ( 'NONE', #294, #786, #307, .T. ) ;
#278 = LINE ( 'NONE', #592, #764 ) ;
#279 = DIRECTION ( 'NONE',  ( 0.000000000000000000, 0.000000000000000000, -1.000000000000000000 ) ) ;
#280 = ORIENTED_EDGE ( 'NONE', *, *, #274, .T. ) ;
#281 = CIRCLE ( 'NONE', #572, 4.000000000000000000 ) ;
#282 = FACE_OUTER_BOUND ( 'NONE', #673, .T. ) ;
#283 = CARTESIAN_POINT ( 'NONE',  ( -48.52999999999998693, 93.26849999999986096, 8.509999999999982023 ) ) ;
#284 = CARTESIAN_POINT ( 'NONE',  ( -60.02999999999998693, 81.76849999999988938, -20.01000000000001222 ) ) ;
#285 = CARTESIAN_POINT ( 'NONE',  ( -9.999999999999987566, 31.24999999999990763, -29.40724809414749430 ) ) ;
#286 = FACE_OUTER_BOUND ( 'NONE', #746, .T. ) ;
#287 = CARTESIAN_POINT ( 'NONE',  ( -60.02999999999998693, 88.50504403270927867, 15.24654403270939085 ) ) ;
#288 = VECTOR ( 'NONE', #196, 1000.000000000000000 ) ;
#289 = LINE ( 'NONE', #90, #320 ) ;
#290 = LINE ( 'NONE', #34, #365 ) ;
#291 = EDGE_LOOP ( 'NONE', ( #596, #208, #55, #433, #525, #266 ) ) ;
#292 = PLANE ( 'NONE',  #580 ) ;
#293 = EDGE_CURVE ( 'NONE', #649, #498, #389, .T. ) ;
#294 = VERTEX_POINT ( 'NONE', #178 ) ;
#295 = ADVANCED_FACE ( 'NONE', ( #443 ), #60, .F. ) ;
#296 = DIRECTION ( 'NONE',  ( 1.000000000000000000, 0.000000000000000000, 0.000000000000000000 ) ) ;
#297 = EDGE_CURVE ( 'NONE', #250, #83, #821, .T. ) ;
#298 = VECTOR ( 'NONE', #744, 1000.000000000000000 ) ;
#299 = DIRECTION ( 'NONE',  ( -0.000000000000000000, 1.000000000000000000, 0.000000000000000000 ) ) ;
#300 = VECTOR ( 'NONE', #450, 1000.000000000000000 ) ;
#301 = ORIENTED_EDGE ( 'NONE', *, *, #509, .F. ) ;
#302 = LINE ( 'NONE', #229, #661 ) ;
#303 = CYLINDRICAL_SURFACE ( 'NONE', #798, 11.50000000000000178 ) ;
#304 = ADVANCED_BREP_SHAPE_REPRESENTATION ( 'Ahmed Body with Stand', ( #128, #818 ), #647 ) ;
#305 = EDGE_LOOP ( 'NONE', ( #432, #165, #510, #705 ) ) ;
#306 = DIRECTION ( 'NONE',  ( 4.104256372818152282E-17, -1.000000000000000000, -2.869975635499795943E-18 ) ) ;
#307 = CIRCLE ( 'NONE', #814, 4.000000000000000000 ) ;
#308 = CARTESIAN_POINT ( 'NONE',  ( -60.02999999999998693, 93.26849999999986096, -20.01000000000001222 ) ) ;
#309 = ORIENTED_EDGE ( 'NONE', *, *, #251, .F. ) ;
#310 = FACE_BOUND ( 'NONE', #21, .T. ) ;
#311 = CARTESIAN_POINT ( 'NONE',  ( -19.99999999999998224, 31.24999999999988987, -2.499999999999983569 ) ) ;
#312 = VERTEX_POINT ( 'NONE', #249 ) ;
#313 = AXIS2_PLACEMENT_3D ( 'NONE', #626, #449, #453 ) ;
#314 = EDGE_CURVE ( 'NONE', #586, #424, #703, .T. ) ;
#315 = ORIENTED_EDGE ( 'NONE', *, *, #482, .F. ) ;
#316 = LINE ( 'NONE', #748, #403 ) ;
#317 = EDGE_CURVE ( 'NONE', #739, #586, #258, .T. ) ;
#318 = DIRECTION ( 'NONE',  ( -1.000000000000000000, 0.000000000000000000, 1.156482317317871725E-16 ) ) ;
#319 = ORIENTED_EDGE ( 'NONE', *, *, #277, .T. ) ;
#320 = VECTOR ( 'NONE', #460, 1000.000000000000114 ) ;
#321 = DIRECTION ( 'NONE',  ( 0.9963466490417509647, -6.924011766968427214E-16, -0.08540114134643621291 ) ) ;
#322 = DIRECTION ( 'NONE',  ( 0.9963466490417508536, -6.924011766968426228E-16, -0.08540114134643621291 ) ) ;
#323 = ADVANCED_FACE ( 'NONE', ( #638 ), #691, .T. ) ;
#324 = ORIENTED_EDGE ( 'NONE', *, *, #464, .T. ) ;
#325 = ORIENTED_EDGE ( 'NONE', *, *, #152, .F. ) ;
#326 = LINE ( 'NONE', #636, #616 ) ;
#327 = FACE_OUTER_BOUND ( 'NONE', #750, .T. ) ;
#328 = ORIENTED_EDGE ( 'NONE', *, *, #183, .T. ) ;
#329 = AXIS2_PLACEMENT_3D ( 'NONE', #121, #632, #112 ) ;
#330 = EDGE_LOOP ( 'NONE', ( #452, #49, #644, #242, #486 ) ) ;
#331 = CARTESIAN_POINT ( 'NONE',  ( -60.02999999999998693, 67.74999999999990052, -8.510000000000012221 ) ) ;
#332 = ORIENTED_EDGE ( 'NONE', *, *, #733, .F. ) ;
#333 = ORIENTED_EDGE ( 'NONE', *, *, #441, .T. ) ;
#334 = DIRECTION ( 'NONE',  ( 0.000000000000000000, -1.000000000000000000, -5.898059818321145107E-16 ) ) ;
#335 = CARTESIAN_POINT ( 'NONE',  ( -6.077594197079984717, 56.24999999999988631, 1.715951074728448766 ) ) ;
#336 = EDGE_CURVE ( 'NONE', #529, #649, #508, .T. ) ;
#337 = VECTOR ( 'NONE', #729, 1000.000000000000114 ) ;
#338 = EDGE_CURVE ( 'NONE', #535, #312, #382, .T. ) ;
#339 = ORIENTED_EDGE ( 'NONE', *, *, #85, .T. ) ;
#340 = DIRECTION ( 'NONE',  ( 1.000000000000000000, 0.000000000000000000, 0.000000000000000000 ) ) ;
#341 = CARTESIAN_POINT ( 'NONE',  ( 10.00000000000001776, 49.25000000000000000, -2.499999999999988454 ) ) ;
#342 = ORIENTED_EDGE ( 'NONE', *, *, #120, .F. ) ;
#343 = VECTOR ( 'NONE', #646, 1000.000000000000000 ) ;
#344 = CARTESIAN_POINT ( 'NONE',  ( -60.02999999999998693, 61.01345596729048282, 15.24654403270938552 ) ) ;
#345 = DIRECTION ( 'NONE',  ( 1.156482317317871725E-16, -5.898059818321145107E-16, 1.000000000000000000 ) ) ;
#346 = DIRECTION ( 'NONE',  ( -7.395570986446985676E-32, -1.110223024625156540E-16, 1.000000000000000000 ) ) ;
#347 = CARTESIAN_POINT ( 'NONE',  ( -6.077594197079984717, 31.24999999999988987, 1.715951074728434111 ) ) ;
#348 = UNCERTAINTY_MEASURE_WITH_UNIT (LENGTH_MEASURE( 1.000000000000000082E-05 ), #392, 'distance_accuracy_value', 'NONE');
#349 = DIRECTION ( 'NONE',  ( 6.394689268473246233E-32, 1.000000000000000000, 5.898059818321145107E-16 ) ) ;
#350 = DIRECTION ( 'NONE',  ( 7.152982556240660141E-16, 1.000000000000000000, 5.551115123125781470E-17 ) ) ;
#351 = CARTESIAN_POINT ( 'NONE',  ( -7.499999999999988454, 31.24999999999988987, 2.500000000000012434 ) ) ;
#352 = VECTOR ( 'NONE', #31, 1000.000000000000000 ) ;
#353 = PLANE ( 'NONE',  #624 ) ;
#354 = VERTEX_POINT ( 'NONE', #70 ) ;
#355 = DIRECTION ( 'NONE',  ( -7.395570986446985676E-32, -1.110223024625156540E-16, 1.000000000000000000 ) ) ;
#356 = DIRECTION ( 'NONE',  ( 0.000000000000000000, 0.000000000000000000, -1.000000000000000000 ) ) ;
#357 = ADVANCED_FACE ( 'NONE', ( #327 ), #579, .F. ) ;
#358 = ORIENTED_EDGE ( 'NONE', *, *, #40, .T. ) ;
#359 = EDGE_CURVE ( 'NONE', #97, #148, #139, .T. ) ;
#360 = EDGE_CURVE ( 'NONE', #424, #83, #477, .T. ) ;
#361 = CARTESIAN_POINT ( 'NONE',  ( 60.03000000000002245, 81.36366548730272541, -20.01000000000001222 ) ) ;
#362 = CARTESIAN_POINT ( 'NONE',  ( 10.00000000000001421, 31.24999999999988987, 4.601463761129950036 ) ) ;
#363 = ORIENTED_EDGE ( 'NONE', *, *, #102, .F. ) ;
#364 = CARTESIAN_POINT ( 'NONE',  ( -48.52999999999998693, 93.26849999999986096, 20.00999999999998735 ) ) ;
#365 = VECTOR ( 'NONE', #796, 1000.000000000000114 ) ;
#366 = CARTESIAN_POINT ( 'NONE',  ( -9.999999999999984013, 49.25000000000001421, -2.499999999999988454 ) ) ;
#367 = AXIS2_PLACEMENT_3D ( 'NONE', #86, #653, #664 ) ;
#368 = ORIENTED_EDGE ( 'NONE', *, *, #490, .F. ) ;
#369 = ORIENTED_EDGE ( 'NONE', *, *, #22, .T. ) ;
#370 = PLANE ( 'NONE',  #513 ) ;
#371 = ORIENTED_EDGE ( 'NONE', *, *, #423, .T. ) ;
#372 = EDGE_LOOP ( 'NONE', ( #765, #25, #817, #615 ) ) ;
#373 = PLANE ( 'NONE',  #313 ) ;
#374 = VECTOR ( 'NONE', #417, 1000.000000000000000 ) ;
#375 = DIRECTION ( 'NONE',  ( 2.414268454598923190E-18, 1.000000000000000000, 1.688220962058717827E-19 ) ) ;
#376 = DIRECTION ( 'NONE',  ( 6.394689268473246233E-32, 1.000000000000000000, 5.898059818321145107E-16 ) ) ;
#377 = CARTESIAN_POINT ( 'NONE',  ( 1.821459649775647449E-14, 56.24999999999988631, -1.250616010008242852E-14 ) ) ;
#378 = DIRECTION ( 'NONE',  ( -3.522281169496055835E-16, -1.000000000000000000, -5.551115123125781470E-17 ) ) ;
#379 = EDGE_LOOP ( 'NONE', ( #383, #199, #154, #611 ) ) ;
#380 = ADVANCED_FACE ( 'NONE', ( #155 ), #459, .F. ) ;
#381 = FACE_OUTER_BOUND ( 'NONE', #7, .T. ) ;
#382 = LINE ( 'NONE', #763, #300 ) ;
#383 = ORIENTED_EDGE ( 'NONE', *, *, #775, .F. ) ;
#384 = ORIENTED_EDGE ( 'NONE', *, *, #569, .F. ) ;
#385 = DIRECTION ( 'NONE',  ( 0.08540114134643518595, 5.045533262382328721E-17, -0.9963466490417510757 ) ) ;
#386 = CARTESIAN_POINT ( 'NONE',  ( 0.1580226904376016706, -1.419378837808396586E-14, 1.843598055105343470 ) ) ;
#387 = ORIENTED_EDGE ( 'NONE', *, *, #297, .T. ) ;
#388 = ORIENTED_EDGE ( 'NONE', *, *, #637, .T. ) ;
#389 = LINE ( 'NONE', #5, #772 ) ;
#390 = ORIENTED_EDGE ( 'NONE', *, *, #801, .F. ) ;
#391 = ORIENTED_EDGE ( 'NONE', *, *, #64, .T. ) ;
#392 =( LENGTH_UNIT ( ) NAMED_UNIT ( * ) SI_UNIT ( .MILLI., .METRE. ) );
#393 = CARTESIAN_POINT ( 'NONE',  ( -19.99999999999998224, 31.24999999999988987, 2.500000000000013767 ) ) ;
#394 = SURFACE_STYLE_USAGE ( .BOTH. , #788 ) ;
#395 = EDGE_LOOP ( 'NONE', ( #384, #701, #328, #770 ) ) ;
#396 = CARTESIAN_POINT ( 'NONE',  ( -7.499999999999988454, 31.24999999999988987, 1.734723475976800981E-15 ) ) ;
#397 = DIRECTION ( 'NONE',  ( 1.000000000000000000, -6.938893903907227392E-16, -1.301042606982605074E-16 ) ) ;
#398 = ADVANCED_FACE ( 'NONE', ( #282 ), #216, .F. ) ;
#399 = DIRECTION ( 'NONE',  ( 0.000000000000000000, -1.000000000000000000, 0.000000000000000000 ) ) ;
#400 = ORIENTED_EDGE ( 'NONE', *, *, #423, .F. ) ;
#401 = LINE ( 'NONE', #410, #515 ) ;
#402 = CARTESIAN_POINT ( 'NONE',  ( -19.99999999999998224, 56.24999999999988631, -2.499999999999982681 ) ) ;
#403 = VECTOR ( 'NONE', #306, 1000.000000000000000 ) ;
#404 = ORIENTED_EDGE ( 'NONE', *, *, #628, .T. ) ;
#405 = EDGE_CURVE ( 'NONE', #194, #625, #145, .T. ) ;
#406 = VECTOR ( 'NONE', #522, 1000.000000000000000 ) ;
#407 = CARTESIAN_POINT ( 'NONE',  ( 10.00000000000001776, 49.24999999999999289, 2.500000000000020872 ) ) ;
#408 = CARTESIAN_POINT ( 'NONE',  ( -48.52999999999998693, 56.24999999999988631, 20.00999999999998735 ) ) ;
#409 = PRODUCT_DEFINITION_SHAPE ( 'NONE', 'NONE',  #227 ) ;
#410 = CARTESIAN_POINT ( 'NONE',  ( -7.499999999999982236, 49.25000000000000711, -2.499999999999997335 ) ) ;
#411 = DIRECTION ( 'NONE',  ( 0.000000000000000000, -1.000000000000000000, -5.898059818321145107E-16 ) ) ;
#412 = AXIS2_PLACEMENT_3D ( 'NONE', #311, #687, #318 ) ;
#413 = LINE ( 'NONE', #800, #681 ) ;
#414 = CARTESIAN_POINT ( 'NONE',  ( -60.02999999999998693, 67.74999999999990052, 8.509999999999982023 ) ) ;
#415 = AXIS2_PLACEMENT_3D ( 'NONE', #377, #263, #761 ) ;
#416 = EDGE_CURVE ( 'NONE', #294, #185, #537, .T. ) ;
#417 = DIRECTION ( 'NONE',  ( 1.000000000000000000, 0.000000000000000000, 0.000000000000000000 ) ) ;
#418 = ADVANCED_FACE ( 'NONE', ( #787 ), #726, .T. ) ;
#419 = ORIENTED_EDGE ( 'NONE', *, *, #656, .F. ) ;
#420 = CARTESIAN_POINT ( 'NONE',  ( 10.00000000000001776, 49.24999999999999289, 2.500000000000020872 ) ) ;
#421 = VECTOR ( 'NONE', #345, 1000.000000000000000 ) ;
#422 = DIRECTION ( 'NONE',  ( 0.000000000000000000, 0.000000000000000000, 1.000000000000000000 ) ) ;
#423 = EDGE_CURVE ( 'NONE', #565, #265, #662, .T. ) ;
#424 = VERTEX_POINT ( 'NONE', #723 ) ;
#425 = LINE ( 'NONE', #163, #762 ) ;
#426 = DIRECTION ( 'NONE',  ( -3.522281169496055835E-16, -1.000000000000000000, -5.551115123125781470E-17 ) ) ;
#427 = ORIENTED_EDGE ( 'NONE', *, *, #85, .F. ) ;
#428 = ORIENTED_EDGE ( 'NONE', *, *, #630, .T. ) ;
#429 = CARTESIAN_POINT ( 'NONE',  ( -6.077594197079984717, 31.24999999999988987, -1.715951074728407688 ) ) ;
#430 = AXIS2_PLACEMENT_3D ( 'NONE', #815, #767, #321 ) ;
#431 = CARTESIAN_POINT ( 'NONE',  ( -9.999999999999984013, 49.25000000000000711, 2.500000000000023537 ) ) ;
#432 = ORIENTED_EDGE ( 'NONE', *, *, #359, .T. ) ;
#433 = ORIENTED_EDGE ( 'NONE', *, *, #628, .F. ) ;
#434 = CARTESIAN_POINT ( 'NONE',  ( -60.02999999999998693, 93.26849999999986096, -20.01000000000001222 ) ) ;
#435 = CARTESIAN_POINT ( 'NONE',  ( 10.00000000000001599, 56.24999999999988631, -4.601463761129918950 ) ) ;
#436 = ORIENTED_EDGE ( 'NONE', *, *, #102, .T. ) ;
#437 = CARTESIAN_POINT ( 'NONE',  ( 0.1580226904376003938, -1.378442737629754002E-14, -1.843598055105351241 ) ) ;
#438 = VECTOR ( 'NONE', #375, 1000.000000000000000 ) ;
#439 = CARTESIAN_POINT ( 'NONE',  ( -5.798568302103509708, 96.09971769034243039, -5.706207275767707365 ) ) ;
#440 = ORIENTED_EDGE ( 'NONE', *, *, #656, .T. ) ;
#441 = EDGE_CURVE ( 'NONE', #61, #585, #159, .T. ) ;
#442 = FACE_OUTER_BOUND ( 'NONE', #252, .T. ) ;
#443 = FACE_OUTER_BOUND ( 'NONE', #657, .T. ) ;
#444 = EDGE_CURVE ( 'NONE', #148, #557, #706, .T. ) ;
#445 = VECTOR ( 'NONE', #149, 1000.000000000000000 ) ;
#446 = ORIENTED_EDGE ( 'NONE', *, *, #509, .T. ) ;
#447 = AXIS2_PLACEMENT_3D ( 'NONE', #393, #778, #334 ) ;
#448 = EDGE_CURVE ( 'NONE', #822, #573, #782, .T. ) ;
#449 = DIRECTION ( 'NONE',  ( 0.000000000000000000, 1.000000000000000000, 0.000000000000000000 ) ) ;
#450 = DIRECTION ( 'NONE',  ( -0.000000000000000000, 1.000000000000000000, -0.000000000000000000 ) ) ;
#451 = ORIENTED_EDGE ( 'NONE', *, *, #595, .T. ) ;
#452 = ORIENTED_EDGE ( 'NONE', *, *, #607, .F. ) ;
#453 = DIRECTION ( 'NONE',  ( 0.000000000000000000, -0.000000000000000000, 1.000000000000000000 ) ) ;
#454 = CARTESIAN_POINT ( 'NONE',  ( 10.00000000000001421, 49.25000000000000000, -2.499999999999986677 ) ) ;
#455 = VECTOR ( 'NONE', #54, 1000.000000000000000 ) ;
#456 = CARTESIAN_POINT ( 'NONE',  ( -60.02999999999998693, 93.26849999999986096, 20.00999999999998735 ) ) ;
#457 = ORIENTED_EDGE ( 'NONE', *, *, #710, .T. ) ;
#458 = DIRECTION ( 'NONE',  ( -6.394689268473246233E-32, -1.000000000000000000, -5.898059818321145107E-16 ) ) ;
#459 = PLANE ( 'NONE',  #447 ) ;
#460 = DIRECTION ( 'NONE',  ( -0.9975640502598247528, 0.000000000000000000, -0.06975647374411847457 ) ) ;
#461 = VECTOR ( 'NONE', #98, 1000.000000000000000 ) ;
#462 =( BOUNDED_CURVE ( )  B_SPLINE_CURVE ( 3, ( #150, #32, #344, #18 ),
 .UNSPECIFIED., .F., .F. ) 
 B_SPLINE_CURVE_WITH_KNOTS ( ( 4, 4 ),
 ( 0.000000000000000000, 1.570796326794896558 ),
 .UNSPECIFIED. ) 
 CURVE ( )  GEOMETRIC_REPRESENTATION_ITEM ( )  RATIONAL_B_SPLINE_CURVE ( ( 1.000000000000000000, 0.8047378541243649375, 0.8047378541243649375, 1.000000000000000000 ) ) 
 REPRESENTATION_ITEM ( '' )  );
#463 = ORIENTED_EDGE ( 'NONE', *, *, #171, .F. ) ;
#464 = EDGE_CURVE ( 'NONE', #734, #77, #278, .T. ) ;
#465 = DIRECTION ( 'NONE',  ( -7.152982556240660141E-16, -1.000000000000000000, -5.551115123125781470E-17 ) ) ;
#466 = DIRECTION ( 'NONE',  ( 0.000000000000000000, 1.000000000000000000, 0.000000000000000000 ) ) ;
#467 = EDGE_CURVE ( 'NONE', #294, #250, #526, .T. ) ;
#468 = VERTEX_POINT ( 'NONE', #651 ) ;
#469 = DIRECTION ( 'NONE',  ( 1.156482317317871725E-16, -5.898059818321145107E-16, 1.000000000000000000 ) ) ;
#470 = LINE ( 'NONE', #718, #220 ) ;
#471 = FILL_AREA_STYLE ('',( #475 ) ) ;
#472 = EDGE_CURVE ( 'NONE', #77, #535, #462, .T. ) ;
#473 = ORIENTED_EDGE ( 'NONE', *, *, #655, .T. ) ;
#474 = CARTESIAN_POINT ( 'NONE',  ( 60.03000000000002245, 93.26849999999986096, -20.01000000000001222 ) ) ;
#475 = FILL_AREA_STYLE_COLOUR ( '', #169 ) ;
#476 = VECTOR ( 'NONE', #531, 1000.000000000000000 ) ;
#477 = CIRCLE ( 'NONE', #47, 2.500000000000000444 ) ;
#478 = DIRECTION ( 'NONE',  ( 0.000000000000000000, 0.000000000000000000, -1.000000000000000000 ) ) ;
#479 = CARTESIAN_POINT ( 'NONE',  ( 10.00000000000001421, 56.24999999999988631, -2.499999999999986233 ) ) ;
#480 = CARTESIAN_POINT ( 'NONE',  ( 60.03000000000002245, 56.24999999999988631, -20.01000000000001222 ) ) ;
#481 = DIRECTION ( 'NONE',  ( -6.394689268473246233E-32, -1.000000000000000000, -5.898059818321145107E-16 ) ) ;
#482 = EDGE_CURVE ( 'NONE', #663, #608, #401, .T. ) ;
#483 = LINE ( 'NONE', #731, #46 ) ;
#484 = EDGE_CURVE ( 'NONE', #354, #498, #206, .T. ) ;
#485 = LINE ( 'NONE', #808, #374 ) ;
#486 = ORIENTED_EDGE ( 'NONE', *, *, #212, .F. ) ;
#487 = CARTESIAN_POINT ( 'NONE',  ( -7.499999999999871214, 31.24999999999988987, -2.499999999999985345 ) ) ;
#488 = CARTESIAN_POINT ( 'NONE',  ( -55.26654403270937621, 93.26849999999987517, -20.01000000000001222 ) ) ;
#489 = ORIENTED_EDGE ( 'NONE', *, *, #210, .T. ) ;
#490 = EDGE_CURVE ( 'NONE', #83, #663, #157, .T. ) ;
#491 = LINE ( 'NONE', #741, #156 ) ;
#492 = MECHANICAL_DESIGN_GEOMETRIC_PRESENTATION_REPRESENTATION (  '', ( #30 ), #588 ) ;
#493 = FACE_OUTER_BOUND ( 'NONE', #549, .T. ) ;
#494 = EDGE_LOOP ( 'NONE', ( #67, #404, #463, #708 ) ) ;
#495 = CARTESIAN_POINT ( 'NONE',  ( 10.00000000000000000, -1.929864897329227856E-14, 0.9999999999999922284 ) ) ;
#496 = CARTESIAN_POINT ( 'NONE',  ( -7.499999999999988454, 31.24999999999988987, 1.734723475976801178E-15 ) ) ;
#497 = VERTEX_POINT ( 'NONE', #791 ) ;
#498 = VERTEX_POINT ( 'NONE', #666 ) ;
#499 = CARTESIAN_POINT ( 'NONE',  ( -48.52999999999998693, 93.26849999999986096, 20.00999999999998735 ) ) ;
#500 = VECTOR ( 'NONE', #186, 1000.000000000000000 ) ;
#501 = CARTESIAN_POINT ( 'NONE',  ( -48.52999999999998693, 56.24999999999988631, -20.01000000000001222 ) ) ;
#502 = ORIENTED_EDGE ( 'NONE', *, *, #260, .T. ) ;
#503 = FACE_BOUND ( 'NONE', #203, .T. ) ;
#504 = CARTESIAN_POINT ( 'NONE',  ( -7.500000000000000000, 2.364155120965751361E-15, 2.500000000000000000 ) ) ;
#505 = EDGE_LOOP ( 'NONE', ( #72, #692, #645, #721 ) ) ;
#506 = EDGE_CURVE ( 'NONE', #557, #734, #93, .T. ) ;
#507 = DIRECTION ( 'NONE',  ( 7.044562338992109698E-16, 1.000000000000000000, 5.551115123125781470E-17 ) ) ;
#508 = LINE ( 'NONE', #758, #11 ) ;
#509 = EDGE_CURVE ( 'NONE', #61, #663, #470, .T. ) ;
#510 = ORIENTED_EDGE ( 'NONE', *, *, #472, .T. ) ;
#511 = PLANE ( 'NONE',  #430 ) ;
#512 = CARTESIAN_POINT ( 'NONE',  ( 0.1580226904376005603, 31.24999999999988987, 1.843598055105349021 ) ) ;
#513 = AXIS2_PLACEMENT_3D ( 'NONE', #181, #131, #562 ) ;
#514 = ORIENTED_EDGE ( 'NONE', *, *, #464, .F. ) ;
#515 = VECTOR ( 'NONE', #587, 1000.000000000000000 ) ;
#516 = EDGE_LOOP ( 'NONE', ( #702, #781, #641, #339 ) ) ;
#517 = PLANE ( 'NONE',  #329 ) ;
#518 = DIRECTION ( 'NONE',  ( 1.000000000000000000, 6.965892449317214867E-32, -1.156482317317871725E-16 ) ) ;
#519 = VERTEX_POINT ( 'NONE', #811 ) ;
#520 = VECTOR ( 'NONE', #133, 1000.000000000000000 ) ;
#521 = ORIENTED_EDGE ( 'NONE', *, *, #2, .F. ) ;
#522 = DIRECTION ( 'NONE',  ( 1.156482317317871725E-16, -5.898059818321145107E-16, 1.000000000000000000 ) ) ;
#523 = VECTOR ( 'NONE', #168, 1000.000000000000000 ) ;
#524 = ORIENTED_EDGE ( 'NONE', *, *, #733, .T. ) ;
#525 = ORIENTED_EDGE ( 'NONE', *, *, #607, .T. ) ;
#526 = LINE ( 'NONE', #285, #406 ) ;
#527 = DIRECTION ( 'NONE',  ( -0.9063077870366509359, 0.4226182617406974429, -0.000000000000000000 ) ) ;
#528 = AXIS2_PLACEMENT_3D ( 'NONE', #437, #385, #177 ) ;
#529 = VERTEX_POINT ( 'NONE', #361 ) ;
#530 = CARTESIAN_POINT ( 'NONE',  ( 0.000000000000000000, 0.000000000000000000, 0.000000000000000000 ) ) ;
#531 = DIRECTION ( 'NONE',  ( -0.000000000000000000, 0.000000000000000000, 1.000000000000000000 ) ) ;
#532 = EDGE_CURVE ( 'NONE', #529, #354, #172, .T. ) ;
#533 = FACE_OUTER_BOUND ( 'NONE', #756, .T. ) ;
#534 = AXIS2_PLACEMENT_3D ( 'NONE', #283, #399, #279 ) ;
#535 = VERTEX_POINT ( 'NONE', #414 ) ;
#536 = SHAPE_DEFINITION_REPRESENTATION ( #409, #304 ) ;
#537 = LINE ( 'NONE', #773, #594 ) ;
#538 = DIRECTION ( 'NONE',  ( 1.000000000000000000, -0.000000000000000000, -1.156482317317871725E-16 ) ) ;
#539 = CARTESIAN_POINT ( 'NONE',  ( 60.03000000000002245, 93.26849999999986096, 20.00999999999998735 ) ) ;
#540 = CARTESIAN_POINT ( 'NONE',  ( -10.00000000000000000, -4.881661558348442626E-15, 3.240377131431524323E-31 ) ) ;
#541 = AXIS2_PLACEMENT_3D ( 'NONE', #429, #175, #669 ) ;
#542 = CYLINDRICAL_SURFACE ( 'NONE', #541, 4.000000000000000000 ) ;
#543 = LINE ( 'NONE', #719, #63 ) ;
#544 = DIRECTION ( 'NONE',  ( 0.9975640502598247528, 0.000000000000000000, -0.06975647374411816926 ) ) ;
#545 = LINE ( 'NONE', #737, #225 ) ;
#546 = ORIENTED_EDGE ( 'NONE', *, *, #336, .T. ) ;
#547 = CARTESIAN_POINT ( 'NONE',  ( 9.999999999999982236, -2.103337244926907304E-14, 0.9999999999999922284 ) ) ;
#548 = CARTESIAN_POINT ( 'NONE',  ( 60.03000000000002245, 81.36366548730272541, -20.01000000000001222 ) ) ;
#549 = EDGE_LOOP ( 'NONE', ( #191, #489, #387, #275 ) ) ;
#550 = DIRECTION ( 'NONE',  ( 1.156482317317871725E-16, -5.898059818321145107E-16, 1.000000000000000000 ) ) ;
#551 = VECTOR ( 'NONE', #23, 1000.000000000000000 ) ;
#552 = DIRECTION ( 'NONE',  ( 0.000000000000000000, 0.000000000000000000, 1.000000000000000000 ) ) ;
#553 = ADVANCED_FACE ( 'NONE', ( #239 ), #542, .T. ) ;
#554 = ORIENTED_EDGE ( 'NONE', *, *, #260, .F. ) ;
#555 = CARTESIAN_POINT ( 'NONE',  ( -55.26654403270937621, 93.26849999999987517, 20.00999999999998380 ) ) ;
#556 = CARTESIAN_POINT ( 'NONE',  ( -48.52999999999998693, 56.24999999999988631, -20.01000000000001222 ) ) ;
#557 = VERTEX_POINT ( 'NONE', #95 ) ;
#558 = AXIS2_PLACEMENT_3D ( 'NONE', #548, #240, #732 ) ;
#559 = DIRECTION ( 'NONE',  ( 0.000000000000000000, 1.000000000000000000, 3.469446951953614805E-17 ) ) ;
#560 = DIRECTION ( 'NONE',  ( 1.000000000000000000, 0.000000000000000000, 0.000000000000000000 ) ) ;
#561 = VERTEX_POINT ( 'NONE', #226 ) ;
#562 = DIRECTION ( 'NONE',  ( 0.9975640502598247528, 0.000000000000000000, 0.06975647374411847457 ) ) ;
#563 = AXIS2_PLACEMENT_3D ( 'NONE', #8, #253, #248 ) ;
#564 = LINE ( 'NONE', #254, #688 ) ;
#565 = VERTEX_POINT ( 'NONE', #167 ) ;
#566 = EDGE_CURVE ( 'NONE', #124, #268, #617, .T. ) ;
#567 = EDGE_CURVE ( 'NONE', #241, #625, #413, .T. ) ;
#568 = ORIENTED_EDGE ( 'NONE', *, *, #506, .F. ) ;
#569 = EDGE_CURVE ( 'NONE', #77, #498, #425, .T. ) ;
#570 = PLANE ( 'NONE',  #415 ) ;
#571 = CARTESIAN_POINT ( 'NONE',  ( -10.00000000000000000, -4.881661558348442626E-15, 3.240377131431524323E-31 ) ) ;
#572 = AXIS2_PLACEMENT_3D ( 'NONE', #335, #272, #82 ) ;
#573 = VERTEX_POINT ( 'NONE', #43 ) ;
#574 = CARTESIAN_POINT ( 'NONE',  ( 10.00000000000000000, -1.891007091467347377E-14, -2.500000000000000000 ) ) ;
#575 = LINE ( 'NONE', #700, #455 ) ;
#576 = EDGE_LOOP ( 'NONE', ( #451, #704, #80, #280 ) ) ;
#577 = EDGE_LOOP ( 'NONE', ( #143, #3, #238, #427, #685, #776, #342, #583, #195, #648, #215, #358 ) ) ;
#578 = FACE_OUTER_BOUND ( 'NONE', #631, .T. ) ;
#579 = PLANE ( 'NONE',  #110 ) ;
#580 = AXIS2_PLACEMENT_3D ( 'NONE', #671, #349, #676 ) ;
#581 = ORIENTED_EDGE ( 'NONE', *, *, #484, .F. ) ;
#582 = AXIS2_PLACEMENT_3D ( 'NONE', #81, #219, #89 ) ;
#583 = ORIENTED_EDGE ( 'NONE', *, *, #595, .F. ) ;
#584 = CARTESIAN_POINT ( 'NONE',  ( 10.00000000000000000, -1.891007091467347377E-14, -2.500000000000000000 ) ) ;
#585 = VERTEX_POINT ( 'NONE', #495 ) ;
#586 = VERTEX_POINT ( 'NONE', #351 ) ;
#587 = DIRECTION ( 'NONE',  ( 3.522281169496055835E-16, 1.000000000000000000, 5.551115123125781470E-17 ) ) ;
#588 =( GEOMETRIC_REPRESENTATION_CONTEXT ( 3 ) GLOBAL_UNCERTAINTY_ASSIGNED_CONTEXT ( ( #273 ) ) GLOBAL_UNIT_ASSIGNED_CONTEXT ( ( #78, #42, #677 ) ) REPRESENTATION_CONTEXT ( 'NONE', 'WORKASPACE' ) );
#589 = DIRECTION ( 'NONE',  ( -0.000000000000000000, -1.000000000000000000, -5.898059818321145107E-16 ) ) ;
#590 = EDGE_LOOP ( 'NONE', ( #184, #388, #245, #716 ) ) ;
#591 = ADVANCED_FACE ( 'NONE', ( #48 ), #292, .F. ) ;
#592 = CARTESIAN_POINT ( 'NONE',  ( -48.52999999999998693, 93.26849999999986096, 20.00999999999998735 ) ) ;
#593 = CARTESIAN_POINT ( 'NONE',  ( -60.02999999999998693, 56.24999999999988631, -8.510000000000012221 ) ) ;
#594 = VECTOR ( 'NONE', #601, 1000.000000000000000 ) ;
#595 = EDGE_CURVE ( 'NONE', #585, #739, #161, .T. ) ;
#596 = ORIENTED_EDGE ( 'NONE', *, *, #210, .F. ) ;
#597 = EDGE_CURVE ( 'NONE', #684, #194, #302, .T. ) ;
#598 = DIRECTION ( 'NONE',  ( -0.000000000000000000, -1.000000000000000000, -0.000000000000000000 ) ) ;
#599 = CARTESIAN_POINT ( 'NONE',  ( -5.798568302103513261, 56.24999999999988631, 5.706207275767733123 ) ) ;
#600 = VECTOR ( 'NONE', #466, 1000.000000000000000 ) ;
#601 = DIRECTION ( 'NONE',  ( -6.564657044236540001E-32, 1.000000000000000000, 3.469446951953614805E-17 ) ) ;
#602 = LINE ( 'NONE', #593, #784 ) ;
#603 = CARTESIAN_POINT ( 'NONE',  ( -6.077594197079984717, 31.24999999999988987, 1.715951074728434111 ) ) ;
#604 = CARTESIAN_POINT ( 'NONE',  ( 9.999999999999982236, -2.081132784434404173E-14, -1.000000000000009104 ) ) ;
#605 = VECTOR ( 'NONE', #612, 1000.000000000000227 ) ;
#606 = CARTESIAN_POINT ( 'NONE',  ( -9.999999999999987566, 31.24999999999990763, -29.40724809414749430 ) ) ;
#607 = EDGE_CURVE ( 'NONE', #809, #270, #246, .T. ) ;
#608 = VERTEX_POINT ( 'NONE', #487 ) ;
#609 = DIRECTION ( 'NONE',  ( 0.000000000000000000, 0.000000000000000000, -1.000000000000000000 ) ) ;
#610 = CARTESIAN_POINT ( 'NONE',  ( -7.500000000000000000, -5.762231850722455599E-15, 1.264001509313130418E-31 ) ) ;
#611 = ORIENTED_EDGE ( 'NONE', *, *, #448, .T. ) ;
#612 = DIRECTION ( 'NONE',  ( 0.9963466490417509647, -5.037010402141745431E-17, 0.08540114134643517207 ) ) ;
#613 = EDGE_CURVE ( 'NONE', #250, #270, #735, .T. ) ;
#614 = DIRECTION ( 'NONE',  ( 1.000000000000000000, -3.522281169496052384E-16, -7.905502488473574085E-32 ) ) ;
#615 = ORIENTED_EDGE ( 'NONE', *, *, #107, .F. ) ;
#616 = VECTOR ( 'NONE', #752, 1000.000000000000000 ) ;
#617 = LINE ( 'NONE', #41, #189 ) ;
#618 = AXIS2_PLACEMENT_3D ( 'NONE', #122, #643, #1 ) ;
#619 = LINE ( 'NONE', #431, #17 ) ;
#620 = ORIENTED_EDGE ( 'NONE', *, *, #64, .F. ) ;
#621 = LINE ( 'NONE', #824, #56 ) ;
#622 = CARTESIAN_POINT ( 'NONE',  ( -48.52999999999998693, 93.26849999999986096, -8.510000000000012221 ) ) ;
#623 = ORIENTED_EDGE ( 'NONE', *, *, #630, .F. ) ;
#624 = AXIS2_PLACEMENT_3D ( 'NONE', #104, #164, #37 ) ;
#625 = VERTEX_POINT ( 'NONE', #420 ) ;
#626 = CARTESIAN_POINT ( 'NONE',  ( 1.821459649775647449E-14, 93.26849999999986096, -1.250616010008242852E-14 ) ) ;
#627 = DIRECTION ( 'NONE',  ( 0.000000000000000000, 0.000000000000000000, 1.000000000000000000 ) ) ;
#628 = EDGE_CURVE ( 'NONE', #809, #519, #290, .T. ) ;
#629 = DIRECTION ( 'NONE',  ( 0.000000000000000000, -5.898059818321145107E-16, 1.000000000000000000 ) ) ;
#630 = EDGE_CURVE ( 'NONE', #608, #468, #235, .T. ) ;
#631 = EDGE_LOOP ( 'NONE', ( #635, #428, #813, #446 ) ) ;
#632 = DIRECTION ( 'NONE',  ( 0.000000000000000000, 0.000000000000000000, -1.000000000000000000 ) ) ;
#633 = CARTESIAN_POINT ( 'NONE',  ( -6.077594197079984717, 31.24999999999988987, -1.715951074728407688 ) ) ;
#634 = ORIENTED_EDGE ( 'NONE', *, *, #569, .T. ) ;
#635 = ORIENTED_EDGE ( 'NONE', *, *, #482, .T. ) ;
#636 = CARTESIAN_POINT ( 'NONE',  ( -48.52999999999998693, 56.24999999999988631, -1.250616010008242852E-14 ) ) ;
#637 = EDGE_CURVE ( 'NONE', #97, #535, #483, .T. ) ;
#638 = FACE_OUTER_BOUND ( 'NONE', #305, .T. ) ;
#639 = PRESENTATION_LAYER_ASSIGNMENT (  '', '', ( #30 ) ) ;
#640 = ORIENTED_EDGE ( 'NONE', *, *, #444, .T. ) ;
#641 = ORIENTED_EDGE ( 'NONE', *, *, #251, .T. ) ;
#642 = FACE_OUTER_BOUND ( 'NONE', #576, .T. ) ;
#643 = DIRECTION ( 'NONE',  ( 0.000000000000000000, 0.000000000000000000, 1.000000000000000000 ) ) ;
#644 = ORIENTED_EDGE ( 'NONE', *, *, #57, .F. ) ;
#645 = ORIENTED_EDGE ( 'NONE', *, *, #484, .T. ) ;
#646 = DIRECTION ( 'NONE',  ( -3.522281169496055835E-16, -1.000000000000000000, -5.551115123125781470E-17 ) ) ;
#647 =( GEOMETRIC_REPRESENTATION_CONTEXT ( 3 ) GLOBAL_UNCERTAINTY_ASSIGNED_CONTEXT ( ( #348 ) ) GLOBAL_UNIT_ASSIGNED_CONTEXT ( ( #392, #658, #709 ) ) REPRESENTATION_CONTEXT ( 'NONE', 'WORKASPACE' ) );
#648 = ORIENTED_EDGE ( 'NONE', *, *, #751, .T. ) ;
#649 = VERTEX_POINT ( 'NONE', #480 ) ;
#650 = CARTESIAN_POINT ( 'NONE',  ( -5.798568302103511485, 31.24999999999988987, 5.706207275767734011 ) ) ;
#651 = CARTESIAN_POINT ( 'NONE',  ( 10.00000000000001599, 31.24999999999988987, -1.000000000000008438 ) ) ;
#652 = ORIENTED_EDGE ( 'NONE', *, *, #532, .F. ) ;
#653 = DIRECTION ( 'NONE',  ( 0.000000000000000000, 1.000000000000000000, 0.000000000000000000 ) ) ;
#654 = LINE ( 'NONE', #792, #600 ) ;
#655 = EDGE_CURVE ( 'NONE', #573, #529, #491, .T. ) ;
#656 = EDGE_CURVE ( 'NONE', #734, #312, #224, .T. ) ;
#657 = EDGE_LOOP ( 'NONE', ( #754, #391, #457, #234 ) ) ;
#658 =( NAMED_UNIT ( * ) PLANE_ANGLE_UNIT ( ) SI_UNIT ( $, .RADIAN. ) );
#659 = DIRECTION ( 'NONE',  ( -0.9963466490417509647, 7.113640393872587494E-16, -0.08540114134643517207 ) ) ;
#660 = CARTESIAN_POINT ( 'NONE',  ( -60.02999999999998693, 81.76849999999988938, -8.510000000000012221 ) ) ;
#661 = VECTOR ( 'NONE', #794, 1000.000000000000000 ) ;
#662 = CIRCLE ( 'NONE', #367, 4.000000000000000000 ) ;
#663 = VERTEX_POINT ( 'NONE', #106 ) ;
#664 = DIRECTION ( 'NONE',  ( 0.000000000000000000, 0.000000000000000000, 1.000000000000000000 ) ) ;
#665 = FACE_OUTER_BOUND ( 'NONE', #330, .T. ) ;
#666 = CARTESIAN_POINT ( 'NONE',  ( 60.03000000000002245, 56.24999999999988631, 20.00999999999998735 ) ) ;
#667 = FACE_OUTER_BOUND ( 'NONE', #823, .T. ) ;
#668 = AXIS2_PLACEMENT_3D ( 'NONE', #496, #481, #672 ) ;
#669 = DIRECTION ( 'NONE',  ( 0.000000000000000000, 0.000000000000000000, 1.000000000000000000 ) ) ;
#670 = PRODUCT_DEFINITION_FORMATION_WITH_SPECIFIED_SOURCE ( 'ANY', '', #789, .NOT_KNOWN. ) ;
#671 = CARTESIAN_POINT ( 'NONE',  ( -9.999999999999987566, 31.24999999999990763, -29.40724809414749430 ) ) ;
#672 = DIRECTION ( 'NONE',  ( 0.000000000000000000, 0.000000000000000000, 1.000000000000000000 ) ) ;
#673 = EDGE_LOOP ( 'NONE', ( #620, #524, #743, #766 ) ) ;
#674 = ADVANCED_FACE ( 'NONE', ( #442 ), #517, .T. ) ;
#675 = AXIS2_PLACEMENT_3D ( 'NONE', #24, #350, #780 ) ;
#676 = DIRECTION ( 'NONE',  ( 0.000000000000000000, -5.898059818321145107E-16, 1.000000000000000000 ) ) ;
#677 =( NAMED_UNIT ( * ) SI_UNIT ( $, .STERADIAN. ) SOLID_ANGLE_UNIT ( ) );
#678 = ORIENTED_EDGE ( 'NONE', *, *, #277, .F. ) ;
#679 = CYLINDRICAL_SURFACE ( 'NONE', #92, 2.500000000000000444 ) ;
#680 = ORIENTED_EDGE ( 'NONE', *, *, #613, .T. ) ;
#681 = VECTOR ( 'NONE', #355, 1000.000000000000000 ) ;
#682 = CARTESIAN_POINT ( 'NONE',  ( -60.02999999999998693, 81.76849999999988938, 8.509999999999982023 ) ) ;
#683 = PLANE ( 'NONE',  #119 ) ;
#684 = VERTEX_POINT ( 'NONE', #53 ) ;
#685 = ORIENTED_EDGE ( 'NONE', *, *, #153, .T. ) ;
#686 = CARTESIAN_POINT ( 'NONE',  ( 10.00000000000001421, 31.24999999999988987, -2.499999999999987121 ) ) ;
#687 = DIRECTION ( 'NONE',  ( -1.156482317317871725E-16, 3.469446951953614805E-17, -1.000000000000000000 ) ) ;
#688 = VECTOR ( 'NONE', #264, 1000.000000000000000 ) ;
#689 = CARTESIAN_POINT ( 'NONE',  ( 10.00000000000001599, 31.24999999999988987, 0.9999999999999892308 ) ) ;
#690 = ADVANCED_FACE ( 'NONE', ( #69 ), #373, .T. ) ;
#691 = CYLINDRICAL_SURFACE ( 'NONE', #618, 11.50000000000000355 ) ;
#692 = ORIENTED_EDGE ( 'NONE', *, *, #532, .T. ) ;
#693 = ADVANCED_FACE ( 'NONE', ( #503, #310, #59 ), #570, .F. ) ;
#694 = LINE ( 'NONE', #686, #793 ) ;
#695 = DIRECTION ( 'NONE',  ( -0.000000000000000000, -1.000000000000000000, -0.000000000000000000 ) ) ;
#696 = VECTOR ( 'NONE', #378, 1000.000000000000000 ) ;
#697 = ORIENTED_EDGE ( 'NONE', *, *, #799, .F. ) ;
#698 = ADVANCED_FACE ( 'NONE', ( #699 ), #50, .F. ) ;
#699 = FACE_OUTER_BOUND ( 'NONE', #494, .T. ) ;
#700 = CARTESIAN_POINT ( 'NONE',  ( -9.999999999999984013, 31.24999999999988987, -2.499999999999984901 ) ) ;
#701 = ORIENTED_EDGE ( 'NONE', *, *, #738, .T. ) ;
#702 = ORIENTED_EDGE ( 'NONE', *, *, #405, .F. ) ;
#703 = LINE ( 'NONE', #504, #343 ) ;
#704 = ORIENTED_EDGE ( 'NONE', *, *, #317, .T. ) ;
#705 = ORIENTED_EDGE ( 'NONE', *, *, #637, .F. ) ;
#706 = LINE ( 'NONE', #201, #551 ) ;
#707 = DIRECTION ( 'NONE',  ( 0.000000000000000000, 0.000000000000000000, -1.000000000000000000 ) ) ;
#708 = ORIENTED_EDGE ( 'NONE', *, *, #566, .F. ) ;
#709 =( NAMED_UNIT ( * ) SI_UNIT ( $, .STERADIAN. ) SOLID_ANGLE_UNIT ( ) );
#710 = EDGE_CURVE ( 'NONE', #241, #71, #694, .T. ) ;
#711 = CARTESIAN_POINT ( 'NONE',  ( -48.52999999999998693, 93.26849999999986096, 20.00999999999998735 ) ) ;
#712 = EDGE_CURVE ( 'NONE', #124, #809, #316, .T. ) ;
#713 = CYLINDRICAL_SURFACE ( 'NONE', #534, 11.50000000000000178 ) ;
#714 = ADVANCED_FACE ( 'NONE', ( #642 ), #511, .T. ) ;
#715 = APPLICATION_CONTEXT ( 'automotive_design' ) ;
#716 = ORIENTED_EDGE ( 'NONE', *, *, #802, .T. ) ;
#717 = CARTESIAN_POINT ( 'NONE',  ( -5.798568302103511485, 31.24999999999988987, -5.706207275767707365 ) ) ;
#718 = CARTESIAN_POINT ( 'NONE',  ( 0.1580226904376003938, -1.378442737629754002E-14, -1.843598055105351241 ) ) ;
#719 = CARTESIAN_POINT ( 'NONE',  ( 60.03000000000002245, 81.36366548730272541, 20.00999999999998735 ) ) ;
#720 = PRODUCT_DEFINITION_CONTEXT ( 'detailed design', #755, 'design' ) ;
#721 = ORIENTED_EDGE ( 'NONE', *, *, #293, .F. ) ;
#722 = LINE ( 'NONE', #284, #352 ) ;
#723 = CARTESIAN_POINT ( 'NONE',  ( -7.500000000000018652, -8.871921809726653855E-15, 2.500000000000000000 ) ) ;
#724 = AXIS2_PLACEMENT_3D ( 'NONE', #603, #728, #609 ) ;
#725 = AXIS2_PLACEMENT_3D ( 'NONE', #474, #340, #478 ) ;
#726 = PLANE ( 'NONE',  #725 ) ;
#727 = CARTESIAN_POINT ( 'NONE',  ( 10.00000000000001066, 31.24999999999990763, -29.40724809414749785 ) ) ;
#728 = DIRECTION ( 'NONE',  ( 0.000000000000000000, -1.000000000000000000, 0.000000000000000000 ) ) ;
#729 = DIRECTION ( 'NONE',  ( -0.9975640502598247528, 0.000000000000000000, -0.06975647374411847457 ) ) ;
#730 = AXIS2_PLACEMENT_3D ( 'NONE', #113, #426, #742 ) ;
#731 = CARTESIAN_POINT ( 'NONE',  ( -60.02999999999998693, 67.74999999999990052, -20.01000000000001222 ) ) ;
#732 = DIRECTION ( 'NONE',  ( 0.000000000000000000, 0.000000000000000000, 1.000000000000000000 ) ) ;
#733 = EDGE_CURVE ( 'NONE', #185, #194, #126, .T. ) ;
#734 = VERTEX_POINT ( 'NONE', #499 ) ;
#735 = LINE ( 'NONE', #606, #779 ) ;
#736 = ADVANCED_FACE ( 'NONE', ( #381 ), #370, .F. ) ;
#737 = CARTESIAN_POINT ( 'NONE',  ( 10.00000000000001421, 56.24999999999988631, -5.999999999999986677 ) ) ;
#738 = EDGE_CURVE ( 'NONE', #77, #148, #326, .T. ) ;
#739 = VERTEX_POINT ( 'NONE', #689 ) ;
#740 = VECTOR ( 'NONE', #538, 1000.000000000000000 ) ;
#741 = CARTESIAN_POINT ( 'NONE',  ( -43.14635637183445738, 129.4755906040181799, -20.01000000000001222 ) ) ;
#742 = DIRECTION ( 'NONE',  ( -1.000000000000000000, 3.522281169496053863E-16, 7.905502488473572990E-32 ) ) ;
#743 = ORIENTED_EDGE ( 'NONE', *, *, #405, .T. ) ;
#744 = DIRECTION ( 'NONE',  ( 0.000000000000000000, 0.000000000000000000, 1.000000000000000000 ) ) ;
#745 = CARTESIAN_POINT ( 'NONE',  ( -60.02999999999998693, 88.50504403270927867, -15.24654403270941749 ) ) ;
#746 = EDGE_LOOP ( 'NONE', ( #774, #118, #759, #301, #333 ) ) ;
#747 = ORIENTED_EDGE ( 'NONE', *, *, #802, .F. ) ;
#748 = CARTESIAN_POINT ( 'NONE',  ( -5.798568302103513261, 96.09971769034243039, 5.706207275767733123 ) ) ;
#749 = DIRECTION ( 'NONE',  ( -7.152982556240660141E-16, -1.000000000000000000, -5.551115123125781470E-17 ) ) ;
#750 = EDGE_LOOP ( 'NONE', ( #332, #15, #111, #680, #114 ) ) ;
#751 = EDGE_CURVE ( 'NONE', #61, #468, #621, .T. ) ;
#752 = DIRECTION ( 'NONE',  ( -0.000000000000000000, 0.000000000000000000, -1.000000000000000000 ) ) ;
#753 = DIRECTION ( 'NONE',  ( -0.9963466490417509647, -5.037010402141793502E-17, 0.08540114134643621291 ) ) ;
#754 = ORIENTED_EDGE ( 'NONE', *, *, #255, .F. ) ;
#755 = APPLICATION_CONTEXT ( 'automotive_design' ) ;
#756 = EDGE_LOOP ( 'NONE', ( #419, #568, #325, #747 ) ) ;
#757 = LINE ( 'NONE', #434, #500 ) ;
#758 = CARTESIAN_POINT ( 'NONE',  ( 60.03000000000002245, 93.26849999999986096, -20.01000000000001222 ) ) ;
#759 = ORIENTED_EDGE ( 'NONE', *, *, #490, .T. ) ;
#760 = ADVANCED_FACE ( 'NONE', ( #578 ), #820, .T. ) ;
#761 = DIRECTION ( 'NONE',  ( 0.000000000000000000, -0.000000000000000000, 1.000000000000000000 ) ) ;
#762 = VECTOR ( 'NONE', #296, 1000.000000000000000 ) ;
#763 = CARTESIAN_POINT ( 'NONE',  ( -60.02999999999998693, 93.26849999999986096, 8.509999999999982023 ) ) ;
#764 = VECTOR ( 'NONE', #267, 1000.000000000000000 ) ;
#765 = ORIENTED_EDGE ( 'NONE', *, *, #152, .T. ) ;
#766 = ORIENTED_EDGE ( 'NONE', *, *, #567, .F. ) ;
#767 = DIRECTION ( 'NONE',  ( 0.08540114134643621291, -1.707780654310318627E-16, 0.9963466490417509647 ) ) ;
#768 = DIRECTION ( 'NONE',  ( -1.156482317317871725E-16, 0.000000000000000000, -1.000000000000000000 ) ) ;
#769 = FACE_OUTER_BOUND ( 'NONE', #188, .T. ) ;
#770 = ORIENTED_EDGE ( 'NONE', *, *, #293, .T. ) ;
#771 = CARTESIAN_POINT ( 'NONE',  ( 34.49999999999984368, 93.26849999999986096, 20.00999999999998735 ) ) ;
#772 = VECTOR ( 'NONE', #627, 1000.000000000000000 ) ;
#773 = CARTESIAN_POINT ( 'NONE',  ( -9.999999999999984013, 49.25000000000002842, -2.499999999999984901 ) ) ;
#774 = ORIENTED_EDGE ( 'NONE', *, *, #274, .F. ) ;
#775 = EDGE_CURVE ( 'NONE', #557, #573, #757, .T. ) ;
#776 = ORIENTED_EDGE ( 'NONE', *, *, #171, .T. ) ;
#777 = ADVANCED_FACE ( 'NONE', ( #116 ), #65, .F. ) ;
#778 = DIRECTION ( 'NONE',  ( 1.156482317317871725E-16, -5.898059818321145107E-16, 1.000000000000000000 ) ) ;
#779 = VECTOR ( 'NONE', #550, 1000.000000000000000 ) ;
#780 = DIRECTION ( 'NONE',  ( 1.000000000000000000, -7.152982556240660141E-16, -9.920946626024748688E-32 ) ) ;
#781 = ORIENTED_EDGE ( 'NONE', *, *, #597, .F. ) ;
#782 = LINE ( 'NONE', #271, #190 ) ;
#783 = CARTESIAN_POINT ( 'NONE',  ( -48.52999999999998693, 81.76849999999988938, -1.250616010008242852E-14 ) ) ;
#784 = VECTOR ( 'NONE', #19, 1000.000000000000000 ) ;
#785 = EDGE_CURVE ( 'NONE', #497, #468, #192, .T. ) ;
#786 = VERTEX_POINT ( 'NONE', #717 ) ;
#787 = FACE_OUTER_BOUND ( 'NONE', #505, .T. ) ;
#788 = SURFACE_SIDE_STYLE ('',( #29 ) ) ;
#789 = PRODUCT ( 'Ahmed Body with Stand', 'Ahmed Body with Stand', '', ( #84 ) ) ;
#790 = CARTESIAN_POINT ( 'NONE',  ( 10.00000000000001066, 31.24999999999990763, -29.40724809414749785 ) ) ;
#791 = CARTESIAN_POINT ( 'NONE',  ( 10.00000000000000888, 31.24999999999988987, -4.601463761129918950 ) ) ;
#792 = CARTESIAN_POINT ( 'NONE',  ( 10.00000000000001421, 31.24999999999988987, -4.601463761129918950 ) ) ;
#793 = VECTOR ( 'NONE', #559, 1000.000000000000000 ) ;
#794 = DIRECTION ( 'NONE',  ( 0.000000000000000000, -1.000000000000000000, -5.898059818321145107E-16 ) ) ;
#795 = DIRECTION ( 'NONE',  ( 1.000000000000000000, -6.938893903907227392E-16, -1.156482317317871971E-16 ) ) ;
#796 = DIRECTION ( 'NONE',  ( 0.9975640502598247528, 0.000000000000000000, -0.06975647374411816926 ) ) ;
#797 = CARTESIAN_POINT ( 'NONE',  ( -48.52999999999998693, 93.26849999999986096, -20.01000000000001222 ) ) ;
#798 = AXIS2_PLACEMENT_3D ( 'NONE', #622, #299, #552 ) ;
#799 = EDGE_CURVE ( 'NONE', #250, #608, #138, .T. ) ;
#800 = CARTESIAN_POINT ( 'NONE',  ( 10.00000000000001776, 49.24999999999999289, -2.499999999999997335 ) ) ;
#801 = EDGE_CURVE ( 'NONE', #247, #71, #276, .T. ) ;
#802 = EDGE_CURVE ( 'NONE', #312, #68, #722, .T. ) ;
#803 = FACE_OUTER_BOUND ( 'NONE', #13, .T. ) ;
#804 = EDGE_LOOP ( 'NONE', ( #134, #6, #129, #652 ) ) ;
#805 = VECTOR ( 'NONE', #469, 1000.000000000000000 ) ;
#806 = VECTOR ( 'NONE', #753, 1000.000000000000114 ) ;
#807 = DIRECTION ( 'NONE',  ( 0.000000000000000000, 0.000000000000000000, 1.000000000000000000 ) ) ;
#808 = CARTESIAN_POINT ( 'NONE',  ( -60.02999999999998693, 56.24999999999988631, -20.01000000000001222 ) ) ;
#809 = VERTEX_POINT ( 'NONE', #650 ) ;
#810 = AXIS2_PLACEMENT_3D ( 'NONE', #783, #707, #141 ) ;
#811 = CARTESIAN_POINT ( 'NONE',  ( 10.00000000000001421, 31.24999999999988987, 4.601463761129950036 ) ) ;
#812 = CARTESIAN_POINT ( 'NONE',  ( -60.02999999999998693, 81.76849999999988938, -8.510000000000012221 ) ) ;
#813 = ORIENTED_EDGE ( 'NONE', *, *, #751, .F. ) ;
#814 = AXIS2_PLACEMENT_3D ( 'NONE', #633, #66, #187 ) ;
#815 = CARTESIAN_POINT ( 'NONE',  ( 0.1580226904376016706, -1.419378837808396586E-14, 1.843598055105343470 ) ) ;
#816 = CARTESIAN_POINT ( 'NONE',  ( -60.02999999999998693, 61.01345596729048282, -15.24654403270941749 ) ) ;
#817 = ORIENTED_EDGE ( 'NONE', *, *, #359, .F. ) ;
#818 = AXIS2_PLACEMENT_3D ( 'NONE', #530, #200, #144 ) ;
#819 = ORIENTED_EDGE ( 'NONE', *, *, #416, .T. ) ;
#820 = PLANE ( 'NONE',  #528 ) ;
#821 = LINE ( 'NONE', #571, #696 ) ;
#822 = VERTEX_POINT ( 'NONE', #771 ) ;
#823 = EDGE_LOOP ( 'NONE', ( #440, #45, #12, #514 ) ) ;
#824 = CARTESIAN_POINT ( 'NONE',  ( 9.999999999999982236, -2.081132784434404173E-14, -1.000000000000009104 ) ) ;
ENDSEC;
END-ISO-10303-21;
