ISO-10303-21;
HEADER;
FILE_DESCRIPTION (( 'STEP AP214' ),
    '1' );
FILE_NAME ('NACA 4418 v2.STEP',
    '2026-09-04T07:25:18',
    ( '' ),
    ( '' ),
    'SwSTEP 2.0',
    'SolidWorks 2026',
    '' );
FILE_SCHEMA (( 'AUTOMOTIVE_DESIGN' ));
ENDSEC;

DATA;
#1 = LINE ( 'NONE', #75, #276 ) ;
#2 = CYLINDRICAL_SURFACE ( 'NONE', #325, 2.050000000000003375 ) ;
#3 = ORIENTED_EDGE ( 'NONE', *, *, #227, .F. ) ;
#4 = CARTESIAN_POINT ( 'NONE',  ( 47.50000000000000000, -19.49000000000000554, -2.400000000000006128 ) ) ;
#5 = DIRECTION ( 'NONE',  ( 0.000000000000000000, 0.000000000000000000, 1.000000000000000000 ) ) ;
#6 = ORIENTED_EDGE ( 'NONE', *, *, #343, .T. ) ;
#7 = PLANE ( 'NONE',  #781 ) ;
#8 = FACE_OUTER_BOUND ( 'NONE', #657, .T. ) ;
#9 = CARTESIAN_POINT ( 'NONE',  ( 98.33605464191936107, 0.7648459145226604861, -62.50000000000000000 ) ) ;
#10 = ORIENTED_EDGE ( 'NONE', *, *, #17, .T. ) ;
#11 = CARTESIAN_POINT ( 'NONE',  ( 47.50000000000000000, -23.49000000000000199, -10.50000000000000533 ) ) ;
#12 = AXIS2_PLACEMENT_3D ( 'NONE', #679, #542, #620 ) ;
#13 = CARTESIAN_POINT ( 'NONE',  ( 39.16951857049864572, -4.769625645319606200, -5.400000000000002132 ) ) ;
#14 = CARTESIAN_POINT ( 'NONE',  ( 10.76559219212125029, 9.465568190074559851, -62.50000000000000000 ) ) ;
#15 = EDGE_CURVE ( 'NONE', #250, #434, #110, .T. ) ;
#16 = CARTESIAN_POINT ( 'NONE',  ( 4.907252579358429401, 6.765624547652109300, 62.50000000000000000 ) ) ;
#17 = EDGE_CURVE ( 'NONE', #729, #238, #543, .T. ) ;
#18 = ADVANCED_FACE ( 'NONE', ( #288 ), #58, .T. ) ;
#19 = FACE_OUTER_BOUND ( 'NONE', #71, .T. ) ;
#20 = CARTESIAN_POINT ( 'NONE',  ( 7.480542813441650729, -4.698670083282989296, -62.50000000000000000 ) ) ;
#21 = CARTESIAN_POINT ( 'NONE',  ( 27.50000000000000355, -49.49000000000000909, -13.50000000000001243 ) ) ;
#22 = ORIENTED_EDGE ( 'NONE', *, *, #310, .F. ) ;
#23 = CARTESIAN_POINT ( 'NONE',  ( 31.66816584505133392, -5.170401077590973671, -62.50000000000000000 ) ) ;
#24 = EDGE_CURVE ( 'NONE', #309, #492, #116, .T. ) ;
#25 = AXIS2_PLACEMENT_3D ( 'NONE', #735, #347, #808 ) ;
#26 = VECTOR ( 'NONE', #253, 1000.000000000000000 ) ;
#27 = DIRECTION ( 'NONE',  ( -1.000000000000000000, 0.000000000000000000, 0.000000000000000000 ) ) ;
#28 = ORIENTED_EDGE ( 'NONE', *, *, #575, .F. ) ;
#29 = ORIENTED_EDGE ( 'NONE', *, *, #33, .F. ) ;
#30 = CARTESIAN_POINT ( 'NONE',  ( 10.81796410557560151, -5.201524684972583579, 62.50000000000000000 ) ) ;
#31 = CARTESIAN_POINT ( 'NONE',  ( 27.50000000000000000, -5.389233913605779414, -10.50000000000000888 ) ) ;
#32 = ORIENTED_EDGE ( 'NONE', *, *, #380, .T. ) ;
#33 = EDGE_CURVE ( 'NONE', #600, #387, #680, .T. ) ;
#34 = CARTESIAN_POINT ( 'NONE',  ( 100.0000000000000142, -0.1900000000000000300, -62.50000000000000000 ) ) ;
#35 = CARTESIAN_POINT ( 'NONE',  ( 47.50000000000000000, -23.49000000000000199, -5.400000000000006573 ) ) ;
#36 = VERTEX_POINT ( 'NONE', #340 ) ;
#37 = FACE_OUTER_BOUND ( 'NONE', #787, .T. ) ;
#38 = FACE_OUTER_BOUND ( 'NONE', #378, .T. ) ;
#39 = AXIS2_PLACEMENT_3D ( 'NONE', #233, #165, #176 ) ;
#40 = VECTOR ( 'NONE', #643, 1000.000000000000000 ) ;
#41 = ORIENTED_EDGE ( 'NONE', *, *, #713, .F. ) ;
#42 = ORIENTED_EDGE ( 'NONE', *, *, #660, .F. ) ;
#43 = ADVANCED_FACE ( 'NONE', ( #174 ), #484, .F. ) ;
#44 = LINE ( 'NONE', #479, #167 ) ;
#45 = CARTESIAN_POINT ( 'NONE',  ( 27.50000000000000355, -49.49000000000000909, -5.400000000000006573 ) ) ;
#46 = CARTESIAN_POINT ( 'NONE',  ( 0.6785874562290645784, 3.334938285145800485, 62.50000000000000000 ) ) ;
#47 = DIRECTION ( 'NONE',  ( -0.000000000000000000, -0.000000000000000000, 1.000000000000000000 ) ) ;
#48 = CARTESIAN_POINT ( 'NONE',  ( 27.50000000000000355, -49.49000000000000909, -5.400000000000006573 ) ) ;
#49 = CARTESIAN_POINT ( 'NONE',  ( 27.50000000000000355, -19.49000000000000554, -13.50000000000001243 ) ) ;
#50 = PLANE ( 'NONE',  #700 ) ;
#51 = EDGE_CURVE ( 'NONE', #287, #90, #184, .T. ) ;
#52 = ORIENTED_EDGE ( 'NONE', *, *, #477, .T. ) ;
#53 = CIRCLE ( 'NONE', #125, 2.050000000000003375 ) ;
#54 = CARTESIAN_POINT ( 'NONE',  ( 27.50000000000000355, -49.49000000000000909, -10.50000000000001243 ) ) ;
#55 = ORIENTED_EDGE ( 'NONE', *, *, #388, .F. ) ;
#56 = LINE ( 'NONE', #437, #383 ) ;
#57 = LINE ( 'NONE', #487, #139 ) ;
#58 = PLANE ( 'NONE',  #806 ) ;
#59 = CARTESIAN_POINT ( 'NONE',  ( 40.02034467554577901, 12.82972833958151071, -62.50000000000000000 ) ) ;
#60 = CARTESIAN_POINT ( 'NONE',  ( 24.98392418328137055, 12.45142468844472461, -62.50000000000000000 ) ) ;
#61 = VECTOR ( 'NONE', #213, 1000.000000000000000 ) ;
#62 = VECTOR ( 'NONE', #243, 1000.000000000000000 ) ;
#63 = CARTESIAN_POINT ( 'NONE',  ( 47.50000000000000000, -4.202282355056864205, 62.50000000000000000 ) ) ;
#64 = DIRECTION ( 'NONE',  ( 1.000000000000000000, 0.000000000000000000, 0.000000000000000000 ) ) ;
#65 = CARTESIAN_POINT ( 'NONE',  ( 0.2518629026698032680, 2.071837780074668789, 62.50000000000000000 ) ) ;
#66 = LINE ( 'NONE', #708, #712 ) ;
#67 = CARTESIAN_POINT ( 'NONE',  ( 47.50000000000000000, -49.49000000000000909, -13.50000000000001243 ) ) ;
#68 = CARTESIAN_POINT ( 'NONE',  ( 27.50000000000000355, -49.49000000000000909, -2.400000000000006128 ) ) ;
#69 = EDGE_CURVE ( 'NONE', #595, #547, #630, .T. ) ;
#70 = CARTESIAN_POINT ( 'NONE',  ( 14.94319568939515364, 10.72081524236786798, -62.50000000000000000 ) ) ;
#71 = EDGE_LOOP ( 'NONE', ( #400, #516, #170, #10 ) ) ;
#72 = VECTOR ( 'NONE', #171, 1000.000000000000000 ) ;
#73 = EDGE_CURVE ( 'NONE', #809, #189, #644, .T. ) ;
#74 = VECTOR ( 'NONE', #220, 1000.000000000000000 ) ;
#75 = CARTESIAN_POINT ( 'NONE',  ( 35.45000000000000284, -43.49000000000000909, -62.50000000000000000 ) ) ;
#76 = CARTESIAN_POINT ( 'NONE',  ( 98.33318678258247303, -0.3080238052948675032, 62.50000000000000000 ) ) ;
#77 = DIRECTION ( 'NONE',  ( -1.000000000000000000, 0.000000000000000000, -0.000000000000000000 ) ) ;
#78 = CARTESIAN_POINT ( 'NONE',  ( 27.50000000000000355, -19.49000000000000554, -13.50000000000001243 ) ) ;
#79 = VERTEX_POINT ( 'NONE', #701 ) ;
#80 = CARTESIAN_POINT ( 'NONE',  ( 94.99906958775663668, -0.5441061656459983409, -62.50000000000000000 ) ) ;
#81 = CARTESIAN_POINT ( 'NONE',  ( 0.000000000000000000, 0.000000000000000000, -2.400000000000006128 ) ) ;
#82 = ORIENTED_EDGE ( 'NONE', *, *, #732, .T. ) ;
#83 = CARTESIAN_POINT ( 'NONE',  ( 31.66816584505133392, -5.170401077590973671, 62.50000000000000000 ) ) ;
#84 = AXIS2_PLACEMENT_3D ( 'NONE', #188, #373, #119 ) ;
#85 = CARTESIAN_POINT ( 'NONE',  ( 27.50000000000000355, -19.49000000000000554, -2.400000000000006128 ) ) ;
#86 = ORIENTED_EDGE ( 'NONE', *, *, #716, .T. ) ;
#87 = FACE_OUTER_BOUND ( 'NONE', #773, .T. ) ;
#88 = B_SPLINE_CURVE_WITH_KNOTS ( 'NONE', 3,
 ( #494, #628, #13, #761, #197, #136 ),
 .UNSPECIFIED., .F., .F.,
 ( 4, 1, 1, 4 ),
 ( 0.2528930649015181387, 0.2889947768999530098, 0.3370999782579929827, 0.3491223825935450553 ),
 .UNSPECIFIED. ) ;
#89 = CARTESIAN_POINT ( 'NONE',  ( 28.33344667526622729, -5.349305439683182506, -10.50000000000000888 ) ) ;
#90 = VERTEX_POINT ( 'NONE', #772 ) ;
#91 = EDGE_LOOP ( 'NONE', ( #332, #112, #522, #214 ) ) ;
#92 = CARTESIAN_POINT ( 'NONE',  ( 2.785675183005621669, 5.313955872172787309, -62.50000000000000000 ) ) ;
#93 = CARTESIAN_POINT ( 'NONE',  ( 20.00025928547760756, -5.568030066590686111, -62.50000000000000000 ) ) ;
#94 = ADVANCED_FACE ( 'NONE', ( #19 ), #194, .F. ) ;
#95 = ORIENTED_EDGE ( 'NONE', *, *, #17, .F. ) ;
#96 = EDGE_CURVE ( 'NONE', #189, #809, #409, .T. ) ;
#97 = LINE ( 'NONE', #311, #629 ) ;
#98 = DIRECTION ( 'NONE',  ( -0.000000000000000000, -0.000000000000000000, 1.000000000000000000 ) ) ;
#99 = COLOUR_RGB ( '',0.7921568627450980005, 0.8196078431372548767, 0.9333333333333333481 ) ;
#100 = AXIS2_PLACEMENT_3D ( 'NONE', #550, #419, #289 ) ;
#101 = ORIENTED_EDGE ( 'NONE', *, *, #683, .T. ) ;
#102 = ORIENTED_EDGE ( 'NONE', *, *, #485, .F. ) ;
#103 = DIRECTION ( 'NONE',  ( -0.000000000000000000, 0.000000000000000000, 1.000000000000000000 ) ) ;
#104 = LINE ( 'NONE', #744, #216 ) ;
#105 = EDGE_LOOP ( 'NONE', ( #690, #702, #504, #321 ) ) ;
#106 = CARTESIAN_POINT ( 'NONE',  ( 47.50000000000000000, -49.49000000000000909, -2.400000000000006128 ) ) ;
#107 = EDGE_CURVE ( 'NONE', #574, #710, #646, .T. ) ;
#108 = CARTESIAN_POINT ( 'NONE',  ( 47.50000000000000000, -49.49000000000000909, -13.50000000000001243 ) ) ;
#109 = LINE ( 'NONE', #672, #367 ) ;
#110 = LINE ( 'NONE', #418, #615 ) ;
#111 = DIRECTION ( 'NONE',  ( -0.000000000000000000, -0.000000000000000000, -1.000000000000000000 ) ) ;
#112 = ORIENTED_EDGE ( 'NONE', *, *, #691, .T. ) ;
#113 = CARTESIAN_POINT ( 'NONE',  ( 100.0000000000000142, 0.1900000000000000300, 62.50000000000000000 ) ) ;
#114 = ADVANCED_FACE ( 'NONE', ( #183 ), #2, .F. ) ;
#115 = FILL_AREA_STYLE ('',( #814 ) ) ;
#116 = LINE ( 'NONE', #106, #382 ) ;
#117 = CARTESIAN_POINT ( 'NONE',  ( 100.0000000000000142, -0.1900000000000000300, -62.50000000000000000 ) ) ;
#118 = CARTESIAN_POINT ( 'NONE',  ( 80.05033206481375885, 6.275081207657296822, -62.50000000000000000 ) ) ;
#119 = DIRECTION ( 'NONE',  ( -1.000000000000000000, 0.000000000000000000, -0.000000000000000000 ) ) ;
#120 = ORIENTED_EDGE ( 'NONE', *, *, #384, .T. ) ;
#121 = LINE ( 'NONE', #11, #517 ) ;
#122 = ADVANCED_FACE ( 'NONE', ( #513, #308 ), #566, .F. ) ;
#123 = DIRECTION ( 'NONE',  ( -1.000000000000000000, 0.000000000000000000, -0.000000000000000000 ) ) ;
#124 = CARTESIAN_POINT ( 'NONE',  ( 100.0000000000000142, -0.1900000000000000300, 62.50000000000000000 ) ) ;
#125 = AXIS2_PLACEMENT_3D ( 'NONE', #465, #331, #27 ) ;
#126 = VECTOR ( 'NONE', #370, 1000.000000000000000 ) ;
#127 = DIRECTION ( 'NONE',  ( 0.000000000000000000, 1.000000000000000000, 0.000000000000000000 ) ) ;
#128 = CARTESIAN_POINT ( 'NONE',  ( 98.33605464191936107, 0.7648459145226604861, -62.50000000000000000 ) ) ;
#129 = CARTESIAN_POINT ( 'NONE',  ( 60.00003877393622531, -3.237206338330523181, 62.50000000000000000 ) ) ;
#130 = EDGE_LOOP ( 'NONE', ( #521, #120, #621, #591 ) ) ;
#131 = CARTESIAN_POINT ( 'NONE',  ( 27.50000000000000355, -5.389233913605779414, 62.50000000000000000 ) ) ;
#132 = CARTESIAN_POINT ( 'NONE',  ( 60.03866438045672282, 10.51353884684799667, 62.50000000000000000 ) ) ;
#133 = CARTESIAN_POINT ( 'NONE',  ( 27.50000000000000355, -49.49000000000000909, -10.50000000000001243 ) ) ;
#134 = ORIENTED_EDGE ( 'NONE', *, *, #811, .F. ) ;
#135 = ORIENTED_EDGE ( 'NONE', *, *, #509, .F. ) ;
#136 = CARTESIAN_POINT ( 'NONE',  ( 27.50000000000000355, -5.389233913605779414, -5.400000000000002132 ) ) ;
#137 = CARTESIAN_POINT ( 'NONE',  ( 7.450393807160859083, 8.077448128534136629, -62.50000000000000000 ) ) ;
#138 = ORIENTED_EDGE ( 'NONE', *, *, #270, .T. ) ;
#139 = VECTOR ( 'NONE', #748, 1000.000000000000000 ) ;
#140 = VECTOR ( 'NONE', #526, 1000.000000000000000 ) ;
#141 = CARTESIAN_POINT ( 'NONE',  ( 100.0000000000000142, -0.1900000000000000300, 62.50000000000000000 ) ) ;
#142 = CARTESIAN_POINT ( 'NONE',  ( 47.50000000000000000, -4.202282355056864205, -10.50000000000000888 ) ) ;
#143 = ORIENTED_EDGE ( 'NONE', *, *, #691, .F. ) ;
#144 = UNCERTAINTY_MEASURE_WITH_UNIT (LENGTH_MEASURE( 1.000000000000000082E-05 ), #554, 'distance_accuracy_value', 'NONE');
#145 = CARTESIAN_POINT ( 'NONE',  ( 88.33436004407694497, -1.063713010766971667, -62.50000000000000000 ) ) ;
#146 = CARTESIAN_POINT ( 'NONE',  ( 39.55000000000001137, -43.49000000000000909, -5.400000000000009237 ) ) ;
#147 = ORIENTED_EDGE ( 'NONE', *, *, #623, .F. ) ;
#148 = CARTESIAN_POINT ( 'NONE',  ( 100.0000000000000142, -0.1900000000000000300, 62.50000000000000000 ) ) ;
#149 = CARTESIAN_POINT ( 'NONE',  ( 40.00381152026881182, -4.725051802464462547, -62.50000000000000000 ) ) ;
#150 = ORIENTED_EDGE ( 'NONE', *, *, #190, .F. ) ;
#151 = ORIENTED_EDGE ( 'NONE', *, *, #811, .T. ) ;
#152 = CARTESIAN_POINT ( 'NONE',  ( 98.33318678258247303, -0.3080238052948675032, -62.50000000000000000 ) ) ;
#153 = DIRECTION ( 'NONE',  ( -1.000000000000000000, 0.000000000000000000, -0.000000000000000000 ) ) ;
#154 = ORIENTED_EDGE ( 'NONE', *, *, #683, .F. ) ;
#155 = DIRECTION ( 'NONE',  ( 0.000000000000000000, 0.000000000000000000, -1.000000000000000000 ) ) ;
#156 = EDGE_CURVE ( 'NONE', #563, #710, #634, .T. ) ;
#157 = CARTESIAN_POINT ( 'NONE',  ( 69.99986908664085661, -2.451783746873517966, -62.50000000000000000 ) ) ;
#158 = ORIENTED_EDGE ( 'NONE', *, *, #569, .T. ) ;
#159 = ORIENTED_EDGE ( 'NONE', *, *, #557, .T. ) ;
#160 = PRODUCT_RELATED_PRODUCT_CATEGORY ( 'part', '', ( #791 ) ) ;
#161 = PLANE ( 'NONE',  #560 ) ;
#162 = LINE ( 'NONE', #173, #463 ) ;
#163 = VERTEX_POINT ( 'NONE', #439 ) ;
#164 = FACE_OUTER_BOUND ( 'NONE', #105, .T. ) ;
#165 = DIRECTION ( 'NONE',  ( 0.000000000000000000, -1.000000000000000000, 0.000000000000000000 ) ) ;
#166 = AXIS2_PLACEMENT_3D ( 'NONE', #85, #328, #534 ) ;
#167 = VECTOR ( 'NONE', #228, 1000.000000000000000 ) ;
#168 = CARTESIAN_POINT ( 'NONE',  ( 10.81796410557560151, -5.201524684972583579, 62.50000000000000000 ) ) ;
#169 = DIRECTION ( 'NONE',  ( 0.000000000000000000, 1.000000000000000000, 0.000000000000000000 ) ) ;
#170 = ORIENTED_EDGE ( 'NONE', *, *, #529, .T. ) ;
#171 = DIRECTION ( 'NONE',  ( -0.000000000000000000, -1.000000000000000000, -0.000000000000000000 ) ) ;
#172 = CARTESIAN_POINT ( 'NONE',  ( 47.50000000000000000, -49.49000000000000909, -2.400000000000006128 ) ) ;
#173 = CARTESIAN_POINT ( 'NONE',  ( 27.50000000000000355, -49.49000000000000909, -5.400000000000006573 ) ) ;
#174 = FACE_OUTER_BOUND ( 'NONE', #804, .T. ) ;
#175 = DIRECTION ( 'NONE',  ( 1.000000000000000000, 0.000000000000000000, 0.000000000000000000 ) ) ;
#176 = DIRECTION ( 'NONE',  ( 0.000000000000000000, -0.000000000000000000, -1.000000000000000000 ) ) ;
#177 = EDGE_LOOP ( 'NONE', ( #466, #147, #82, #665 ) ) ;
#178 = VECTOR ( 'NONE', #564, 1000.000000000000000 ) ;
#179 = DIRECTION ( 'NONE',  ( -1.000000000000000000, 0.000000000000000000, -0.000000000000000000 ) ) ;
#180 = CARTESIAN_POINT ( 'NONE',  ( 2.785675183005621669, 5.313955872172787309, 62.50000000000000000 ) ) ;
#181 = CARTESIAN_POINT ( 'NONE',  ( 39.55000000000001137, -43.49000000000000909, -2.400000000000006128 ) ) ;
#182 = DIRECTION ( 'NONE',  ( 0.000000000000000000, 1.000000000000000000, 0.000000000000000000 ) ) ;
#183 = FACE_OUTER_BOUND ( 'NONE', #130, .T. ) ;
#184 = B_SPLINE_CURVE_WITH_KNOTS ( 'NONE', 3,
 ( #113, #618, #292, #231, #553, #421, #815, #234, #359, #622, #556, #496, #345, #285, #759, #429, #180, #46, #281, #539, #802, #476, #740, #168, #415, #674, #246, #242, #562, #257, #129, #381, #254, #762, #318, #76, #124 ),
 .UNSPECIFIED., .F., .F.,
 ( 4, 1, 1, 1, 1, 1, 1, 1, 1, 1, 1, 1, 1, 1, 1, 1, 1, 1, 1, 1, 1, 1, 1, 1, 1, 1, 1, 1, 1, 1, 1, 1, 1, 1, 4 ),
 ( 0.000000000000000000, 0.02536508872464449810, 0.05053612755872174955, 0.1003618701347641917, 0.1496783382512865135, 0.1985585996384787444, 0.2470636409939346301, 0.2952667862627077477, 0.3432976001428697521, 0.3673747411682081188, 0.3916107887708328850, 0.4161594968373788506, 0.4413019252272763482, 0.4543254831295238660, 0.4678815906748556852, 0.4825385968735472764, 0.4909952784889383692, 0.5100263542411189732, 0.5218055463173286723, 0.5291478474586019942, 0.5422089031537518089, 0.5545686619652151483, 0.5667213781472770773, 0.5908249965976484219, 0.6148423246242851192, 0.6388596526509219276, 0.6629000217420070173, 0.7110052231000469902, 0.7591460896194277552, 0.8073219245187539528, 0.8555015182051326494, 0.9036773531044588470, 0.9518386289141608225, 0.9759228589746615778, 1.000000000000000000 ),
 .UNSPECIFIED. ) ;
#185 = EDGE_CURVE ( 'NONE', #471, #777, #481, .T. ) ;
#186 = APPLICATION_PROTOCOL_DEFINITION ( 'draft international standard', 'automotive_design', 1998, #351 ) ;
#187 = CARTESIAN_POINT ( 'NONE',  ( 27.50000000000000355, -49.49000000000000909, -13.50000000000001243 ) ) ;
#188 = CARTESIAN_POINT ( 'NONE',  ( 47.50000000000000000, -23.49000000000000199, -5.400000000000006573 ) ) ;
#189 = VERTEX_POINT ( 'NONE', #394 ) ;
#190 = EDGE_CURVE ( 'NONE', #483, #754, #601, .T. ) ;
#191 = AXIS2_PLACEMENT_3D ( 'NONE', #81, #652, #153 ) ;
#192 = CARTESIAN_POINT ( 'NONE',  ( 27.50000000000000355, -5.389233913605779414, -5.400000000000002132 ) ) ;
#193 = CARTESIAN_POINT ( 'NONE',  ( 88.37281536315070696, 3.991194959981974044, -62.50000000000000000 ) ) ;
#194 = PLANE ( 'NONE',  #84 ) ;
#195 = ORIENTED_EDGE ( 'NONE', *, *, #380, .F. ) ;
#196 =( NAMED_UNIT ( * ) PLANE_ANGLE_UNIT ( ) SI_UNIT ( $, .RADIAN. ) );
#197 = CARTESIAN_POINT ( 'NONE',  ( 28.33344667526623439, -5.349305439683181618, -5.400000000000002132 ) ) ;
#198 = DIRECTION ( 'NONE',  ( 1.000000000000000000, 0.000000000000000000, 0.000000000000000000 ) ) ;
#199 = CARTESIAN_POINT ( 'NONE',  ( 4.933879714449694198, -4.117884482130438784, -62.50000000000000000 ) ) ;
#200 = CARTESIAN_POINT ( 'NONE',  ( 100.0000000000000142, 0.1900000000000000300, -62.50000000000000000 ) ) ;
#201 = ORIENTED_EDGE ( 'NONE', *, *, #597, .F. ) ;
#202 = CIRCLE ( 'NONE', #263, 2.050000000000003375 ) ;
#203 = AXIS2_PLACEMENT_3D ( 'NONE', #65, #703, #687 ) ;
#204 = CARTESIAN_POINT ( 'NONE',  ( 40.00381152026881182, -4.725051802464462547, 62.50000000000000000 ) ) ;
#205 = CARTESIAN_POINT ( 'NONE',  ( 94.99906958775663668, -0.5441061656459983409, -62.50000000000000000 ) ) ;
#206 = ORIENTED_EDGE ( 'NONE', *, *, #635, .F. ) ;
#207 = EDGE_CURVE ( 'NONE', #305, #563, #782, .T. ) ;
#208 = CARTESIAN_POINT ( 'NONE',  ( 14.99187128226110310, -5.559919603472100569, -62.50000000000000000 ) ) ;
#209 = DIRECTION ( 'NONE',  ( 0.000000000000000000, 0.000000000000000000, 1.000000000000000000 ) ) ;
#210 = VERTEX_POINT ( 'NONE', #78 ) ;
#211 = ORIENTED_EDGE ( 'NONE', *, *, #535, .T. ) ;
#212 = CARTESIAN_POINT ( 'NONE',  ( 50.00395514608335645, -4.039072774436992752, -62.50000000000000000 ) ) ;
#213 = DIRECTION ( 'NONE',  ( -0.000000000000000000, -1.000000000000000000, -0.000000000000000000 ) ) ;
#214 = ORIENTED_EDGE ( 'NONE', *, *, #725, .T. ) ;
#215 = CARTESIAN_POINT ( 'NONE',  ( 24.98392418328137055, 12.45142468844472461, -62.50000000000000000 ) ) ;
#216 = VECTOR ( 'NONE', #608, 1000.000000000000000 ) ;
#217 = CARTESIAN_POINT ( 'NONE',  ( 100.0000000000000142, -0.1900000000000000300, -62.50000000000000000 ) ) ;
#218 = ORIENTED_EDGE ( 'NONE', *, *, #774, .F. ) ;
#219 = ORIENTED_EDGE ( 'NONE', *, *, #156, .F. ) ;
#220 = DIRECTION ( 'NONE',  ( 1.000000000000000000, 0.000000000000000000, 0.000000000000000000 ) ) ;
#221 =( NAMED_UNIT ( * ) SI_UNIT ( $, .STERADIAN. ) SOLID_ANGLE_UNIT ( ) );
#222 = LINE ( 'NONE', #607, #451 ) ;
#223 = DIRECTION ( 'NONE',  ( -0.000000000000000000, 1.000000000000000000, -0.000000000000000000 ) ) ;
#224 = VECTOR ( 'NONE', #198, 1000.000000000000000 ) ;
#225 = VECTOR ( 'NONE', #682, 1000.000000000000000 ) ;
#226 = CARTESIAN_POINT ( 'NONE',  ( 27.50000000000000000, -23.49000000000000199, -5.400000000000006573 ) ) ;
#227 = EDGE_CURVE ( 'NONE', #274, #315, #53, .T. ) ;
#228 = DIRECTION ( 'NONE',  ( -1.000000000000000000, -0.000000000000000000, -0.000000000000000000 ) ) ;
#229 = CARTESIAN_POINT ( 'NONE',  ( 35.45000000000000284, -43.49000000000000909, -5.400000000000009237 ) ) ;
#230 = ORIENTED_EDGE ( 'NONE', *, *, #270, .F. ) ;
#231 = CARTESIAN_POINT ( 'NONE',  ( 88.37281536315070696, 3.991194959981974044, 62.50000000000000000 ) ) ;
#232 = LINE ( 'NONE', #422, #645 ) ;
#233 = CARTESIAN_POINT ( 'NONE',  ( 27.50000000000000355, -49.49000000000000909, -13.50000000000001243 ) ) ;
#234 = CARTESIAN_POINT ( 'NONE',  ( 50.03110401784226724, 11.93379059958662758, 62.50000000000000000 ) ) ;
#235 = ADVANCED_FACE ( 'NONE', ( #731, #719 ), #402, .F. ) ;
#236 = FACE_BOUND ( 'NONE', #695, .T. ) ;
#237 = AXIS2_PLACEMENT_3D ( 'NONE', #352, #98, #604 ) ;
#238 = VERTEX_POINT ( 'NONE', #447 ) ;
#239 = VECTOR ( 'NONE', #411, 1000.000000000000000 ) ;
#240 = DIRECTION ( 'NONE',  ( 0.000000000000000000, 0.000000000000000000, 1.000000000000000000 ) ) ;
#241 = CARTESIAN_POINT ( 'NONE',  ( 100.0000000000000142, 0.1900000000000000300, -62.50000000000000000 ) ) ;
#242 = CARTESIAN_POINT ( 'NONE',  ( 31.66816584505133392, -5.170401077590973671, 62.50000000000000000 ) ) ;
#243 = DIRECTION ( 'NONE',  ( 0.000000000000000000, 1.000000000000000000, 0.000000000000000000 ) ) ;
#244 = CARTESIAN_POINT ( 'NONE',  ( 47.50000000000000000, -4.202282355056864205, -10.50000000000000888 ) ) ;
#245 = ADVANCED_FACE ( 'NONE', ( #456 ), #655, .F. ) ;
#246 = CARTESIAN_POINT ( 'NONE',  ( 25.00269982647426303, -5.527937611761413628, 62.50000000000000000 ) ) ;
#247 = CARTESIAN_POINT ( 'NONE',  ( 27.50000000000000355, -19.49000000000000554, -2.400000000000006128 ) ) ;
#248 = DIRECTION ( 'NONE',  ( 1.000000000000000000, 0.000000000000000000, 0.000000000000000000 ) ) ;
#249 = CARTESIAN_POINT ( 'NONE',  ( 88.37281536315070696, 3.991194959981974044, -62.50000000000000000 ) ) ;
#250 = VERTEX_POINT ( 'NONE', #599 ) ;
#251 = VECTOR ( 'NONE', #453, 1000.000000000000000 ) ;
#252 = LINE ( 'NONE', #247, #126 ) ;
#253 = DIRECTION ( 'NONE',  ( 0.000000000000000000, 0.000000000000000000, 1.000000000000000000 ) ) ;
#254 = CARTESIAN_POINT ( 'NONE',  ( 79.99791733571331065, -1.655862378559980863, 62.50000000000000000 ) ) ;
#255 = ORIENTED_EDGE ( 'NONE', *, *, #596, .T. ) ;
#256 = CARTESIAN_POINT ( 'NONE',  ( 2.814597369828947038, -3.236769207914103497, 62.50000000000000000 ) ) ;
#257 = CARTESIAN_POINT ( 'NONE',  ( 50.00395514608335645, -4.039072774436992752, 62.50000000000000000 ) ) ;
#258 = ADVANCED_FACE ( 'NONE', ( #38 ), #323, .F. ) ;
#259 = CARTESIAN_POINT ( 'NONE',  ( 4.933879714449694198, -4.117884482130438784, 62.50000000000000000 ) ) ;
#260 = CARTESIAN_POINT ( 'NONE',  ( 37.50000000000000711, -43.49000000000000909, -10.50000000000000888 ) ) ;
#261 = EDGE_LOOP ( 'NONE', ( #195, #52, #707, #42 ) ) ;
#262 = VECTOR ( 'NONE', #423, 1000.000000000000000 ) ;
#263 = AXIS2_PLACEMENT_3D ( 'NONE', #428, #559, #248 ) ;
#264 = CARTESIAN_POINT ( 'NONE',  ( 25.00269982647426303, -5.527937611761413628, -62.50000000000000000 ) ) ;
#265 = CARTESIAN_POINT ( 'NONE',  ( 7.480542813441650729, -4.698670083282989296, -62.50000000000000000 ) ) ;
#266 = EDGE_LOOP ( 'NONE', ( #3, #706 ) ) ;
#267 = VERTEX_POINT ( 'NONE', #524 ) ;
#268 = CARTESIAN_POINT ( 'NONE',  ( 19.96796732633822558, 11.77801322551886720, 62.50000000000000000 ) ) ;
#269 = DIRECTION ( 'NONE',  ( 0.000000000000000000, -1.000000000000000000, 1.489033026589533876E-16 ) ) ;
#270 = EDGE_CURVE ( 'NONE', #163, #467, #408, .T. ) ;
#271 = ORIENTED_EDGE ( 'NONE', *, *, #24, .F. ) ;
#272 = PLANE ( 'NONE',  #588 ) ;
#273 = CARTESIAN_POINT ( 'NONE',  ( 10.81796410557560151, -5.201524684972583579, -62.50000000000000000 ) ) ;
#274 = VERTEX_POINT ( 'NONE', #146 ) ;
#275 = CARTESIAN_POINT ( 'NONE',  ( 47.50000000000000000, -49.49000000000000909, -5.400000000000006573 ) ) ;
#276 = VECTOR ( 'NONE', #366, 1000.000000000000000 ) ;
#277 = CARTESIAN_POINT ( 'NONE',  ( 2.814597369828947038, -3.236769207914103497, -62.50000000000000000 ) ) ;
#278 = EDGE_LOOP ( 'NONE', ( #658, #640, #134, #396 ) ) ;
#279 = CARTESIAN_POINT ( 'NONE',  ( 39.55000000000001137, -43.49000000000000909, -62.50000000000000000 ) ) ;
#280 = CARTESIAN_POINT ( 'NONE',  ( 27.50000000000000355, -23.49000000000001265, -10.50000000000001243 ) ) ;
#281 = CARTESIAN_POINT ( 'NONE',  ( -0.6397005551914320964, 0.4121310123930468361, 62.50000000000000000 ) ) ;
#282 = DIRECTION ( 'NONE',  ( -0.000000000000000000, 1.000000000000000000, -1.489033026589533876E-16 ) ) ;
#283 = DIRECTION ( 'NONE',  ( -0.000000000000000000, -0.000000000000000000, -1.000000000000000000 ) ) ;
#284 = ORIENTED_EDGE ( 'NONE', *, *, #156, .T. ) ;
#285 = CARTESIAN_POINT ( 'NONE',  ( 10.76559219212125029, 9.465568190074559851, 62.50000000000000000 ) ) ;
#286 = CARTESIAN_POINT ( 'NONE',  ( 27.50000000000000355, -19.49000000000000554, -2.400000000000006128 ) ) ;
#287 = VERTEX_POINT ( 'NONE', #386 ) ;
#288 = FACE_OUTER_BOUND ( 'NONE', #177, .T. ) ;
#289 = DIRECTION ( 'NONE',  ( 1.000000000000000000, 0.000000000000000000, 0.000000000000000000 ) ) ;
#290 = CARTESIAN_POINT ( 'NONE',  ( 47.50000000000000000, -19.49000000000000554, -5.400000000000006573 ) ) ;
#291 = ORIENTED_EDGE ( 'NONE', *, *, #297, .T. ) ;
#292 = CARTESIAN_POINT ( 'NONE',  ( 95.02089356444169255, 1.910140014546920284, 62.50000000000000000 ) ) ;
#293 = CARTESIAN_POINT ( 'NONE',  ( 39.55000000000001137, -43.49000000000000909, -10.50000000000000888 ) ) ;
#294 = SURFACE_STYLE_FILL_AREA ( #115 ) ;
#295 = DIRECTION ( 'NONE',  ( 0.000000000000000000, 1.000000000000000000, 0.000000000000000000 ) ) ;
#296 = CARTESIAN_POINT ( 'NONE',  ( 47.50000000000000000, -23.49000000000000199, -10.50000000000000533 ) ) ;
#297 = EDGE_CURVE ( 'NONE', #552, #425, #320, .T. ) ;
#298 = CARTESIAN_POINT ( 'NONE',  ( 31.65713829808350255, 12.92271634681727122, 62.50000000000000000 ) ) ;
#299 = CARTESIAN_POINT ( 'NONE',  ( 2.785675183005621669, 5.313955872172787309, -62.50000000000000000 ) ) ;
#300 = AXIS2_PLACEMENT_3D ( 'NONE', #611, #540, #750 ) ;
#301 = PLANE ( 'NONE',  #203 ) ;
#302 = EDGE_CURVE ( 'NONE', #425, #238, #648, .T. ) ;
#303 = LINE ( 'NONE', #187, #480 ) ;
#304 = CARTESIAN_POINT ( 'NONE',  ( 37.50000000000000711, -43.49000000000000909, -62.50000000000000000 ) ) ;
#305 = VERTEX_POINT ( 'NONE', #21 ) ;
#306 = DIRECTION ( 'NONE',  ( -1.000000000000000000, -0.000000000000000000, 0.000000000000000000 ) ) ;
#307 = PLANE ( 'NONE',  #558 ) ;
#308 = FACE_OUTER_BOUND ( 'NONE', #278, .T. ) ;
#309 = VERTEX_POINT ( 'NONE', #474 ) ;
#310 = EDGE_CURVE ( 'NONE', #90, #287, #746, .T. ) ;
#311 = CARTESIAN_POINT ( 'NONE',  ( 27.50000000000000355, -19.49000000000000554, -13.50000000000001243 ) ) ;
#312 = ADVANCED_BREP_SHAPE_REPRESENTATION ( 'NACA 4418 v2', ( #360, #666 ), #582 ) ;
#313 = CARTESIAN_POINT ( 'NONE',  ( 50.03110401784226724, 11.93379059958662758, -62.50000000000000000 ) ) ;
#314 = DIRECTION ( 'NONE',  ( -1.000000000000000000, -0.000000000000000000, 0.000000000000000000 ) ) ;
#315 = VERTEX_POINT ( 'NONE', #229 ) ;
#316 = AXIS2_PLACEMENT_3D ( 'NONE', #354, #810, #817 ) ;
#317 = DIRECTION ( 'NONE',  ( -0.000000000000000000, -1.000000000000000000, 0.000000000000000000 ) ) ;
#318 = CARTESIAN_POINT ( 'NONE',  ( 94.99906958775663668, -0.5441061656459983409, 62.50000000000000000 ) ) ;
#319 = CARTESIAN_POINT ( 'NONE',  ( 4.907252579358429401, 6.765624547652109300, -62.50000000000000000 ) ) ;
#320 = LINE ( 'NONE', #35, #61 ) ;
#321 = ORIENTED_EDGE ( 'NONE', *, *, #107, .T. ) ;
#322 = CARTESIAN_POINT ( 'NONE',  ( -0.6397005551914320964, 0.4121310123930468361, 62.50000000000000000 ) ) ;
#323 = PLANE ( 'NONE',  #166 ) ;
#324 = ORIENTED_EDGE ( 'NONE', *, *, #485, .T. ) ;
#325 = AXIS2_PLACEMENT_3D ( 'NONE', #304, #499, #577 ) ;
#326 = CARTESIAN_POINT ( 'NONE',  ( 2.785675183005621669, 5.313955872172787309, 62.50000000000000000 ) ) ;
#327 = ADVANCED_FACE ( 'NONE', ( #684 ), #342, .T. ) ;
#328 = DIRECTION ( 'NONE',  ( 0.000000000000000000, -1.000000000000000000, 0.000000000000000000 ) ) ;
#329 = EDGE_LOOP ( 'NONE', ( #605, #150 ) ) ;
#330 = CARTESIAN_POINT ( 'NONE',  ( 10.76559219212125029, 9.465568190074559851, -62.50000000000000000 ) ) ;
#331 = DIRECTION ( 'NONE',  ( 0.000000000000000000, 0.000000000000000000, -1.000000000000000000 ) ) ;
#332 = ORIENTED_EDGE ( 'NONE', *, *, #33, .T. ) ;
#333 = EDGE_LOOP ( 'NONE', ( #462, #461, #536, #790 ) ) ;
#334 = FACE_BOUND ( 'NONE', #329, .T. ) ;
#335 = CARTESIAN_POINT ( 'NONE',  ( 98.33318678258247303, -0.3080238052948675032, -62.50000000000000000 ) ) ;
#336 = EDGE_LOOP ( 'NONE', ( #796, #414 ) ) ;
#337 = LINE ( 'NONE', #172, #225 ) ;
#338 = VECTOR ( 'NONE', #282, 1000.000000000000000 ) ;
#339 = SURFACE_STYLE_USAGE ( .BOTH. , #546 ) ;
#340 = CARTESIAN_POINT ( 'NONE',  ( 39.55000000000001137, -43.49000000000000909, -13.50000000000001243 ) ) ;
#341 = CARTESIAN_POINT ( 'NONE',  ( 47.50000000000000000, -0.1900000000000000300, -10.50000000000000888 ) ) ;
#342 = PLANE ( 'NONE',  #39 ) ;
#343 = EDGE_CURVE ( 'NONE', #669, #267, #104, .T. ) ;
#344 = EDGE_LOOP ( 'NONE', ( #457, #55, #783, #284 ) ) ;
#345 = CARTESIAN_POINT ( 'NONE',  ( 14.94319568939515364, 10.72081524236786798, 62.50000000000000000 ) ) ;
#346 = LINE ( 'NONE', #341, #338 ) ;
#347 = DIRECTION ( 'NONE',  ( 0.000000000000000000, 0.000000000000000000, 1.000000000000000000 ) ) ;
#348 = ORIENTED_EDGE ( 'NONE', *, *, #388, .T. ) ;
#349 = DIRECTION ( 'NONE',  ( -0.000000000000000000, -1.000000000000000000, -0.000000000000000000 ) ) ;
#350 = CARTESIAN_POINT ( 'NONE',  ( 37.50000000000000711, -43.49000000000000909, -62.50000000000000000 ) ) ;
#351 = APPLICATION_CONTEXT ( 'automotive_design' ) ;
#352 = CARTESIAN_POINT ( 'NONE',  ( 37.50000000000000711, -43.49000000000000909, -62.50000000000000000 ) ) ;
#353 = CIRCLE ( 'NONE', #12, 2.050000000000003375 ) ;
#354 = CARTESIAN_POINT ( 'NONE',  ( 37.50000000000000711, -43.49000000000000909, -62.50000000000000000 ) ) ;
#355 = EDGE_CURVE ( 'NONE', #358, #669, #413, .T. ) ;
#356 = CARTESIAN_POINT ( 'NONE',  ( 0.000000000000000000, 0.000000000000000000, 0.000000000000000000 ) ) ;
#357 =( NAMED_UNIT ( * ) PLANE_ANGLE_UNIT ( ) SI_UNIT ( $, .RADIAN. ) );
#358 = VERTEX_POINT ( 'NONE', #48 ) ;
#359 = CARTESIAN_POINT ( 'NONE',  ( 40.02034467554577901, 12.82972833958151071, 62.50000000000000000 ) ) ;
#360 = MANIFOLD_SOLID_BREP ( 'Cut-Extrude1', #780 ) ;
#361 = CARTESIAN_POINT ( 'NONE',  ( 47.50000000000000000, -49.49000000000000909, -13.50000000000001243 ) ) ;
#362 = CARTESIAN_POINT ( 'NONE',  ( 50.03110401784226724, 11.93379059958662758, 62.50000000000000000 ) ) ;
#363 = DIRECTION ( 'NONE',  ( 1.000000000000000000, 0.000000000000000000, 0.000000000000000000 ) ) ;
#364 = ORIENTED_EDGE ( 'NONE', *, *, #575, .T. ) ;
#365 = DIRECTION ( 'NONE',  ( -1.000000000000000000, -0.000000000000000000, -0.000000000000000000 ) ) ;
#366 = DIRECTION ( 'NONE',  ( -0.000000000000000000, -0.000000000000000000, 1.000000000000000000 ) ) ;
#367 = VECTOR ( 'NONE', #283, 1000.000000000000000 ) ;
#368 = CARTESIAN_POINT ( 'NONE',  ( 37.50000000000000711, -43.49000000000000909, -2.400000000000006128 ) ) ;
#369 = AXIS2_PLACEMENT_3D ( 'NONE', #68, #182, #693 ) ;
#370 = DIRECTION ( 'NONE',  ( -1.000000000000000000, -0.000000000000000000, -0.000000000000000000 ) ) ;
#371 = CARTESIAN_POINT ( 'NONE',  ( 95.02089356444169255, 1.910140014546920284, 62.50000000000000000 ) ) ;
#372 = EDGE_CURVE ( 'NONE', #492, #425, #109, .T. ) ;
#373 = DIRECTION ( 'NONE',  ( 0.000000000000000000, 0.000000000000000000, -1.000000000000000000 ) ) ;
#374 = EDGE_LOOP ( 'NONE', ( #614, #723, #449, #138 ) ) ;
#375 = DIRECTION ( 'NONE',  ( -1.000000000000000000, 0.000000000000000000, 0.000000000000000000 ) ) ;
#376 = CARTESIAN_POINT ( 'NONE',  ( 60.03866438045672282, 10.51353884684799667, -62.50000000000000000 ) ) ;
#377 = CARTESIAN_POINT ( 'NONE',  ( 40.02034467554577901, 12.82972833958151071, -62.50000000000000000 ) ) ;
#378 = EDGE_LOOP ( 'NONE', ( #720, #154, #724, #578 ) ) ;
#379 = CARTESIAN_POINT ( 'NONE',  ( 35.45000000000000284, -43.49000000000000909, -62.50000000000000000 ) ) ;
#380 = EDGE_CURVE ( 'NONE', #391, #36, #741, .T. ) ;
#381 = CARTESIAN_POINT ( 'NONE',  ( 69.99986908664085661, -2.451783746873517966, 62.50000000000000000 ) ) ;
#382 = VECTOR ( 'NONE', #295, 1000.000000000000000 ) ;
#383 = VECTOR ( 'NONE', #306, 1000.000000000000000 ) ;
#384 = EDGE_CURVE ( 'NONE', #315, #274, #353, .T. ) ;
#385 = CARTESIAN_POINT ( 'NONE',  ( 0.9458054658409633664, -2.013404428835056770, -62.50000000000000000 ) ) ;
#386 = CARTESIAN_POINT ( 'NONE',  ( 100.0000000000000142, 0.1900000000000000300, 62.50000000000000000 ) ) ;
#387 = VERTEX_POINT ( 'NONE', #612 ) ;
#388 = EDGE_CURVE ( 'NONE', #305, #574, #57, .T. ) ;
#389 = CARTESIAN_POINT ( 'NONE',  ( -0.6397005551914320964, 0.4121310123930468361, -62.50000000000000000 ) ) ;
#390 = CARTESIAN_POINT ( 'NONE',  ( 50.00395514608335645, -4.039072774436992752, -62.50000000000000000 ) ) ;
#391 = VERTEX_POINT ( 'NONE', #555 ) ;
#392 = EDGE_CURVE ( 'NONE', #250, #358, #162, .T. ) ;
#393 = CARTESIAN_POINT ( 'NONE',  ( 50.00395514608335645, -4.039072774436992752, 62.50000000000000000 ) ) ;
#394 = CARTESIAN_POINT ( 'NONE',  ( 35.45000000000000284, -43.49000000000000909, -2.400000000000006128 ) ) ;
#395 = VERTEX_POINT ( 'NONE', #668 ) ;
#396 = ORIENTED_EDGE ( 'NONE', *, *, #207, .F. ) ;
#397 = VECTOR ( 'NONE', #676, 1000.000000000000000 ) ;
#398 = CARTESIAN_POINT ( 'NONE',  ( 47.50000000000000000, -4.202282355056864205, -5.400000000000006573 ) ) ;
#399 = CARTESIAN_POINT ( 'NONE',  ( 47.50000000000000000, -0.1900000000000000300, -10.50000000000000888 ) ) ;
#400 = ORIENTED_EDGE ( 'NONE', *, *, #302, .F. ) ;
#401 = CARTESIAN_POINT ( 'NONE',  ( 19.96796732633822558, 11.77801322551886720, -62.50000000000000000 ) ) ;
#402 = PLANE ( 'NONE',  #191 ) ;
#403 = EDGE_LOOP ( 'NONE', ( #255, #102, #22, #159 ) ) ;
#404 = EDGE_LOOP ( 'NONE', ( #609, #525, #143, #613 ) ) ;
#405 = DIRECTION ( 'NONE',  ( -0.000000000000000000, -1.000000000000000000, 0.000000000000000000 ) ) ;
#406 = DIRECTION ( 'NONE',  ( -0.000000000000000000, -1.000000000000000000, -0.000000000000000000 ) ) ;
#407 = ADVANCED_FACE ( 'NONE', ( #617 ), #420, .F. ) ;
#408 = B_SPLINE_CURVE_WITH_KNOTS ( 'NONE', 3,
 ( #31, #89, #590, #798, #789, #142 ),
 .UNSPECIFIED., .F., .F.,
 ( 4, 1, 1, 4 ),
 ( 0.6508776174064548892, 0.6629000217420070173, 0.7110052231000469902, 0.7471069350984819168 ),
 .UNSPECIFIED. ) ;
#409 = CIRCLE ( 'NONE', #755, 2.050000000000003375 ) ;
#410 = PRODUCT_DEFINITION ( 'UNKNOWN', '', #445, #778 ) ;
#411 = DIRECTION ( 'NONE',  ( -0.000000000000000000, -0.000000000000000000, 1.000000000000000000 ) ) ;
#412 = VECTOR ( 'NONE', #800, 1000.000000000000000 ) ;
#413 = LINE ( 'NONE', #45, #262 ) ;
#414 = ORIENTED_EDGE ( 'NONE', *, *, #96, .F. ) ;
#415 = CARTESIAN_POINT ( 'NONE',  ( 14.99187128226110310, -5.559919603472100569, 62.50000000000000000 ) ) ;
#416 = LINE ( 'NONE', #812, #239 ) ;
#417 = EDGE_LOOP ( 'NONE', ( #86, #218, #219, #151, #749, #500, #636, #291, #752, #271, #158, #6 ) ) ;
#418 = CARTESIAN_POINT ( 'NONE',  ( 27.50000000000000000, -23.49000000000000199, -10.50000000000000533 ) ) ;
#419 = DIRECTION ( 'NONE',  ( 0.000000000000000000, 0.000000000000000000, 1.000000000000000000 ) ) ;
#420 = CYLINDRICAL_SURFACE ( 'NONE', #237, 2.050000000000003375 ) ;
#421 = CARTESIAN_POINT ( 'NONE',  ( 70.04458865540020440, 8.613647635250398338, 62.50000000000000000 ) ) ;
#422 = CARTESIAN_POINT ( 'NONE',  ( 47.50000000000000000, -19.49000000000000554, -13.50000000000001243 ) ) ;
#423 = DIRECTION ( 'NONE',  ( 1.000000000000000000, 0.000000000000000000, 0.000000000000000000 ) ) ;
#424 = VECTOR ( 'NONE', #111, 1000.000000000000000 ) ;
#425 = VERTEX_POINT ( 'NONE', #290 ) ;
#426 = DIRECTION ( 'NONE',  ( 0.000000000000000000, 1.000000000000000000, 0.000000000000000000 ) ) ;
#427 = APPLICATION_PROTOCOL_DEFINITION ( 'draft international standard', 'automotive_design', 1998, #532 ) ;
#428 = CARTESIAN_POINT ( 'NONE',  ( 37.50000000000000711, -43.49000000000000909, -10.50000000000000888 ) ) ;
#429 = CARTESIAN_POINT ( 'NONE',  ( 4.907252579358429401, 6.765624547652109300, 62.50000000000000000 ) ) ;
#430 = ORIENTED_EDGE ( 'NONE', *, *, #813, .F. ) ;
#431 = LINE ( 'NONE', #296, #178 ) ;
#432 = CARTESIAN_POINT ( 'NONE',  ( 35.45000000000000284, -43.49000000000000909, -10.50000000000000888 ) ) ;
#433 = CARTESIAN_POINT ( 'NONE',  ( 0.6785874562290645784, 3.334938285145800485, -62.50000000000000000 ) ) ;
#434 = VERTEX_POINT ( 'NONE', #280 ) ;
#435 = DIRECTION ( 'NONE',  ( -0.000000000000000000, -0.000000000000000000, -1.000000000000000000 ) ) ;
#436 = CARTESIAN_POINT ( 'NONE',  ( 37.50000000000000711, -43.49000000000000909, -2.400000000000006128 ) ) ;
#437 = CARTESIAN_POINT ( 'NONE',  ( 27.50000000000000355, -19.49000000000000554, -13.50000000000001243 ) ) ;
#438 = CARTESIAN_POINT ( 'NONE',  ( 70.04458865540020440, 8.613647635250398338, 62.50000000000000000 ) ) ;
#439 = CARTESIAN_POINT ( 'NONE',  ( 27.50000000000000000, -5.389233913605779414, -10.50000000000000888 ) ) ;
#440 = ORIENTED_EDGE ( 'NONE', *, *, #51, .F. ) ;
#441 = ADVANCED_FACE ( 'NONE', ( #551, #490 ), #751, .T. ) ;
#442 = CARTESIAN_POINT ( 'NONE',  ( 100.0000000000000142, 0.1900000000000000300, 62.50000000000000000 ) ) ;
#443 = DIRECTION ( 'NONE',  ( -1.000000000000000000, 0.000000000000000000, 0.000000000000000000 ) ) ;
#444 = EDGE_CURVE ( 'NONE', #387, #358, #66, .T. ) ;
#445 = PRODUCT_DEFINITION_FORMATION_WITH_SPECIFIED_SOURCE ( 'ANY', '', #791, .NOT_KNOWN. ) ;
#446 = CARTESIAN_POINT ( 'NONE',  ( 69.99986908664085661, -2.451783746873517966, 62.50000000000000000 ) ) ;
#447 = CARTESIAN_POINT ( 'NONE',  ( 27.50000000000000355, -19.49000000000000554, -5.400000000000006573 ) ) ;
#448 = AXIS2_PLACEMENT_3D ( 'NONE', #260, #209, #785 ) ;
#449 = ORIENTED_EDGE ( 'NONE', *, *, #635, .T. ) ;
#450 = UNCERTAINTY_MEASURE_WITH_UNIT (LENGTH_MEASURE( 1.000000000000000082E-05 ), #470, 'distance_accuracy_value', 'NONE');
#451 = VECTOR ( 'NONE', #223, 1000.000000000000000 ) ;
#452 = CARTESIAN_POINT ( 'NONE',  ( 20.00025928547760756, -5.568030066590686111, 62.50000000000000000 ) ) ;
#453 = DIRECTION ( 'NONE',  ( 1.000000000000000000, 0.000000000000000000, 0.000000000000000000 ) ) ;
#454 = EDGE_LOOP ( 'NONE', ( #364, #32 ) ) ;
#455 = CARTESIAN_POINT ( 'NONE',  ( 60.00003877393622531, -3.237206338330523181, -62.50000000000000000 ) ) ;
#456 = FACE_OUTER_BOUND ( 'NONE', #374, .T. ) ;
#457 = ORIENTED_EDGE ( 'NONE', *, *, #107, .F. ) ;
#458 = ORIENTED_EDGE ( 'NONE', *, *, #392, .T. ) ;
#459 = CARTESIAN_POINT ( 'NONE',  ( 60.00003877393622531, -3.237206338330523181, 62.50000000000000000 ) ) ;
#460 = CARTESIAN_POINT ( 'NONE',  ( 27.50000000000000355, -19.49000000000000554, -5.400000000000006573 ) ) ;
#461 = ORIENTED_EDGE ( 'NONE', *, *, #343, .F. ) ;
#462 = ORIENTED_EDGE ( 'NONE', *, *, #632, .F. ) ;
#463 = VECTOR ( 'NONE', #406, 1000.000000000000000 ) ;
#464 = CARTESIAN_POINT ( 'NONE',  ( 31.65713829808350255, 12.92271634681727122, -62.50000000000000000 ) ) ;
#465 = CARTESIAN_POINT ( 'NONE',  ( 37.50000000000000711, -43.49000000000000909, -5.400000000000009237 ) ) ;
#466 = ORIENTED_EDGE ( 'NONE', *, *, #69, .F. ) ;
#467 = VERTEX_POINT ( 'NONE', #244 ) ;
#468 = LINE ( 'NONE', #734, #530 ) ;
#469 = ADVANCED_FACE ( 'NONE', ( #8 ), #307, .T. ) ;
#470 =( LENGTH_UNIT ( ) NAMED_UNIT ( * ) SI_UNIT ( .MILLI., .METRE. ) );
#471 = VERTEX_POINT ( 'NONE', #241 ) ;
#472 = EDGE_CURVE ( 'NONE', #754, #483, #202, .T. ) ;
#473 = CARTESIAN_POINT ( 'NONE',  ( 27.50000000000000355, -19.49000000000000554, -2.400000000000006128 ) ) ;
#474 = CARTESIAN_POINT ( 'NONE',  ( 47.50000000000000000, -49.49000000000000909, -2.400000000000006128 ) ) ;
#475 = ORIENTED_EDGE ( 'NONE', *, *, #96, .T. ) ;
#476 = CARTESIAN_POINT ( 'NONE',  ( 4.933879714449694198, -4.117884482130438784, 62.50000000000000000 ) ) ;
#477 = EDGE_CURVE ( 'NONE', #391, #483, #1, .T. ) ;
#478 = VECTOR ( 'NONE', #314, 1000.000000000000000 ) ;
#479 = CARTESIAN_POINT ( 'NONE',  ( 47.50000000000000000, -23.49000000000000199, -5.400000000000006573 ) ) ;
#480 = VECTOR ( 'NONE', #317, 1000.000000000000000 ) ;
#481 = B_SPLINE_CURVE_WITH_KNOTS ( 'NONE', 3,
 ( #200, #9, #689, #249, #705, #709, #573, #770, #377, #639, #60, #506, #70, #14, #137, #626, #299, #433, #694, #714, #277, #793, #265, #273, #661, #93, #515, #722, #149, #390, #519, #157, #664, #727, #205, #335, #217 ),
 .UNSPECIFIED., .F., .F.,
 ( 4, 1, 1, 1, 1, 1, 1, 1, 1, 1, 1, 1, 1, 1, 1, 1, 1, 1, 1, 1, 1, 1, 1, 1, 1, 1, 1, 1, 1, 1, 1, 1, 1, 1, 4 ),
 ( 0.000000000000000000, 0.02536508872464449810, 0.05053612755872174955, 0.1003618701347641917, 0.1496783382512865135, 0.1985585996384787444, 0.2470636409939346301, 0.2952667862627077477, 0.3432976001428697521, 0.3673747411682081188, 0.3916107887708328850, 0.4161594968373788506, 0.4413019252272763482, 0.4543254831295238660, 0.4678815906748556852, 0.4825385968735472764, 0.4909952784889383692, 0.5100263542411189732, 0.5218055463173286723, 0.5291478474586019942, 0.5422089031537518089, 0.5545686619652151483, 0.5667213781472770773, 0.5908249965976484219, 0.6148423246242851192, 0.6388596526509219276, 0.6629000217420070173, 0.7110052231000469902, 0.7591460896194277552, 0.8073219245187539528, 0.8555015182051326494, 0.9036773531044588470, 0.9518386289141608225, 0.9759228589746615778, 1.000000000000000000 ),
 .UNSPECIFIED. ) ;
#482 = PRESENTATION_STYLE_ASSIGNMENT (( #339 ) ) ;
#483 = VERTEX_POINT ( 'NONE', #432 ) ;
#484 = CYLINDRICAL_SURFACE ( 'NONE', #316, 2.050000000000003375 ) ;
#485 = EDGE_CURVE ( 'NONE', #287, #471, #502, .T. ) ;
#486 = DIRECTION ( 'NONE',  ( 0.000000000000000000, -0.000000000000000000, 1.000000000000000000 ) ) ;
#487 = CARTESIAN_POINT ( 'NONE',  ( 27.50000000000000355, -49.49000000000000909, -13.50000000000001243 ) ) ;
#488 = EDGE_LOOP ( 'NONE', ( #673, #28, #649, #581 ) ) ;
#489 = LINE ( 'NONE', #279, #602 ) ;
#490 = FACE_OUTER_BOUND ( 'NONE', #333, .T. ) ;
#491 = ORIENTED_EDGE ( 'NONE', *, *, #51, .T. ) ;
#492 = VERTEX_POINT ( 'NONE', #4 ) ;
#493 = PRODUCT_CONTEXT ( 'NONE', #351, 'mechanical' ) ;
#494 = CARTESIAN_POINT ( 'NONE',  ( 47.50000000000000000, -4.202282355056864205, -5.400000000000006573 ) ) ;
#495 = VECTOR ( 'NONE', #435, 1000.000000000000000 ) ;
#496 = CARTESIAN_POINT ( 'NONE',  ( 19.96796732633822558, 11.77801322551886720, 62.50000000000000000 ) ) ;
#497 = CARTESIAN_POINT ( 'NONE',  ( 100.0000000000000142, 0.1900000000000000300, 62.50000000000000000 ) ) ;
#498 = FACE_OUTER_BOUND ( 'NONE', #404, .T. ) ;
#499 = DIRECTION ( 'NONE',  ( -0.000000000000000000, -0.000000000000000000, 1.000000000000000000 ) ) ;
#500 = ORIENTED_EDGE ( 'NONE', *, *, #624, .T. ) ;
#501 = LINE ( 'NONE', #697, #742 ) ;
#502 = LINE ( 'NONE', #442, #495 ) ;
#503 = DIRECTION ( 'NONE',  ( 0.000000000000000000, 0.000000000000000000, 1.000000000000000000 ) ) ;
#504 = ORIENTED_EDGE ( 'NONE', *, *, #696, .T. ) ;
#505 = CARTESIAN_POINT ( 'NONE',  ( 100.0000000000000142, 0.1900000000000000300, 62.50000000000000000 ) ) ;
#506 = CARTESIAN_POINT ( 'NONE',  ( 19.96796732633822558, 11.77801322551886720, -62.50000000000000000 ) ) ;
#507 = DIRECTION ( 'NONE',  ( 0.000000000000000000, 0.000000000000000000, 1.000000000000000000 ) ) ;
#508 = LINE ( 'NONE', #379, #40 ) ;
#509 = EDGE_CURVE ( 'NONE', #467, #552, #771, .T. ) ;
#510 = CARTESIAN_POINT ( 'NONE',  ( 27.50000000000000355, -19.49000000000000554, -10.50000000000001243 ) ) ;
#511 = ORIENTED_EDGE ( 'NONE', *, *, #557, .F. ) ;
#512 = CARTESIAN_POINT ( 'NONE',  ( 2.814597369828947038, -3.236769207914103497, -62.50000000000000000 ) ) ;
#513 = FACE_BOUND ( 'NONE', #454, .T. ) ;
#514 = CARTESIAN_POINT ( 'NONE',  ( 10.81796410557560151, -5.201524684972583579, -62.50000000000000000 ) ) ;
#515 = CARTESIAN_POINT ( 'NONE',  ( 25.00269982647426303, -5.527937611761413628, -62.50000000000000000 ) ) ;
#516 = ORIENTED_EDGE ( 'NONE', *, *, #297, .F. ) ;
#517 = VECTOR ( 'NONE', #365, 1000.000000000000000 ) ;
#518 = CARTESIAN_POINT ( 'NONE',  ( 14.94319568939515364, 10.72081524236786798, -62.50000000000000000 ) ) ;
#519 = CARTESIAN_POINT ( 'NONE',  ( 60.00003877393622531, -3.237206338330523181, -62.50000000000000000 ) ) ;
#520 = B_SPLINE_SURFACE_WITH_KNOTS ( 'NONE', 3, 1, ( 
 ( #505, #699 ),
 ( #758, #128 ),
 ( #371, #769 ),
 ( #688, #193 ),
 ( #638, #118 ),
 ( #438, #704 ),
 ( #132, #376 ),
 ( #362, #313 ),
 ( #625, #59 ),
 ( #298, #464 ),
 ( #779, #215 ),
 ( #268, #401 ),
 ( #576, #518 ),
 ( #663, #330 ),
 ( #775, #650 ),
 ( #16, #319 ),
 ( #326, #92 ),
 ( #647, #579 ),
 ( #322, #389 ),
 ( #784, #385 ),
 ( #256, #512 ),
 ( #259, #199 ),
 ( #589, #20 ),
 ( #30, #514 ),
 ( #592, #208 ),
 ( #452, #717 ),
 ( #523, #264 ),
 ( #83, #23 ),
 ( #204, #788 ),
 ( #393, #212 ),
 ( #459, #455 ),
 ( #446, #654 ),
 ( #711, #659 ),
 ( #726, #145 ),
 ( #730, #80 ),
 ( #583, #152 ),
 ( #141, #34 ) ),
 .UNSPECIFIED., .F., .F., .F.,
 ( 4, 1, 1, 1, 1, 1, 1, 1, 1, 1, 1, 1, 1, 1, 1, 1, 1, 1, 1, 1, 1, 1, 1, 1, 1, 1, 1, 1, 1, 1, 1, 1, 1, 1, 4 ),
 ( 2, 2 ),
 ( 0.000000000000000000, 0.02536508872464449810, 0.05053612755872174955, 0.1003618701347641917, 0.1496783382512865135, 0.1985585996384787444, 0.2470636409939346301, 0.2952667862627077477, 0.3432976001428697521, 0.3673747411682081188, 0.3916107887708328850, 0.4161594968373788506, 0.4413019252272763482, 0.4543254831295238660, 0.4678815906748556852, 0.4825385968735472764, 0.4909952784889383692, 0.5100263542411189732, 0.5218055463173286723, 0.5291478474586019942, 0.5422089031537518089, 0.5545686619652151483, 0.5667213781472770773, 0.5908249965976484219, 0.6148423246242851192, 0.6388596526509219276, 0.6629000217420070173, 0.7110052231000469902, 0.7591460896194277552, 0.8073219245187539528, 0.8555015182051326494, 0.9036773531044588470, 0.9518386289141608225, 0.9759228589746615778, 1.000000000000000000 ),
 ( 0.000000000000000000, 1.000000000000000000 ),
 .UNSPECIFIED. ) ;
#521 = ORIENTED_EDGE ( 'NONE', *, *, #535, .F. ) ;
#522 = ORIENTED_EDGE ( 'NONE', *, *, #24, .T. ) ;
#523 = CARTESIAN_POINT ( 'NONE',  ( 25.00269982647426303, -5.527937611761413628, 62.50000000000000000 ) ) ;
#524 = CARTESIAN_POINT ( 'NONE',  ( 47.50000000000000000, -23.49000000000000199, -5.400000000000006573 ) ) ;
#525 = ORIENTED_EDGE ( 'NONE', *, *, #569, .F. ) ;
#526 = DIRECTION ( 'NONE',  ( -0.000000000000000000, -0.000000000000000000, -1.000000000000000000 ) ) ;
#527 = ORIENTED_EDGE ( 'NONE', *, *, #596, .F. ) ;
#528 = VECTOR ( 'NONE', #570, 1000.000000000000000 ) ;
#529 = EDGE_CURVE ( 'NONE', #552, #729, #88, .T. ) ;
#530 = VECTOR ( 'NONE', #405, 1000.000000000000000 ) ;
#531 = LINE ( 'NONE', #797, #74 ) ;
#532 = APPLICATION_CONTEXT ( 'automotive_design' ) ;
#533 = ADVANCED_FACE ( 'NONE', ( #498 ), #633, .F. ) ;
#534 = DIRECTION ( 'NONE',  ( 0.000000000000000000, -0.000000000000000000, -1.000000000000000000 ) ) ;
#535 = EDGE_CURVE ( 'NONE', #315, #189, #508, .T. ) ;
#536 = ORIENTED_EDGE ( 'NONE', *, *, #355, .F. ) ;
#537 = CARTESIAN_POINT ( 'NONE',  ( 27.50000000000000000, -0.1900000000000000300, -10.50000000000000888 ) ) ;
#538 = CARTESIAN_POINT ( 'NONE',  ( 0.000000000000000000, 0.000000000000000000, -5.400000000000006573 ) ) ;
#539 = CARTESIAN_POINT ( 'NONE',  ( 0.9458054658409633664, -2.013404428835056770, 62.50000000000000000 ) ) ;
#540 = DIRECTION ( 'NONE',  ( 0.000000000000000000, 0.000000000000000000, 1.000000000000000000 ) ) ;
#541 = EDGE_CURVE ( 'NONE', #210, #305, #303, .T. ) ;
#542 = DIRECTION ( 'NONE',  ( 0.000000000000000000, 0.000000000000000000, -1.000000000000000000 ) ) ;
#543 = LINE ( 'NONE', #226, #681 ) ;
#544 = PRESENTATION_LAYER_ASSIGNMENT (  '', '', ( #728 ) ) ;
#545 = FACE_OUTER_BOUND ( 'NONE', #261, .T. ) ;
#546 = SURFACE_SIDE_STYLE ('',( #294 ) ) ;
#547 = VERTEX_POINT ( 'NONE', #816 ) ;
#548 = CARTESIAN_POINT ( 'NONE',  ( 27.50000000000000355, -49.49000000000000909, -2.400000000000006128 ) ) ;
#549 = ADVANCED_FACE ( 'NONE', ( #764, #236 ), #520, .F. ) ;
#550 = CARTESIAN_POINT ( 'NONE',  ( 37.50000000000000711, -43.49000000000000909, -13.50000000000001243 ) ) ;
#551 = FACE_BOUND ( 'NONE', #266, .T. ) ;
#552 = VERTEX_POINT ( 'NONE', #398 ) ;
#553 = CARTESIAN_POINT ( 'NONE',  ( 80.05033206481375885, 6.275081207657296822, 62.50000000000000000 ) ) ;
#554 =( LENGTH_UNIT ( ) NAMED_UNIT ( * ) SI_UNIT ( .MILLI., .METRE. ) );
#555 = CARTESIAN_POINT ( 'NONE',  ( 35.45000000000000284, -43.49000000000000909, -13.50000000000001243 ) ) ;
#556 = CARTESIAN_POINT ( 'NONE',  ( 24.98392418328137055, 12.45142468844472461, 62.50000000000000000 ) ) ;
#557 = EDGE_CURVE ( 'NONE', #90, #777, #721, .T. ) ;
#558 = AXIS2_PLACEMENT_3D ( 'NONE', #568, #179, #565 ) ;
#559 = DIRECTION ( 'NONE',  ( 0.000000000000000000, 0.000000000000000000, 1.000000000000000000 ) ) ;
#560 = AXIS2_PLACEMENT_3D ( 'NONE', #743, #169, #486 ) ;
#561 = ADVANCED_FACE ( 'NONE', ( #87 ), #272, .T. ) ;
#562 = CARTESIAN_POINT ( 'NONE',  ( 40.00381152026881182, -4.725051802464462547, 62.50000000000000000 ) ) ;
#563 = VERTEX_POINT ( 'NONE', #108 ) ;
#564 = DIRECTION ( 'NONE',  ( -0.000000000000000000, -0.000000000000000000, -1.000000000000000000 ) ) ;
#565 = DIRECTION ( 'NONE',  ( -0.000000000000000000, 0.000000000000000000, 1.000000000000000000 ) ) ;
#566 = PLANE ( 'NONE',  #818 ) ;
#567 = SHAPE_DEFINITION_REPRESENTATION ( #718, #312 ) ;
#568 = CARTESIAN_POINT ( 'NONE',  ( 27.50000000000000000, 0.000000000000000000, 0.000000000000000000 ) ) ;
#569 = EDGE_CURVE ( 'NONE', #309, #669, #337, .T. ) ;
#570 = DIRECTION ( 'NONE',  ( -0.000000000000000000, -0.000000000000000000, 1.000000000000000000 ) ) ;
#571 = FACE_OUTER_BOUND ( 'NONE', #403, .T. ) ;
#572 = DIRECTION ( 'NONE',  ( -0.000000000000000000, -0.000000000000000000, -1.000000000000000000 ) ) ;
#573 = CARTESIAN_POINT ( 'NONE',  ( 60.03866438045672282, 10.51353884684799667, -62.50000000000000000 ) ) ;
#574 = VERTEX_POINT ( 'NONE', #54 ) ;
#575 = EDGE_CURVE ( 'NONE', #36, #391, #756, .T. ) ;
#576 = CARTESIAN_POINT ( 'NONE',  ( 14.94319568939515364, 10.72081524236786798, 62.50000000000000000 ) ) ;
#577 = DIRECTION ( 'NONE',  ( 1.000000000000000000, 0.000000000000000000, 0.000000000000000000 ) ) ;
#578 = ORIENTED_EDGE ( 'NONE', *, *, #372, .T. ) ;
#579 = CARTESIAN_POINT ( 'NONE',  ( 0.6785874562290645784, 3.334938285145800485, -62.50000000000000000 ) ) ;
#580 = DIRECTION ( 'NONE',  ( -1.000000000000000000, -0.000000000000000000, -0.000000000000000000 ) ) ;
#581 = ORIENTED_EDGE ( 'NONE', *, *, #472, .T. ) ;
#582 =( GEOMETRIC_REPRESENTATION_CONTEXT ( 3 ) GLOBAL_UNCERTAINTY_ASSIGNED_CONTEXT ( ( #144 ) ) GLOBAL_UNIT_ASSIGNED_CONTEXT ( ( #554, #196, #637 ) ) REPRESENTATION_CONTEXT ( 'NONE', 'WORKASPACE' ) );
#583 = CARTESIAN_POINT ( 'NONE',  ( 98.33318678258247303, -0.3080238052948675032, 62.50000000000000000 ) ) ;
#584 = CARTESIAN_POINT ( 'NONE',  ( 27.50000000000000355, -49.49000000000000909, -13.50000000000001243 ) ) ;
#585 =( GEOMETRIC_REPRESENTATION_CONTEXT ( 3 ) GLOBAL_UNCERTAINTY_ASSIGNED_CONTEXT ( ( #450 ) ) GLOBAL_UNIT_ASSIGNED_CONTEXT ( ( #470, #357, #221 ) ) REPRESENTATION_CONTEXT ( 'NONE', 'WORKASPACE' ) );
#586 = ORIENTED_EDGE ( 'NONE', *, *, #185, .F. ) ;
#587 = ORIENTED_EDGE ( 'NONE', *, *, #696, .F. ) ;
#588 = AXIS2_PLACEMENT_3D ( 'NONE', #792, #155, #77 ) ;
#589 = CARTESIAN_POINT ( 'NONE',  ( 7.480542813441650729, -4.698670083282989296, 62.50000000000000000 ) ) ;
#590 = CARTESIAN_POINT ( 'NONE',  ( 32.50099038008684715, -5.125905687859095394, -10.50000000000000888 ) ) ;
#591 = ORIENTED_EDGE ( 'NONE', *, *, #73, .T. ) ;
#592 = CARTESIAN_POINT ( 'NONE',  ( 14.99187128226110310, -5.559919603472100569, 62.50000000000000000 ) ) ;
#593 = DIRECTION ( 'NONE',  ( -0.000000000000000000, 1.489033026589533876E-16, 1.000000000000000000 ) ) ;
#594 = ADVANCED_FACE ( 'NONE', ( #603 ), #50, .F. ) ;
#595 = VERTEX_POINT ( 'NONE', #807 ) ;
#596 = EDGE_CURVE ( 'NONE', #777, #471, #222, .T. ) ;
#597 = EDGE_CURVE ( 'NONE', #274, #809, #489, .T. ) ;
#598 = PLANE ( 'NONE',  #300 ) ;
#599 = CARTESIAN_POINT ( 'NONE',  ( 27.50000000000000000, -23.49000000000000199, -5.400000000000006573 ) ) ;
#600 = VERTEX_POINT ( 'NONE', #473 ) ;
#601 = CIRCLE ( 'NONE', #448, 2.050000000000003375 ) ;
#602 = VECTOR ( 'NONE', #747, 1000.000000000000000 ) ;
#603 = FACE_OUTER_BOUND ( 'NONE', #417, .T. ) ;
#604 = DIRECTION ( 'NONE',  ( 1.000000000000000000, 0.000000000000000000, 0.000000000000000000 ) ) ;
#605 = ORIENTED_EDGE ( 'NONE', *, *, #472, .F. ) ;
#606 = DIRECTION ( 'NONE',  ( -0.000000000000000000, -0.000000000000000000, -1.000000000000000000 ) ) ;
#607 = CARTESIAN_POINT ( 'NONE',  ( 100.0000000000000142, 0.1900000000000000300, -62.50000000000000000 ) ) ;
#608 = DIRECTION ( 'NONE',  ( 0.000000000000000000, 1.000000000000000000, 0.000000000000000000 ) ) ;
#609 = ORIENTED_EDGE ( 'NONE', *, *, #355, .T. ) ;
#610 = ORIENTED_EDGE ( 'NONE', *, *, #310, .T. ) ;
#611 = CARTESIAN_POINT ( 'NONE',  ( 0.000000000000000000, 0.000000000000000000, -10.50000000000001243 ) ) ;
#612 = CARTESIAN_POINT ( 'NONE',  ( 27.50000000000000355, -49.49000000000000909, -2.400000000000006128 ) ) ;
#613 = ORIENTED_EDGE ( 'NONE', *, *, #444, .T. ) ;
#614 = ORIENTED_EDGE ( 'NONE', *, *, #624, .F. ) ;
#615 = VECTOR ( 'NONE', #606, 1000.000000000000000 ) ;
#616 = DIRECTION ( 'NONE',  ( -0.000000000000000000, -0.000000000000000000, 1.000000000000000000 ) ) ;
#617 = FACE_OUTER_BOUND ( 'NONE', #488, .T. ) ;
#618 = CARTESIAN_POINT ( 'NONE',  ( 98.33605464191936107, 0.7648459145226604861, 62.50000000000000000 ) ) ;
#619 = DIRECTION ( 'NONE',  ( 1.000000000000000000, 0.000000000000000000, 0.000000000000000000 ) ) ;
#620 = DIRECTION ( 'NONE',  ( -1.000000000000000000, 0.000000000000000000, 0.000000000000000000 ) ) ;
#621 = ORIENTED_EDGE ( 'NONE', *, *, #597, .T. ) ;
#622 = CARTESIAN_POINT ( 'NONE',  ( 31.65713829808350255, 12.92271634681727122, 62.50000000000000000 ) ) ;
#623 = EDGE_CURVE ( 'NONE', #395, #595, #232, .T. ) ;
#624 = EDGE_CURVE ( 'NONE', #595, #467, #346, .T. ) ;
#625 = CARTESIAN_POINT ( 'NONE',  ( 40.02034467554577901, 12.82972833958151071, 62.50000000000000000 ) ) ;
#626 = CARTESIAN_POINT ( 'NONE',  ( 4.907252579358429401, 6.765624547652109300, -62.50000000000000000 ) ) ;
#627 = ORIENTED_EDGE ( 'NONE', *, *, #227, .T. ) ;
#628 = CARTESIAN_POINT ( 'NONE',  ( 45.00080864163926719, -4.380690088526363546, -5.400000000000002132 ) ) ;
#629 = VECTOR ( 'NONE', #760, 1000.000000000000000 ) ;
#630 = LINE ( 'NONE', #510, #478 ) ;
#631 = ORIENTED_EDGE ( 'NONE', *, *, #444, .F. ) ;
#632 = EDGE_CURVE ( 'NONE', #267, #250, #44, .T. ) ;
#633 = PLANE ( 'NONE',  #369 ) ;
#634 = LINE ( 'NONE', #67, #528 ) ;
#635 = EDGE_CURVE ( 'NONE', #547, #163, #737, .T. ) ;
#636 = ORIENTED_EDGE ( 'NONE', *, *, #509, .T. ) ;
#637 =( NAMED_UNIT ( * ) SI_UNIT ( $, .STERADIAN. ) SOLID_ANGLE_UNIT ( ) );
#638 = CARTESIAN_POINT ( 'NONE',  ( 80.05033206481375885, 6.275081207657296822, 62.50000000000000000 ) ) ;
#639 = CARTESIAN_POINT ( 'NONE',  ( 31.65713829808350255, 12.92271634681727122, -62.50000000000000000 ) ) ;
#640 = ORIENTED_EDGE ( 'NONE', *, *, #732, .F. ) ;
#641 = ADVANCED_FACE ( 'NONE', ( #334, #164 ), #598, .T. ) ;
#642 = ORIENTED_EDGE ( 'NONE', *, *, #15, .T. ) ;
#643 = DIRECTION ( 'NONE',  ( -0.000000000000000000, -0.000000000000000000, 1.000000000000000000 ) ) ;
#644 = CIRCLE ( 'NONE', #768, 2.050000000000003375 ) ;
#645 = VECTOR ( 'NONE', #47, 1000.000000000000000 ) ;
#646 = LINE ( 'NONE', #133, #224 ) ;
#647 = CARTESIAN_POINT ( 'NONE',  ( 0.6785874562290645784, 3.334938285145800485, 62.50000000000000000 ) ) ;
#648 = LINE ( 'NONE', #460, #795 ) ;
#649 = ORIENTED_EDGE ( 'NONE', *, *, #660, .T. ) ;
#650 = CARTESIAN_POINT ( 'NONE',  ( 7.450393807160859083, 8.077448128534136629, -62.50000000000000000 ) ) ;
#651 = ADVANCED_FACE ( 'NONE', ( #37 ), #161, .F. ) ;
#652 = DIRECTION ( 'NONE',  ( 0.000000000000000000, 0.000000000000000000, -1.000000000000000000 ) ) ;
#653 = ORIENTED_EDGE ( 'NONE', *, *, #767, .T. ) ;
#654 = CARTESIAN_POINT ( 'NONE',  ( 69.99986908664085661, -2.451783746873517966, -62.50000000000000000 ) ) ;
#655 = PLANE ( 'NONE',  #698 ) ;
#656 = MECHANICAL_DESIGN_GEOMETRIC_PRESENTATION_REPRESENTATION (  '', ( #728 ), #585 ) ;
#657 = EDGE_LOOP ( 'NONE', ( #733, #206, #41, #662, #348, #587, #739, #458, #631, #29, #101, #95 ) ) ;
#658 = ORIENTED_EDGE ( 'NONE', *, *, #541, .F. ) ;
#659 = CARTESIAN_POINT ( 'NONE',  ( 79.99791733571331065, -1.655862378559980863, -62.50000000000000000 ) ) ;
#660 = EDGE_CURVE ( 'NONE', #36, #754, #416, .T. ) ;
#661 = CARTESIAN_POINT ( 'NONE',  ( 14.99187128226110310, -5.559919603472100569, -62.50000000000000000 ) ) ;
#662 = ORIENTED_EDGE ( 'NONE', *, *, #541, .T. ) ;
#663 = CARTESIAN_POINT ( 'NONE',  ( 10.76559219212125029, 9.465568190074559851, 62.50000000000000000 ) ) ;
#664 = CARTESIAN_POINT ( 'NONE',  ( 79.99791733571331065, -1.655862378559980863, -62.50000000000000000 ) ) ;
#665 = ORIENTED_EDGE ( 'NONE', *, *, #713, .T. ) ;
#666 = AXIS2_PLACEMENT_3D ( 'NONE', #356, #763, #619 ) ;
#667 = CARTESIAN_POINT ( 'NONE',  ( 47.50000000000000000, -49.49000000000000909, -10.50000000000001243 ) ) ;
#668 = CARTESIAN_POINT ( 'NONE',  ( 47.50000000000000000, -19.49000000000000554, -13.50000000000001243 ) ) ;
#669 = VERTEX_POINT ( 'NONE', #275 ) ;
#670 = VECTOR ( 'NONE', #240, 1000.000000000000000 ) ;
#671 = CARTESIAN_POINT ( 'NONE',  ( 47.50000000000000000, 0.000000000000000000, 0.000000000000000000 ) ) ;
#672 = CARTESIAN_POINT ( 'NONE',  ( 47.50000000000000000, -19.49000000000000554, -2.400000000000006128 ) ) ;
#673 = ORIENTED_EDGE ( 'NONE', *, *, #477, .F. ) ;
#674 = CARTESIAN_POINT ( 'NONE',  ( 20.00025928547760756, -5.568030066590686111, 62.50000000000000000 ) ) ;
#675 = DIRECTION ( 'NONE',  ( -1.000000000000000000, 0.000000000000000000, -0.000000000000000000 ) ) ;
#676 = DIRECTION ( 'NONE',  ( -0.000000000000000000, 1.000000000000000000, -0.000000000000000000 ) ) ;
#677 = ORIENTED_EDGE ( 'NONE', *, *, #529, .F. ) ;
#678 = CYLINDRICAL_SURFACE ( 'NONE', #819, 2.050000000000003375 ) ;
#679 = CARTESIAN_POINT ( 'NONE',  ( 37.50000000000000711, -43.49000000000000909, -5.400000000000009237 ) ) ;
#680 = LINE ( 'NONE', #548, #72 ) ;
#681 = VECTOR ( 'NONE', #349, 1000.000000000000000 ) ;
#682 = DIRECTION ( 'NONE',  ( -0.000000000000000000, -0.000000000000000000, -1.000000000000000000 ) ) ;
#683 = EDGE_CURVE ( 'NONE', #600, #238, #803, .T. ) ;
#684 = FACE_OUTER_BOUND ( 'NONE', #344, .T. ) ;
#685 = DIRECTION ( 'NONE',  ( 0.000000000000000000, -0.000000000000000000, 1.000000000000000000 ) ) ;
#686 = ADVANCED_FACE ( 'NONE', ( #545 ), #678, .F. ) ;
#687 = DIRECTION ( 'NONE',  ( -1.000000000000000000, 0.000000000000000000, -0.000000000000000000 ) ) ;
#688 = CARTESIAN_POINT ( 'NONE',  ( 88.37281536315070696, 3.991194959981974044, 62.50000000000000000 ) ) ;
#689 = CARTESIAN_POINT ( 'NONE',  ( 95.02089356444169255, 1.910140014546920284, -62.50000000000000000 ) ) ;
#690 = ORIENTED_EDGE ( 'NONE', *, *, #774, .T. ) ;
#691 = EDGE_CURVE ( 'NONE', #387, #309, #531, .T. ) ;
#692 = LINE ( 'NONE', #361, #62 ) ;
#693 = DIRECTION ( 'NONE',  ( 0.000000000000000000, -0.000000000000000000, 1.000000000000000000 ) ) ;
#694 = CARTESIAN_POINT ( 'NONE',  ( -0.6397005551914320964, 0.4121310123930468361, -62.50000000000000000 ) ) ;
#695 = EDGE_LOOP ( 'NONE', ( #135, #230, #653, #677 ) ) ;
#696 = EDGE_CURVE ( 'NONE', #434, #574, #468, .T. ) ;
#697 = CARTESIAN_POINT ( 'NONE',  ( 47.50000000000000000, -49.49000000000000909, -10.50000000000001243 ) ) ;
#698 = AXIS2_PLACEMENT_3D ( 'NONE', #399, #593, #269 ) ;
#699 = CARTESIAN_POINT ( 'NONE',  ( 100.0000000000000142, 0.1900000000000000300, -62.50000000000000000 ) ) ;
#700 = AXIS2_PLACEMENT_3D ( 'NONE', #671, #675, #103 ) ;
#701 = CARTESIAN_POINT ( 'NONE',  ( 47.50000000000000000, -23.49000000000001265, -10.50000000000001243 ) ) ;
#702 = ORIENTED_EDGE ( 'NONE', *, *, #813, .T. ) ;
#703 = DIRECTION ( 'NONE',  ( 0.000000000000000000, 0.000000000000000000, -1.000000000000000000 ) ) ;
#704 = CARTESIAN_POINT ( 'NONE',  ( 70.04458865540020440, 8.613647635250398338, -62.50000000000000000 ) ) ;
#705 = CARTESIAN_POINT ( 'NONE',  ( 80.05033206481375885, 6.275081207657296822, -62.50000000000000000 ) ) ;
#706 = ORIENTED_EDGE ( 'NONE', *, *, #384, .F. ) ;
#707 = ORIENTED_EDGE ( 'NONE', *, *, #190, .T. ) ;
#708 = CARTESIAN_POINT ( 'NONE',  ( 27.50000000000000355, -49.49000000000000909, -2.400000000000006128 ) ) ;
#709 = CARTESIAN_POINT ( 'NONE',  ( 70.04458865540020440, 8.613647635250398338, -62.50000000000000000 ) ) ;
#710 = VERTEX_POINT ( 'NONE', #667 ) ;
#711 = CARTESIAN_POINT ( 'NONE',  ( 79.99791733571331065, -1.655862378559980863, 62.50000000000000000 ) ) ;
#712 = VECTOR ( 'NONE', #572, 1000.000000000000000 ) ;
#713 = EDGE_CURVE ( 'NONE', #210, #547, #97, .T. ) ;
#714 = CARTESIAN_POINT ( 'NONE',  ( 0.9458054658409633664, -2.013404428835056770, -62.50000000000000000 ) ) ;
#715 = EDGE_LOOP ( 'NONE', ( #805, #511, #440, #324 ) ) ;
#716 = EDGE_CURVE ( 'NONE', #267, #79, #431, .T. ) ;
#717 = CARTESIAN_POINT ( 'NONE',  ( 20.00025928547760756, -5.568030066590686111, -62.50000000000000000 ) ) ;
#718 = PRODUCT_DEFINITION_SHAPE ( 'NONE', 'NONE',  #410 ) ;
#719 = FACE_OUTER_BOUND ( 'NONE', #91, .T. ) ;
#720 = ORIENTED_EDGE ( 'NONE', *, *, #302, .T. ) ;
#721 = LINE ( 'NONE', #148, #140 ) ;
#722 = CARTESIAN_POINT ( 'NONE',  ( 31.66816584505133392, -5.170401077590973671, -62.50000000000000000 ) ) ;
#723 = ORIENTED_EDGE ( 'NONE', *, *, #69, .T. ) ;
#724 = ORIENTED_EDGE ( 'NONE', *, *, #725, .F. ) ;
#725 = EDGE_CURVE ( 'NONE', #492, #600, #252, .T. ) ;
#726 = CARTESIAN_POINT ( 'NONE',  ( 88.33436004407694497, -1.063713010766971667, 62.50000000000000000 ) ) ;
#727 = CARTESIAN_POINT ( 'NONE',  ( 88.33436004407694497, -1.063713010766971667, -62.50000000000000000 ) ) ;
#728 = STYLED_ITEM ( 'NONE', ( #482 ), #360 ) ;
#729 = VERTEX_POINT ( 'NONE', #192 ) ;
#730 = CARTESIAN_POINT ( 'NONE',  ( 94.99906958775663668, -0.5441061656459983409, 62.50000000000000000 ) ) ;
#731 = FACE_BOUND ( 'NONE', #336, .T. ) ;
#732 = EDGE_CURVE ( 'NONE', #395, #210, #56, .T. ) ;
#733 = ORIENTED_EDGE ( 'NONE', *, *, #767, .F. ) ;
#734 = CARTESIAN_POINT ( 'NONE',  ( 27.50000000000000355, -49.49000000000000909, -10.50000000000001243 ) ) ;
#735 = CARTESIAN_POINT ( 'NONE',  ( 37.50000000000000711, -43.49000000000000909, -13.50000000000001243 ) ) ;
#736 = ORIENTED_EDGE ( 'NONE', *, *, #632, .T. ) ;
#737 = LINE ( 'NONE', #537, #412 ) ;
#738 = CARTESIAN_POINT ( 'NONE',  ( 100.0000000000000142, 0.1900000000000000300, 62.50000000000000000 ) ) ;
#739 = ORIENTED_EDGE ( 'NONE', *, *, #15, .F. ) ;
#740 = CARTESIAN_POINT ( 'NONE',  ( 7.480542813441650729, -4.698670083282989296, 62.50000000000000000 ) ) ;
#741 = CIRCLE ( 'NONE', #25, 2.050000000000003375 ) ;
#742 = VECTOR ( 'NONE', #127, 1000.000000000000000 ) ;
#743 = CARTESIAN_POINT ( 'NONE',  ( 47.50000000000000000, -23.49000000000000199, -10.50000000000000533 ) ) ;
#744 = CARTESIAN_POINT ( 'NONE',  ( 47.50000000000000000, -49.49000000000000909, -5.400000000000006573 ) ) ;
#745 = EDGE_LOOP ( 'NONE', ( #491, #610 ) ) ;
#746 = LINE ( 'NONE', #738, #397 ) ;
#747 = DIRECTION ( 'NONE',  ( -0.000000000000000000, -0.000000000000000000, 1.000000000000000000 ) ) ;
#748 = DIRECTION ( 'NONE',  ( -0.000000000000000000, -0.000000000000000000, 1.000000000000000000 ) ) ;
#749 = ORIENTED_EDGE ( 'NONE', *, *, #623, .T. ) ;
#750 = DIRECTION ( 'NONE',  ( -1.000000000000000000, 0.000000000000000000, 0.000000000000000000 ) ) ;
#751 = PLANE ( 'NONE',  #794 ) ;
#752 = ORIENTED_EDGE ( 'NONE', *, *, #372, .F. ) ;
#753 = ADVANCED_FACE ( 'NONE', ( #766 ), #301, .F. ) ;
#754 = VERTEX_POINT ( 'NONE', #293 ) ;
#755 = AXIS2_PLACEMENT_3D ( 'NONE', #368, #503, #64 ) ;
#756 = CIRCLE ( 'NONE', #100, 2.050000000000003375 ) ;
#757 = LINE ( 'NONE', #131, #670 ) ;
#758 = CARTESIAN_POINT ( 'NONE',  ( 98.33605464191936107, 0.7648459145226604861, 62.50000000000000000 ) ) ;
#759 = CARTESIAN_POINT ( 'NONE',  ( 7.450393807160859083, 8.077448128534136629, 62.50000000000000000 ) ) ;
#760 = DIRECTION ( 'NONE',  ( -0.000000000000000000, -0.000000000000000000, 1.000000000000000000 ) ) ;
#761 = CARTESIAN_POINT ( 'NONE',  ( 32.50099038008685426, -5.125905687859096282, -5.400000000000002132 ) ) ;
#762 = CARTESIAN_POINT ( 'NONE',  ( 88.33436004407694497, -1.063713010766971667, 62.50000000000000000 ) ) ;
#763 = DIRECTION ( 'NONE',  ( 0.000000000000000000, 0.000000000000000000, 1.000000000000000000 ) ) ;
#764 = FACE_OUTER_BOUND ( 'NONE', #715, .T. ) ;
#765 = DIRECTION ( 'NONE',  ( 0.000000000000000000, 0.000000000000000000, 1.000000000000000000 ) ) ;
#766 = FACE_OUTER_BOUND ( 'NONE', #745, .T. ) ;
#767 = EDGE_CURVE ( 'NONE', #163, #729, #757, .T. ) ;
#768 = AXIS2_PLACEMENT_3D ( 'NONE', #436, #765, #363 ) ;
#769 = CARTESIAN_POINT ( 'NONE',  ( 95.02089356444169255, 1.910140014546920284, -62.50000000000000000 ) ) ;
#770 = CARTESIAN_POINT ( 'NONE',  ( 50.03110401784226724, 11.93379059958662758, -62.50000000000000000 ) ) ;
#771 = LINE ( 'NONE', #63, #26 ) ;
#772 = CARTESIAN_POINT ( 'NONE',  ( 100.0000000000000142, -0.1900000000000000300, 62.50000000000000000 ) ) ;
#773 = EDGE_LOOP ( 'NONE', ( #586, #527 ) ) ;
#774 = EDGE_CURVE ( 'NONE', #710, #79, #501, .T. ) ;
#775 = CARTESIAN_POINT ( 'NONE',  ( 7.450393807160859083, 8.077448128534136629, 62.50000000000000000 ) ) ;
#776 = CARTESIAN_POINT ( 'NONE',  ( 0.000000000000000000, 0.000000000000000000, -13.50000000000001243 ) ) ;
#777 = VERTEX_POINT ( 'NONE', #117 ) ;
#778 = PRODUCT_DEFINITION_CONTEXT ( 'detailed design', #532, 'design' ) ;
#779 = CARTESIAN_POINT ( 'NONE',  ( 24.98392418328137055, 12.45142468844472461, 62.50000000000000000 ) ) ;
#780 = CLOSED_SHELL ( 'NONE', ( #43, #686, #94, #549, #786, #753, #561, #245, #594, #469, #651, #441, #533, #258, #235, #18, #327, #122, #641, #407, #114 ) ) ;
#781 = AXIS2_PLACEMENT_3D ( 'NONE', #497, #375, #507 ) ;
#782 = LINE ( 'NONE', #584, #251 ) ;
#783 = ORIENTED_EDGE ( 'NONE', *, *, #207, .T. ) ;
#784 = CARTESIAN_POINT ( 'NONE',  ( 0.9458054658409633664, -2.013404428835056770, 62.50000000000000000 ) ) ;
#785 = DIRECTION ( 'NONE',  ( 1.000000000000000000, 0.000000000000000000, 0.000000000000000000 ) ) ;
#786 = ADVANCED_FACE ( 'NONE', ( #571 ), #7, .F. ) ;
#787 = EDGE_LOOP ( 'NONE', ( #642, #430, #799, #736 ) ) ;
#788 = CARTESIAN_POINT ( 'NONE',  ( 40.00381152026881182, -4.725051802464462547, -62.50000000000000000 ) ) ;
#789 = CARTESIAN_POINT ( 'NONE',  ( 45.00080864163927430, -4.380690088526362658, -10.50000000000000888 ) ) ;
#790 = ORIENTED_EDGE ( 'NONE', *, *, #392, .F. ) ;
#791 = PRODUCT ( 'NACA 4418 v2', 'NACA 4418 v2', '', ( #493 ) ) ;
#792 = CARTESIAN_POINT ( 'NONE',  ( 0.2518629026698032680, 2.071837780074668789, -62.50000000000000000 ) ) ;
#793 = CARTESIAN_POINT ( 'NONE',  ( 4.933879714449694198, -4.117884482130438784, -62.50000000000000000 ) ) ;
#794 = AXIS2_PLACEMENT_3D ( 'NONE', #538, #801, #123 ) ;
#795 = VECTOR ( 'NONE', #580, 1000.000000000000000 ) ;
#796 = ORIENTED_EDGE ( 'NONE', *, *, #73, .F. ) ;
#797 = CARTESIAN_POINT ( 'NONE',  ( 27.50000000000000355, -49.49000000000000909, -2.400000000000006128 ) ) ;
#798 = CARTESIAN_POINT ( 'NONE',  ( 39.16951857049865282, -4.769625645319604423, -10.50000000000000888 ) ) ;
#799 = ORIENTED_EDGE ( 'NONE', *, *, #716, .F. ) ;
#800 = DIRECTION ( 'NONE',  ( -0.000000000000000000, 1.000000000000000000, -1.489033026589533876E-16 ) ) ;
#801 = DIRECTION ( 'NONE',  ( 0.000000000000000000, 0.000000000000000000, -1.000000000000000000 ) ) ;
#802 = CARTESIAN_POINT ( 'NONE',  ( 2.814597369828947038, -3.236769207914103497, 62.50000000000000000 ) ) ;
#803 = LINE ( 'NONE', #286, #424 ) ;
#804 = EDGE_LOOP ( 'NONE', ( #627, #211, #475, #201 ) ) ;
#805 = ORIENTED_EDGE ( 'NONE', *, *, #185, .T. ) ;
#806 = AXIS2_PLACEMENT_3D ( 'NONE', #49, #426, #685 ) ;
#807 = CARTESIAN_POINT ( 'NONE',  ( 47.50000000000000000, -19.49000000000000554, -10.50000000000001243 ) ) ;
#808 = DIRECTION ( 'NONE',  ( 1.000000000000000000, 0.000000000000000000, 0.000000000000000000 ) ) ;
#809 = VERTEX_POINT ( 'NONE', #181 ) ;
#810 = DIRECTION ( 'NONE',  ( -0.000000000000000000, -0.000000000000000000, 1.000000000000000000 ) ) ;
#811 = EDGE_CURVE ( 'NONE', #563, #395, #692, .T. ) ;
#812 = CARTESIAN_POINT ( 'NONE',  ( 39.55000000000001137, -43.49000000000000909, -62.50000000000000000 ) ) ;
#813 = EDGE_CURVE ( 'NONE', #79, #434, #121, .T. ) ;
#814 = FILL_AREA_STYLE_COLOUR ( '', #99 ) ;
#815 = CARTESIAN_POINT ( 'NONE',  ( 60.03866438045672282, 10.51353884684799667, 62.50000000000000000 ) ) ;
#816 = CARTESIAN_POINT ( 'NONE',  ( 27.50000000000000000, -19.49000000000000554, -10.50000000000000533 ) ) ;
#817 = DIRECTION ( 'NONE',  ( 1.000000000000000000, 0.000000000000000000, 0.000000000000000000 ) ) ;
#818 = AXIS2_PLACEMENT_3D ( 'NONE', #776, #5, #443 ) ;
#819 = AXIS2_PLACEMENT_3D ( 'NONE', #350, #616, #175 ) ;
ENDSEC;
END-ISO-10303-21;
